<svg width="24" height="25" viewBox="0 0 24 25" fill="none" xmlns="http://www.w3.org/2000/svg">
<path d="M21.815 9.81052H14.1837V2.18552C14.1837 0.978567 13.2099 0 12.0029 0C10.796 0 9.82268 0.978567 9.82268 2.18605V9.8158H2.18763C0.980682 9.8158 -0.000527811 10.7944 8.58347e-07 12.0019C-0.000527811 12.6051 0.243189 13.158 0.638105 13.553C1.03355 13.9489 1.57914 14.199 2.18182 14.199H9.82268V21.8182C9.82268 22.4219 10.0622 22.9686 10.4576 23.363C10.8531 23.7584 11.3971 24.0032 12.0008 24.0032C13.2072 24.0032 14.1837 23.0246 14.1837 21.8182V14.1985H21.815C23.022 14.1985 24.0005 13.2114 24 12.0045C23.9995 10.7981 23.0209 9.81052 21.815 9.81052Z" fill="#333333"/>
</svg>
