<svg width="48" height="50" viewBox="0 0 48 50" fill="none" xmlns="http://www.w3.org/2000/svg">
<path d="M18.6922 41.7894C20.5867 39.895 21.3238 37.5605 20.3387 36.5754C19.3535 35.5902 17.0191 36.3273 15.1246 38.2218C13.2301 40.1163 12.493 42.4507 13.4782 43.4358C14.4633 44.421 16.7978 43.6839 18.6922 41.7894Z" fill="#D5EA79"/>
<path d="M25.9497 42.1098C26.7443 41.3152 26.1498 39.4322 24.6217 37.9041C23.0936 36.376 21.2106 35.7814 20.4159 36.5761C19.6213 37.3707 20.2158 39.2537 21.7439 40.7818C23.272 42.3099 25.155 42.9045 25.9497 42.1098Z" fill="#D5EA79"/>
<path d="M40.0662 36.5181L40.3039 41.968L41.3314 45.803C38.6749 46.5148 34.5994 44.9382 33.8876 42.2817L33.2739 35.4288L40.0662 36.5181Z" fill="#F03F34"/>
<path d="M12.6015 36.5179H45.1796C46.2874 36.5179 47.1854 35.6199 47.1854 34.5121C47.1854 33.4043 46.2874 32.5063 45.1796 32.5063H12.6015C11.4937 32.5063 10.5957 33.4043 10.5957 34.5121C10.5957 35.6199 11.4937 36.5179 12.6015 36.5179Z" fill="#C68A65"/>
<path d="M35.4308 31.8966H29.668C24.6807 31.8966 20.6377 28.0344 20.6377 23.2702V8.14973C20.6377 4.92471 23.3745 2.31034 26.7505 2.31034C30.1266 2.31034 32.8634 4.92471 32.8634 8.14973L35.4308 14.6794V31.8966Z" fill="#FECE3F"/>
<path d="M44.1724 35.931L40.8104 36.265C35.8997 36.265 30.0518 33.632 30.0518 29.5546V23.9212C30.0518 21.4544 32.4601 19.4547 35.4311 19.4547C38.402 19.4547 40.8104 21.4544 40.8104 23.9212V25.934L41.4828 31.2241L44.1724 35.931Z" fill="#33D6F5"/>
<path d="M41.4828 24.704V28.57C41.4828 29.5378 40.0076 30.5517 39.0173 30.5517C38.027 30.5517 37.2242 29.7672 37.2242 28.7994C37.2242 29.7672 36.4214 30.5517 35.4311 30.5517C34.4408 30.5517 33.638 29.7672 33.638 28.7994C33.638 29.7672 32.8351 30.5517 31.8449 30.5517C30.8546 30.5517 30.0518 29.7672 30.0518 28.7994V24.9334V22.3604C30.0518 19.4571 32.4601 17.1034 35.4311 17.1034C38.402 17.1034 41.4828 19.2277 41.4828 22.131V24.5" fill="#F03F34"/>
<path d="M18.2919 5.56145C17.0113 5.65128 15.9822 6.69881 15.9131 7.98067L21.0451 8.12287C21.0451 6.64344 19.7939 5.45614 18.2919 5.56145Z" fill="#FF9171"/>
<path d="M25.1038 8.41783C25.4699 8.41783 25.829 8.2689 26.0879 8.01001C26.3468 7.75112 26.4957 7.39201 26.4957 7.02594C26.4957 6.65987 26.3468 6.30076 26.0879 6.04187C25.829 5.78311 25.4713 5.63404 25.1038 5.63404C24.7377 5.63404 24.3786 5.78297 24.1197 6.04187C23.8608 6.30076 23.7119 6.65987 23.7119 7.02594C23.7119 7.39201 23.8608 7.75112 24.1197 8.01001C24.3786 8.2689 24.7377 8.41783 25.1038 8.41783Z" fill="black"/>
<path fill-rule="evenodd" clip-rule="evenodd" d="M45.1797 31.7899H42.3028V21.3951C42.3028 18.6361 38.8945 16.3514 36.23 15.9994L33.6625 6.40985C33.6625 3.40787 29.9977 0.965517 26.9956 0.965517C24.6763 0.965517 20.6867 2.7994 20.6867 5.69397C20.0171 5.08428 19.1507 4.78355 18.2419 4.84688C16.5955 4.96235 15.2868 6.29306 15.1978 7.94212C15.1481 8.86472 15.804 9.20488 16.1379 9.20488L20.3288 9.00322V25.5218C20.3288 28.0707 22.8083 30.3788 24.7793 31.7899H16.2788H12.6016C11.1006 31.7899 9.87939 33.0111 9.87939 34.5121C9.87939 36.0131 11.1006 37.2343 12.6016 37.2343H15.1671C14.9763 37.384 14.7942 37.545 14.6218 37.7175C13.2059 39.1334 12.5477 41.1894 12.7685 43.5067C12.8011 43.8486 13.0718 44.1194 13.4137 44.152C13.7075 44.18 13.9969 44.1938 14.2814 44.1938C16.2419 44.1938 17.9666 43.5352 19.203 42.2987C19.7577 41.744 20.1956 41.0907 20.5104 40.3623C20.7177 40.6989 20.9618 41.0098 21.2424 41.2903C22.2663 42.3141 23.6915 42.8595 25.3099 42.8595C25.5438 42.8595 25.7819 42.8481 26.0233 42.8251C26.3652 42.7925 26.6358 42.5219 26.6684 42.1799C26.8505 40.2687 26.3055 38.5708 25.1336 37.399C25.0771 37.3425 25.0189 37.2879 24.9601 37.2343H33.0159L33.1955 42.4671C33.8766 45.0091 37.5287 46.6897 40.0437 46.6897C40.5302 46.6896 41.0248 46.6267 41.5167 46.4949C41.7001 46.4457 41.8566 46.3257 41.9516 46.1611C42.0466 45.9966 42.0723 45.8011 42.0232 45.6176L40.9995 37.2343H45.1797C46.6807 37.2343 47.9019 36.0131 47.9019 34.5121C47.9019 33.0111 46.6807 31.7899 45.1797 31.7899ZM30.0234 33.2227H16.2788H12.6016C11.8906 33.2227 11.3121 33.8011 11.3121 34.5121C11.3121 35.2231 11.8906 35.8016 12.6016 35.8016H32.5291C31.5228 35.1293 30.6671 34.2491 30.0234 33.2227ZM40.87 28.5309V21.3951C40.87 19.1831 37.7256 17.3835 35.5136 17.3835C33.3016 17.3835 30.1572 19.1831 30.1572 21.3951V28.5309C30.1572 29.0049 30.9226 29.3906 31.3966 29.3906C31.8707 29.3906 32.6536 29.0049 32.6536 28.5309V25.0539C32.6536 24.6583 32.9743 24.3376 33.3699 24.3376C33.7656 24.3376 34.0863 24.6583 34.0863 25.0539V28.5309C34.0863 29.0049 35.0396 29.3906 35.5136 29.3906C35.9876 29.3906 36.6881 29.0049 36.6881 28.5309V25.0539C36.6881 24.6583 37.0088 24.3376 37.4044 24.3376C37.8001 24.3376 38.1208 24.6583 38.1208 25.0539V28.5309C38.1208 29.0049 39.2307 29.3906 39.7047 29.3906C40.1787 29.3906 40.87 29.0049 40.87 28.5309ZM19.7394 6.76822C19.3598 6.41427 18.8632 6.23941 18.3421 6.27609C17.2149 6.27609 16.6697 6.87955 16.3295 7.94212L19.9448 7.59973C19.9461 7.22905 19.8867 7.0233 19.7394 6.76822ZM21.7614 6.40985V25.5218C21.7614 27.5916 23.933 30.0816 26.5135 31.2306C26.8798 31.3937 28.4312 31.3331 28.725 31.2789C28.8595 31.2541 28.9866 31.2306 29.1067 31.2306C28.8583 30.4316 28.7244 29.5826 28.7244 28.703V21.3951C28.7244 18.6361 32.1327 16.3514 34.7972 15.9994L32.2298 6.40985C32.2298 4.1978 29.2076 2.39824 26.9956 2.39824C24.7836 2.39824 21.7614 4.1978 21.7614 6.40985ZM31.3966 30.8233C31.2046 30.8233 30.6382 30.7992 30.4598 30.7545C31.3421 33.6715 35.3994 35.8016 38.6005 35.8016H43.5597L42.2149 33.2285L40.87 30.6554C40.6044 30.7633 40.0087 30.7545 39.7047 30.7545C39.0946 30.7545 37.8155 30.5832 37.4044 30.1932C36.9932 30.5832 36.1237 30.8233 35.5136 30.8233C34.9035 30.8233 33.781 30.5832 33.3699 30.1932C32.9587 30.5832 32.0068 30.8233 31.3966 30.8233ZM14.1606 42.76C15.7886 42.7853 17.2032 42.2724 18.19 41.2856C19.1766 40.299 19.6902 38.8843 19.6643 37.2563C18.0356 37.2302 16.6216 37.7438 15.6349 38.7306C14.6483 39.7172 14.1346 41.1319 14.1606 42.76ZM22.2554 40.2772C22.9968 41.0185 24.0518 41.417 25.2697 41.4264C25.2604 40.2083 24.8618 39.1535 24.1205 38.4121C23.3791 37.6708 22.3241 37.2722 21.1062 37.2629C21.1155 38.481 21.514 39.5357 22.2554 40.2772ZM34.4992 37.2343L34.5793 42.0963C35.1246 44.1312 38.4074 45.4284 40.4383 45.2382L39.5163 37.2343H34.4992ZM44.9924 35.8016H45.1797C45.8907 35.8016 46.4691 35.2231 46.4691 34.5121C46.4691 33.8011 45.8907 33.2227 45.1797 33.2227H43.6476L44.9924 35.8016Z" fill="black"/>
<path d="M34.2799 36.6034C34.2799 37.1951 35.0142 37.7786 34.8607 38.3456C33.8487 42.0816 29.9728 45.1067 23.2898 45.1067C15.1408 45.9381 6.72306 37.549 7.02961 36.9766C6.84572 35.6365 15.385 26.753 23.2899 28.2658C30.1415 28.2658 33.9927 31.6054 34.8607 35.442C34.9678 35.9156 34.2799 36.1101 34.2799 36.6034Z" fill="#CFD3D6"/>
<path d="M1.8151 36.6034L1.23438 32.5384C4.13259 33.6832 5.73243 34.3514 7.62231 36.6034C5.84871 38.9796 4.33809 39.7496 1.23438 40.0878L1.8151 36.6034Z" fill="#747887"/>
<path d="M14.5356 29.6348C14.071 30.0994 12.987 26.1505 12.7935 24.4083C16.8791 23.579 19.7501 24.8218 23.8272 27.3119C20.9236 27.8926 15.0002 29.1702 14.5356 29.6348Z" fill="#747887"/>
<path d="M14.5356 43.6098C14.071 43.1452 12.987 47.0941 12.7935 48.8363C16.8791 49.6656 19.7501 48.4228 23.8272 45.9327C20.9236 45.352 15.0002 44.0744 14.5356 43.6098Z" fill="#747887"/>
<circle cx="31.4315" cy="34.2806" r="1.16144" fill="black"/>
<path d="M23.9223 34.1036C24.2191 34.1036 24.4597 33.863 24.4597 33.5662C24.4597 33.2694 24.2191 33.0288 23.9223 33.0288C23.3813 33.0288 22.9411 32.5886 22.9411 32.0476C22.9411 31.5065 23.3813 31.0663 23.9223 31.0663C24.2191 31.0663 24.4597 30.8257 24.4597 30.5289C24.4597 30.2321 24.2191 29.9915 23.9223 29.9915C22.7886 29.9915 21.8662 30.9139 21.8662 32.0477C21.8662 32.6486 22.1254 33.19 22.5378 33.5663C22.1254 33.9426 21.8662 34.484 21.8662 35.0849C21.8662 35.6858 22.1254 36.2273 22.5378 36.6036C22.1254 36.9799 21.8662 37.5213 21.8662 38.1223C21.8662 38.7232 22.1254 39.2647 22.5378 39.641C22.1254 40.017 21.8662 40.5585 21.8662 41.1594C21.8662 42.2931 22.7885 43.2155 23.9223 43.2155C24.2191 43.2155 24.4597 42.9749 24.4597 42.6781C24.4597 42.3813 24.2191 42.1408 23.9223 42.1408C23.3813 42.1408 22.9411 41.7006 22.9411 41.1595C22.9411 40.6184 23.3813 40.1782 23.9223 40.1782C24.2191 40.1782 24.4597 39.9376 24.4597 39.6408C24.4597 39.344 24.2191 39.1034 23.9223 39.1034C23.3813 39.1034 22.9411 38.6633 22.9411 38.1221C22.9411 37.5811 23.3813 37.1409 23.9223 37.1409C24.2191 37.1409 24.4597 36.9003 24.4597 36.6035C24.4597 36.3067 24.2191 36.0661 23.9223 36.0661C23.3813 36.0661 22.9411 35.6259 22.9411 35.0848C22.9411 34.5438 23.3813 34.1036 23.9223 34.1036Z" fill="black"/>
<path d="M19.6064 35.6222C19.9032 35.6222 20.1438 35.3816 20.1438 35.0848C20.1438 34.788 19.9032 34.5475 19.6064 34.5475C19.0653 34.5475 18.6251 34.1073 18.6251 33.5662C18.6251 33.0252 19.0653 32.585 19.6064 32.585C19.9032 32.585 20.1438 32.3444 20.1438 32.0476C20.1438 31.7508 19.9032 31.5102 19.6064 31.5102C18.4727 31.5102 17.5503 32.4325 17.5503 33.5663C17.5503 34.1672 17.8095 34.7087 18.2218 35.085C17.8095 35.4612 17.5503 36.0028 17.5503 36.6037C17.5503 37.2046 17.8095 37.746 18.2218 38.1224C17.8095 38.4983 17.5503 39.0399 17.5503 39.6408C17.5503 40.7745 18.4727 41.6968 19.6064 41.6968C19.9032 41.6968 20.1438 41.4563 20.1438 41.1595C20.1438 40.8627 19.9032 40.6221 19.6064 40.6221C19.0653 40.6221 18.6251 40.1819 18.6251 39.6408C18.6251 39.0997 19.0653 38.6595 19.6064 38.6595C19.9032 38.6595 20.1438 38.4189 20.1438 38.1221C20.1438 37.8253 19.9032 37.5848 19.6064 37.5848C19.0653 37.5848 18.6251 37.1446 18.6251 36.6035C18.6251 36.0624 19.0653 35.6222 19.6064 35.6222Z" fill="black"/>
<path d="M15.2909 37.1409C15.5877 37.1409 15.8283 36.9003 15.8283 36.6035C15.8283 36.3067 15.5877 36.0661 15.2909 36.0661C14.7498 36.0661 14.3096 35.626 14.3096 35.0848C14.3096 34.5438 14.7498 34.1036 15.2909 34.1036C15.5877 34.1036 15.8283 33.863 15.8283 33.5662C15.8283 33.2694 15.5877 33.0288 15.2909 33.0288C14.1572 33.0288 13.2349 33.9511 13.2349 35.0849C13.2349 35.6858 13.494 36.2273 13.9064 36.6036C13.494 36.9796 13.2349 37.5211 13.2349 38.1221C13.2349 39.2558 14.1572 40.1782 15.2909 40.1782C15.5877 40.1782 15.8283 39.9376 15.8283 39.6408C15.8283 39.344 15.5877 39.1035 15.2909 39.1035C14.7498 39.1035 14.3096 38.6633 14.3096 38.1222C14.3096 37.5811 14.7498 37.1409 15.2909 37.1409Z" fill="black"/>
<path fill-rule="evenodd" clip-rule="evenodd" d="M35.843 37.815C35.837 37.7916 35.8298 37.7687 35.8215 37.7462C35.7633 37.5886 35.6504 37.4535 35.5043 37.369C35.4452 37.3348 35.3889 37.3018 35.3355 37.2701C34.9616 37.0481 34.7243 36.8862 34.5768 36.7759C34.6969 36.554 34.9405 36.22 35.4159 35.9011C35.4476 35.8798 35.4803 35.8586 35.5141 35.8376C35.5188 35.8346 35.5233 35.831 35.5279 35.8279C35.5436 35.8176 35.5593 35.8072 35.5739 35.7959L35.578 35.7925L35.5816 35.7893L35.5871 35.7845C35.6011 35.773 35.6152 35.7616 35.6282 35.7493L35.6328 35.7444L35.637 35.74C35.8359 35.5443 35.9059 35.2465 35.8128 34.9831C35.797 34.9386 35.7766 34.895 35.7514 34.8531C35.7191 34.7994 35.6852 34.7443 35.6507 34.6886L35.6309 34.6568C34.828 33.3685 33.4552 31.5998 31.327 30.1217C29.409 28.7898 27.2274 27.9303 24.8152 27.553C22.7866 25.7154 19.2566 23.631 13.7965 23.8424C13.3371 23.8603 12.9226 24.0866 12.6592 24.4635C12.3962 24.8401 12.3264 25.3067 12.4676 25.7437L13.7303 29.6492C13.2417 29.9113 13.2417 29.9113 12.4676 30.3337C10.9702 31.3928 8.62286 33.8226 7.49664 35.2008C6.62883 34.5364 5.48168 33.7181 4.38316 33.1191C2.62575 32.1608 1.44834 32.0233 0.783722 32.6988C0.163087 33.3295 0.579824 34.5035 0.947284 35.3316C1.17793 35.8515 1.44112 36.3305 1.60818 36.62C1.44112 36.9095 1.17793 37.3884 0.947284 37.9082C0.579824 38.7363 0.163159 39.9102 0.783722 40.541C1.05928 40.8212 1.42295 40.9615 1.87967 40.9614C2.5244 40.9614 3.35444 40.6817 4.38316 40.1207C5.48161 39.5217 6.62883 38.7034 7.49664 38.039C8.64536 39.1565 9.45701 40.9721 11.9878 42.5757C12.5698 42.9445 13.1472 43.2822 13.72 43.5901L12.4678 47.4633C12.3265 47.9002 12.3963 48.3668 12.6594 48.7434C12.9227 49.1204 13.3372 49.3468 13.7967 49.3645C14.0548 49.3745 14.3082 49.3794 14.5578 49.3793C19.5589 49.3792 22.8436 47.4252 24.7726 45.6929C27.209 45.3179 29.411 44.4526 31.3443 43.1059C33.4718 41.624 34.8422 39.8529 35.6431 38.5634L35.6628 38.5317C35.6973 38.4759 35.731 38.4208 35.7633 38.3669C35.8634 38.1998 35.8918 38.0038 35.843 37.815ZM19.0412 28.7396C15.7224 29.4902 14.6992 30.3337 13.2417 31.1281C12.0249 31.7365 8.98306 34.7783 7.91352 36.2994C7.73636 36.477 7.73629 36.7628 7.91158 36.9384L7.91373 36.9406L7.91952 36.9464C8.94645 37.975 9.84958 39.9485 12.563 41.6678C13.2497 42.1029 13.9286 42.4928 14.5993 42.8388C14.6049 42.8414 14.6108 42.8435 14.6163 42.8463C16.8589 43.9989 19.0118 44.6546 21.0298 44.8012L21.0361 44.8017C21.1687 44.8113 21.3006 44.8182 21.4319 44.8233C21.4566 44.8243 21.4813 44.8251 21.5059 44.8259C21.6348 44.8302 21.7634 44.833 21.8912 44.833C22.0001 44.833 22.1088 44.832 22.2173 44.8301L22.2354 44.8297C22.9928 44.8158 23.7386 44.7564 24.457 44.6525L24.4607 44.6522C25.0597 44.5655 25.6434 44.4474 26.2111 44.2982C25.6991 43.3173 25.2831 42.1711 24.9961 40.9417C24.7657 39.9216 24.6783 39.3644 24.591 38.3903C24.5388 37.8031 24.5122 37.2019 24.5122 36.6035C24.5122 33.7604 25.1206 31.012 26.1955 28.9375C25.6447 28.7934 25.0788 28.6786 24.4986 28.5931L24.4969 28.593C23.7634 28.4851 23.0011 28.4236 22.2262 28.4099L22.2239 28.4098C22.1132 28.4079 22.0022 28.4069 21.891 28.4069C21.7521 28.4069 21.6126 28.4095 21.4724 28.4145C21.4456 28.4155 21.4189 28.417 21.3922 28.4186L21.3587 28.4205L21.3386 28.4215L21.3303 28.4219C21.2394 28.4262 21.1484 28.4304 21.057 28.4368C20.9866 28.4419 20.9164 28.4488 20.8461 28.455C20.7785 28.4609 20.7111 28.4662 20.6432 28.4732C20.5658 28.4813 20.4886 28.4909 20.4114 28.5006L20.3869 28.5036L20.3397 28.5094C20.304 28.5137 20.2682 28.518 20.2323 28.5229C20.1348 28.5363 20.0375 28.5513 19.9403 28.5668C19.9022 28.5728 19.8641 28.5785 19.8259 28.5849C19.7176 28.6031 19.6094 28.6229 19.5015 28.6436L19.4837 28.647L19.4268 28.658C19.3069 28.6817 19.1873 28.7068 19.068 28.7336L19.0412 28.7396ZM25.5871 36.6036C25.5871 37.1704 25.6121 37.7394 25.6616 38.2951C25.7453 39.1883 25.8144 39.7061 26.0427 40.6973C26.3276 41.9174 26.7453 43.0429 27.2595 43.9805C30.9906 42.6974 33.234 40.2165 34.4137 38.4822L34.4568 38.4184C34.4837 38.3785 34.5102 38.3388 34.5359 38.2996C34.5673 38.2519 34.5979 38.2047 34.6277 38.1582L34.6552 38.1155C34.3665 37.9403 34.1277 37.7817 33.9383 37.6402C33.852 37.5759 33.7751 37.5147 33.71 37.4577C33.6804 37.4317 33.6533 37.4037 33.6283 37.3742C33.5217 37.2483 33.4575 37.0928 33.442 36.9313C33.4305 36.8116 33.4456 36.6888 33.4898 36.5722C33.6038 36.2709 33.8811 35.7374 34.5216 35.2251C34.5643 35.1909 34.6085 35.1568 34.6545 35.1229L34.6269 35.0802C34.5972 35.0338 34.5666 34.9868 34.5354 34.9391C34.5094 34.8998 34.4827 34.8599 34.4557 34.8196L34.4137 34.7576C33.235 33.0252 30.9866 30.5367 27.2441 29.2541C26.1876 31.1935 25.5871 33.8426 25.5871 36.6036ZM22.3337 27.3373L22.4108 27.3392C22.5564 27.3429 22.7015 27.3478 22.8458 27.3547C20.9975 26.0632 18.2952 24.9023 14.5553 24.9023C14.3201 24.9023 14.0815 24.9069 13.8381 24.9163C13.7179 24.921 13.6094 24.9802 13.5405 25.0789C13.4718 25.1773 13.4536 25.299 13.4904 25.4129L14.6992 29.1517C16.8795 28.1034 18.9875 27.5048 20.9859 27.3647L21.002 27.3633L21.0209 27.3618C21.1271 27.3546 21.2328 27.3501 21.3385 27.3455C21.3555 27.3447 21.3725 27.3438 21.3895 27.3428C21.4128 27.3415 21.4362 27.3402 21.4596 27.3394C21.5588 27.336 21.6574 27.3351 21.7559 27.3341L21.7715 27.334C21.7891 27.3338 21.8068 27.3334 21.8244 27.333C21.8466 27.3324 21.8689 27.3319 21.8912 27.3319C22.0396 27.3319 22.1869 27.334 22.3337 27.3373ZM1.97364 38.2462C1.45084 39.3901 1.54289 39.7518 1.55748 39.7945C1.90985 40.1208 3.5838 39.6805 6.821 37.2028L6.81921 37.1978C6.81187 37.1798 6.80568 37.1615 6.79949 37.1431L6.79232 37.1221L6.78435 37.0999C6.77917 37.0857 6.774 37.0715 6.76972 37.0572C6.76412 37.0383 6.75974 37.0193 6.75536 37.0003L6.75013 36.9779L6.74424 36.9546C6.74067 36.9408 6.73709 36.9271 6.73439 36.9131C6.73023 36.8918 6.72745 36.8703 6.72468 36.8488L6.72195 36.8281L6.71843 36.8049C6.71641 36.7922 6.7144 36.7796 6.71315 36.7669C6.70951 36.7289 6.70843 36.6908 6.70765 36.6528C6.70722 36.6346 6.70679 36.6165 6.70707 36.5983C6.70765 36.5563 6.70915 36.5143 6.71315 36.4725C6.71415 36.462 6.71583 36.4515 6.7175 36.441L6.71913 36.4307L6.72059 36.4206L6.72287 36.403C6.72616 36.3773 6.72945 36.3516 6.73439 36.3261C6.73667 36.3143 6.73971 36.3025 6.74276 36.2908L6.74813 36.2695L6.75241 36.251C6.75772 36.2278 6.76302 36.2047 6.7698 36.1819C6.77339 36.1699 6.7777 36.1581 6.78201 36.1464L6.78975 36.1247L6.79573 36.1069C6.80081 36.0918 6.8059 36.0766 6.81145 36.0616C6.81397 36.0547 6.81659 36.0479 6.81936 36.0412L6.82093 36.0368C5.98875 35.4006 4.89974 34.6247 3.86859 34.0624C2.48421 33.3075 1.76173 33.2572 1.55755 33.4448C1.54289 33.4878 1.45063 33.8516 1.97772 35.002C2.11139 35.2938 2.25454 35.5696 2.37717 35.7939C2.43954 35.9079 2.4966 36.0087 2.5444 36.0914C2.6082 36.2018 2.65562 36.2803 2.67708 36.3155L2.68954 36.3358C2.79767 36.5097 2.79767 36.7298 2.68954 36.9036C2.68575 36.9097 2.29898 37.5343 1.97364 38.2462ZM13.5405 48.1278C13.6094 48.2265 13.7179 48.2857 13.8381 48.2904C17.9213 48.4483 20.8363 47.2418 22.7959 45.8869L22.7784 45.8875C22.6513 45.8932 22.5237 45.8974 22.3955 45.9007L22.3088 45.9028C22.1702 45.9057 22.0311 45.9076 21.8912 45.9076C21.7639 45.9076 21.6358 45.905 21.5076 45.9012L21.4196 45.8982C21.1524 45.8884 20.8833 45.8703 20.6125 45.844L20.5875 45.8414C18.7 45.6545 16.7274 45.0666 14.6896 44.0845L13.4904 47.7938C13.4536 47.9078 13.4718 48.0295 13.5405 48.1278Z" fill="black"/>
</svg>
