<svg width="47" height="47" viewBox="0 0 47 47" fill="none" xmlns="http://www.w3.org/2000/svg">
<path d="M16.1465 16.0451C28.3887 12.6686 34.8227 12.7329 45.9445 16.0451L43.6524 37.8206H18.4386L16.1465 16.0451Z" fill="#F0C483"/>
<rect x="19.585" y="17.1912" width="3.43824" height="5.7304" fill="#966A5B"/>
<rect x="39.0684" y="17.1912" width="3.43824" height="5.7304" fill="#966A5B"/>
<path d="M20.7306 33.8093H41.3601L43.6522 37.8206H18.4385L20.7306 33.8093Z" fill="#966A5B"/>
<path d="M26.4609 13.7529C30.0371 13.459 32.0535 13.4713 35.6296 13.7529V18.3373C32.0807 22.246 29.9971 22.2881 26.4609 18.3373V13.7529Z" fill="#966A5B"/>
<path d="M19.584 17.1912C19.584 5.15736 23.0222 0.57304 31.0448 0.57304C37.3482 0.57304 42.9143 5.9675 41.3595 17.1912H39.0673C39.0673 5.7304 36.2021 3.43824 31.0448 3.43824C26.4605 3.43824 22.4492 5.7304 22.4492 17.1912H19.584Z" fill="#F0C483"/>
<path d="M45.6091 15.1755C44.9412 14.9821 43.9046 14.694 42.6043 14.3864V11.6041C42.6043 8.52647 41.3817 5.57493 39.2055 3.39875C37.0293 1.22257 34.0778 0 31.0002 0C27.9226 0 24.9711 1.22257 22.7949 3.39875C20.6187 5.57493 19.3962 8.52647 19.3962 11.6041V14.3864C18.0959 14.694 17.0586 14.9808 16.3868 15.1768C15.9498 15.3084 15.5728 15.5893 15.3216 15.9704C15.0704 16.3516 14.961 16.8088 15.0124 17.2623L17.3332 36.9705C17.3892 37.441 17.6155 37.8748 17.9694 38.1898C18.3234 38.5048 18.7805 38.6792 19.2543 38.6802H42.7461C43.22 38.6792 43.6772 38.5047 44.0312 38.1895C44.3851 37.8744 44.6114 37.4405 44.6672 36.9699L46.988 17.2591C47.0386 16.8053 46.9282 16.3481 46.6762 15.9674C46.4242 15.5866 46.0465 15.3063 45.6091 15.1755ZM27.1322 14.3832C28.486 14.2543 29.7786 14.1827 31.0002 14.1827C32.2219 14.1827 33.5144 14.2511 34.8682 14.3832V16.7614C34.8682 17.7873 34.4607 18.7711 33.7353 19.4965C33.0099 20.2219 32.0261 20.6294 31.0002 20.6294C29.9743 20.6294 28.9905 20.2219 28.2651 19.4965C27.5397 18.7711 27.1322 17.7873 27.1322 16.7614V14.3832ZM31.0002 12.8934C28.4061 12.9191 25.8186 13.1595 23.2642 13.6122V11.6041C23.2642 9.55233 24.0792 7.58464 25.53 6.13385C26.9808 4.68306 28.9485 3.86802 31.0002 3.86802C33.0519 3.86802 35.0196 4.68306 36.4704 6.13385C37.9212 7.58464 38.7362 9.55233 38.7362 11.6041V13.6122C36.1818 13.1595 33.5943 12.9191 31.0002 12.8934ZM20.0408 18.0507H22.6195V22.5634H20.0408V18.0507ZM39.3809 18.0507H41.9596V22.5634H39.3809V18.0507ZM31.0002 1.28934C33.7348 1.29258 36.3565 2.38035 38.2902 4.31403C40.2239 6.24771 41.3117 8.86942 41.3149 11.6041V16.7614H40.0256V11.6041C40.0256 9.21037 39.0747 6.91474 37.3821 5.22215C35.6895 3.52956 33.3939 2.57868 31.0002 2.57868C28.6065 2.57868 26.3109 3.52956 24.6183 5.22215C22.9257 6.91474 21.9748 9.21037 21.9748 11.6041V16.7614H20.6855V11.6041C20.6887 8.86942 21.7765 6.24771 23.7102 4.31403C25.6439 2.38035 28.2656 1.29258 31.0002 1.28934ZM43.3888 36.8184C43.386 36.843 43.3819 36.8673 43.3763 36.8912C43.3464 37.021 43.2768 37.139 43.1763 37.2282C43.0593 37.3321 42.9086 37.3899 42.7523 37.3908C42.7496 37.3909 42.7469 37.3909 42.7442 37.3908H42.7523H42.5059H19.5843H19.2461H19.2543C19.2516 37.3909 19.2488 37.3909 19.2461 37.3908C19.0899 37.3898 18.9394 37.3322 18.8224 37.2285C18.7497 37.1639 18.6931 37.0844 18.656 36.9962C18.6324 36.9401 18.6166 36.8805 18.6097 36.819L16.2888 17.1147C16.2718 16.9619 16.309 16.808 16.3938 16.6799C16.4786 16.5517 16.6057 16.4573 16.753 16.4133C17.3532 16.2373 18.2628 15.9859 19.3962 15.7125V16.7614C19.2252 16.7614 19.0612 16.8293 18.9403 16.9502C18.8194 17.0711 18.7515 17.2351 18.7515 17.4061V23.2081C18.7515 23.3791 18.8194 23.5431 18.9403 23.664C19.0612 23.7849 19.2252 23.8528 19.3962 23.8528H23.2642C23.4351 23.8528 23.5991 23.7849 23.72 23.664C23.8409 23.5431 23.9088 23.3791 23.9088 23.2081V17.4061C23.9088 17.2351 23.8409 17.0711 23.72 16.9502C23.5991 16.8293 23.4351 16.7614 23.2642 16.7614V14.9183C24.1448 14.7662 25.0048 14.6404 25.8428 14.536V16.7614C25.8428 18.1292 26.3862 19.441 27.3534 20.4082C28.3206 21.3754 29.6324 21.9188 31.0002 21.9188C32.368 21.9188 33.6798 21.3754 34.647 20.4082C35.6142 19.441 36.1576 18.1292 36.1576 16.7614V14.536C36.9956 14.6404 37.8556 14.7662 38.7362 14.9183V16.7614C38.5653 16.7614 38.4013 16.8293 38.2804 16.9502C38.1595 17.0711 38.0916 17.2351 38.0916 17.4061V23.2081C38.0916 23.3791 38.1595 23.5431 38.2804 23.664C38.4013 23.7849 38.5653 23.8528 38.7362 23.8528H42.6043C42.7752 23.8528 42.9392 23.7849 43.0601 23.664C43.181 23.5431 43.2489 23.3791 43.2489 23.2081V17.4061C43.2489 17.2351 43.181 17.0711 43.0601 16.9502C42.9392 16.8293 42.7752 16.7614 42.6043 16.7614V15.7125C43.7369 15.9859 44.6459 16.2373 45.2422 16.412C45.3896 16.4556 45.5169 16.5495 45.6022 16.6773C45.6875 16.8051 45.7253 16.9587 45.709 17.1115L43.3888 36.8184Z" fill="black"/>
<path d="M43.1763 37.2282C43.2768 37.139 43.3464 37.021 43.3763 36.8912L41.645 33.7532C41.4691 33.4343 41.1337 33.2363 40.7694 33.2363H21.3208C20.9566 33.2363 20.6211 33.4343 20.4452 33.7532L18.656 36.9962C18.6931 37.0844 18.7497 37.1639 18.8224 37.2285C18.9394 37.3322 19.0899 37.3898 19.2461 37.3908C19.2488 37.3909 19.2516 37.3909 19.2543 37.3908H19.5843L21.1595 34.6343C21.2485 34.4785 21.4142 34.3824 21.5936 34.3824H40.4966C40.6761 34.3824 40.8417 34.4785 40.9307 34.6343L42.5059 37.3908H42.7442C42.7469 37.3909 42.7496 37.3909 42.7523 37.3908C42.9086 37.3899 43.0593 37.3321 43.1763 37.2282Z" fill="black"/>
<path d="M30.3555 18.6954C30.3555 19.0515 30.6441 19.3401 31.0001 19.3401C31.3562 19.3401 31.6448 19.0515 31.6448 18.6954C31.6448 18.3394 31.3562 18.0507 31.0001 18.0507C30.6441 18.0507 30.3555 18.3394 30.3555 18.6954Z" fill="black"/>
<path d="M35.4004 43.7286V42.054C35.4005 40.9291 34.6193 39.9551 33.5212 39.711L24.6004 37.7286L13.2004 30.5286L11.3122 32.2278C8.95997 34.3437 5.40324 34.3869 3.00039 32.3286L2.74719 32.835C1.33539 35.6584 0.600391 38.7718 0.600391 41.9286H10.8004L19.8004 43.7286H35.4004Z" fill="#BC832F"/>
<path d="M10.7988 42.5286C11.1302 42.5289 11.3991 42.2605 11.3994 41.9292C11.3995 41.8568 11.3865 41.7851 11.361 41.7174C11.2824 41.5092 9.36481 36.6018 1.94461 34.7466C1.62594 34.6557 1.29399 34.8405 1.20316 35.1592C1.11234 35.4779 1.29714 35.8098 1.61581 35.9007C1.62811 35.9042 1.64049 35.9073 1.65301 35.91C8.46901 37.614 10.2204 42.0942 10.2366 42.1392C10.3244 42.3735 10.5485 42.5287 10.7988 42.5286Z" fill="#824B27"/>
<path d="M12.1002 42.1955C13.6782 39.809 16.5609 38.638 19.356 39.2483L23.0304 40.0356L23.31 39.3372C23.6289 38.5395 23.3397 37.6278 22.6194 37.1598C22.3128 36.9612 13.05 31.1208 12.7602 30.933L13.5876 30.0828C13.8792 30.2718 22.9614 35.9514 23.2716 36.1524C24.4725 36.9329 24.9552 38.4526 24.4248 39.783L23.769 41.421L19.1052 40.4214C16.7917 39.9186 14.4069 40.8873 13.0992 42.861C12.9155 43.1368 12.5429 43.2115 12.267 43.0278C11.9912 42.844 11.9165 42.4714 12.1002 42.1955Z" fill="#824B27"/>
<path d="M10.8008 41.9286H0.60078V46.1286H10.8008V41.9286Z" fill="#484A4D"/>
<path d="M10.8004 44.3286L19.8004 46.1286H35.4004V43.7286H19.8004L10.8004 41.9286V44.3286Z" fill="#484A4D"/>
<path d="M2.20975 32.5668L2.46296 32.0598C2.61123 31.7634 2.97168 31.6434 3.26801 31.7916C3.31203 31.8137 3.35321 31.8411 3.39056 31.8732C5.56683 33.7284 8.77938 33.6897 10.9104 31.7826L12.7986 30.0828C12.9983 29.9043 13.2921 29.8798 13.5186 30.0228L15.5226 31.2882L16.5384 31.929L17.553 32.5692L18.567 33.2106L19.5816 33.8514L20.5968 34.4922L21.612 35.1312L21.6288 35.1024L22.6428 35.7468L23.2716 36.1536C23.3376 36.1962 23.3916 36.2496 23.4558 36.297L24.8322 37.1664L33.6522 39.126C35.0275 39.4257 36.0062 40.6462 36 42.054V46.1286C36 46.4599 35.7313 46.7286 35.4 46.7286H19.8C19.7597 46.7286 19.7195 46.7246 19.68 46.7166L11.4 45.06V46.1286C11.4 46.4599 11.1313 46.7286 10.8 46.7286H0.599957C0.268608 46.7286 -4.57764e-05 46.4599 -4.57764e-05 46.1286V41.9286C0.00378036 38.6792 0.760155 35.4748 2.20975 32.5668ZM1.20955 41.3268H9.81116C8.99156 39.9906 6.82556 37.3488 2.10476 36.0378C1.56836 37.7527 1.26715 39.5326 1.20955 41.3286V41.3268ZM19.956 35.5056L19.6765 35.9485C19.4995 36.229 19.1286 36.3128 18.8482 36.1356C18.5682 35.9586 18.4846 35.5882 18.6613 35.308L18.9414 34.8642L17.9268 34.2234L17.6472 34.6666C17.4703 34.9469 17.0995 35.0306 16.8193 34.8534C16.5395 34.6764 16.4561 34.3061 16.6329 34.0262L16.9128 33.5832L15.9 32.9424L15.6208 33.3845C15.4435 33.6654 15.0723 33.7497 14.791 33.573C14.5089 33.3958 14.4242 33.0233 14.602 32.7415L14.88 32.301L13.26 31.281L11.7096 32.6766C9.34301 34.7956 5.83773 35.0313 3.20876 33.2484C2.94416 33.7884 2.70956 34.3446 2.49536 34.908C8.50376 36.5964 10.6926 40.293 11.22 41.4012L12.4998 41.6568C14.1454 39.6225 16.7978 38.6906 19.3542 39.2484L23.031 40.0356L23.3106 39.3372C23.5942 38.6211 23.3909 37.804 22.8048 37.3044L21.9852 36.7866L21.706 37.2291C21.5288 37.5098 21.1576 37.5936 20.877 37.4162C20.5969 37.2391 20.5132 36.8685 20.6901 36.5882L20.97 36.1446L19.956 35.5056ZM34.8 42.0539C34.8039 41.2088 34.2163 40.4761 33.3906 40.2965L24.6144 38.3465C24.6702 38.8336 24.6051 39.327 24.4248 39.7829L23.9574 40.9511C23.8501 41.2236 23.5606 41.3778 23.2746 41.3147L19.1052 40.4213C17.2215 40.0157 15.2601 40.584 13.8852 41.9339L19.86 43.1286H34.8V42.0539ZM19.86 45.5286H34.8V44.3286H19.8C19.7597 44.3286 19.7195 44.3246 19.68 44.3166L11.4 42.6599V43.8365L19.86 45.5286ZM1.19995 45.5286H10.2V42.5286H1.19995V45.5286Z" fill="black"/>
</svg>
