<svg width="30" height="36" viewBox="0 0 30 36" fill="none" xmlns="http://www.w3.org/2000/svg">
<path d="M29.2775 19.2215V33.9944C29.2775 34.8107 28.6157 35.4723 27.7996 35.4723H19.5055C18.6893 35.4723 18.0276 34.8106 18.0276 33.9944V19.2215C18.0276 17.0558 18.4526 14.9111 19.2785 12.9091L20.9944 8.74993C21.3567 7.87158 21.5431 6.93066 21.5431 5.98053V4.98097H25.7618V5.98053C25.7618 6.93066 25.9483 7.87158 26.3106 8.74993L28.0265 12.9091C28.8524 14.9111 29.2775 17.0558 29.2775 19.2215Z" fill="#D6E0FF"/>
<path d="M29.2772 19.2217V33.9947C29.2772 34.8103 28.6156 35.4727 27.7992 35.4727H19.5053C18.689 35.4727 18.0273 34.8103 18.0273 33.9947V19.2217C18.0273 17.0561 18.4527 14.9108 19.2782 12.909L19.4688 12.4471H27.8359L28.0264 12.909C28.8525 14.9108 29.2772 17.0561 29.2772 19.2217Z" fill="#F27A2A"/>
<path d="M25.7616 4.98094H21.543V1.08984C21.543 0.779203 21.7948 0.527344 22.1055 0.527344H25.1991C25.5098 0.527344 25.7616 0.779203 25.7616 1.08984V4.98094Z" fill="#435B67"/>
<path d="M18.0276 19.4062H29.2775V31.359H18.0276V19.4062Z" fill="#FECE3F"/>
<path fill-rule="evenodd" clip-rule="evenodd" d="M29.8047 26.9949V19.2217C29.8047 16.9758 29.3704 14.7844 28.5139 12.7081L27.6803 10.6875L26.798 8.54887C26.4602 7.73016 26.289 6.86609 26.289 5.98057V1.08984C26.2891 0.488883 25.8001 0 25.1992 0H22.1055C21.5045 0 21.0156 0.488883 21.0156 1.08984V5.98057C21.0156 6.86609 20.8443 7.73023 20.5067 8.54887L18.7909 12.7081C17.9343 14.7843 17.5 16.9758 17.5 19.2217V33.9948C17.5 35.1006 18.3996 36.0001 19.5052 36.0001H27.7994C28.9051 36.0001 29.8047 35.1006 29.8047 33.9948V26.9949ZM27.0477 11.9198L26.7053 11.0898L25.823 8.95113C25.4324 8.00423 25.2343 7.00481 25.2343 5.98064V5.50835H22.0703V5.98064C22.0703 7.00481 21.8722 8.00423 21.4817 8.95113L20.257 11.9198H27.0477ZM28.75 30.832V26.9949V19.9338H21.4004H18.5547V30.832H28.75ZM18.5588 18.8791H19.1649H28.7459C28.704 16.8917 28.2989 14.9527 27.5389 13.1103L27.4828 12.9745H19.8219L19.7658 13.1103C19.0058 14.9527 18.6006 16.8917 18.5588 18.8791ZM22.1055 1.05469C22.0861 1.05469 22.0703 1.07051 22.0703 1.08984V4.45359H25.2343V1.08984C25.2343 1.07051 25.2186 1.05469 25.1992 1.05469H22.1055ZM28.75 33.9948V31.8866H18.5547V33.9948C18.5547 34.5189 18.9811 34.9453 19.5052 34.9453H27.7994C28.3236 34.9453 28.75 34.5189 28.75 33.9948Z" fill="#333333"/>
<path d="M1.69215 13.3407C1.69215 8.83737 5.34278 5.18675 9.84608 5.18675C14.3494 5.18675 18 8.83737 18 13.3407V13.8833H1.69222V13.3407H1.69215Z" fill="#EDF4FF"/>
<path d="M8.67399 13.3408L7.66318 4.24359C7.63583 3.99728 7.45561 3.79528 7.21402 3.74008L3.1996 2.82328C2.88418 2.76021 2.67964 2.45336 2.74271 2.13794L2.97116 0.995714C3.03423 0.680293 3.34107 0.475754 3.65649 0.538824L8.90961 1.71487C9.407 1.81436 9.78289 2.22428 9.83893 2.7285L11.0181 13.3407V14.5056H8.67406V13.3408H8.67399Z" fill="#BAE9F5"/>
<path d="M8.67399 13.3408L7.66318 4.24359C7.63583 3.99728 7.45561 3.79528 7.21402 3.74008L3.1996 2.82328C2.88418 2.76021 2.67964 2.45336 2.74271 2.13794L2.97116 0.995714C3.03423 0.680293 3.34107 0.475754 3.65649 0.538824L8.90961 1.71487C9.407 1.81436 9.78289 2.22428 9.83893 2.7285L11.0181 13.3407V14.5056H8.67406V13.3408H8.67399Z" fill="#FAF8FA"/>
<path d="M3.38305 33.143H16.3087C16.6048 33.143 16.8502 32.9134 16.8699 32.6179L17.9998 15.6704V15.3188H1.69197V15.6704L2.82182 32.6179C2.84151 32.9135 3.0869 33.143 3.38305 33.143Z" fill="#966A5B"/>
<circle cx="6" cy="33" r="1" fill="#551B09"/>
<path fill-rule="evenodd" clip-rule="evenodd" d="M6 35C7.10457 35 8 34.1046 8 33C8 31.8954 7.10457 31 6 31C4.89543 31 4 31.8954 4 33C4 34.1046 4.89543 35 6 35ZM6 34C6.55228 34 7 33.5523 7 33C7 32.4477 6.55228 32 6 32C5.44772 32 5 32.4477 5 33C5 33.5523 5.44772 34 6 34Z" fill="#333333"/>
<circle cx="14" cy="28" r="1" fill="#551B09"/>
<path fill-rule="evenodd" clip-rule="evenodd" d="M14 30C15.1046 30 16 29.1046 16 28C16 26.8954 15.1046 26 14 26C12.8954 26 12 26.8954 12 28C12 29.1046 12.8954 30 14 30ZM14 29C14.5523 29 15 28.5523 15 28C15 27.4477 14.5523 27 14 27C13.4477 27 13 27.4477 13 28C13 28.5523 13.4477 29 14 29Z" fill="#333333"/>
<circle cx="15" cy="32" r="1" fill="#551B09"/>
<path fill-rule="evenodd" clip-rule="evenodd" d="M15 34C16.1046 34 17 33.1046 17 32C17 30.8954 16.1046 30 15 30C13.8954 30 13 30.8954 13 32C13 33.1046 13.8954 34 15 34ZM15 33C15.5523 33 16 32.5523 16 32C16 31.4477 15.5523 31 15 31C14.4477 31 14 31.4477 14 32C14 32.5523 14.4477 33 15 33Z" fill="#333333"/>
<circle cx="10" cy="31" r="1" fill="#551B09"/>
<path fill-rule="evenodd" clip-rule="evenodd" d="M10 33C11.1046 33 12 32.1046 12 31C12 29.8954 11.1046 29 10 29C8.89543 29 8 29.8954 8 31C8 32.1046 8.89543 33 10 33ZM10 32C10.5523 32 11 31.5523 11 31C11 30.4477 10.5523 30 10 30C9.44772 30 9 30.4477 9 31C9 31.5523 9.44772 32 10 32Z" fill="#333333"/>
<circle cx="6" cy="27" r="1" fill="#551B09"/>
<path fill-rule="evenodd" clip-rule="evenodd" d="M6 29C7.10457 29 8 28.1046 8 27C8 25.8954 7.10457 25 6 25C4.89543 25 4 25.8954 4 27C4 28.1046 4.89543 29 6 29ZM6 28C6.55228 28 7 27.5523 7 27C7 26.4477 6.55228 26 6 26C5.44772 26 5 26.4477 5 27C5 27.5523 5.44772 28 6 28Z" fill="#333333"/>
<path d="M4.00193 35.5H15.6902C16.0008 35.5 16.2527 35.2875 16.2527 35.0253V33H3.43943V35.0253C3.43943 35.2875 3.69129 35.5 4.00193 35.5Z" fill="#EDF4FF"/>
<path d="M1.08977 15.6704H18.6023C18.9129 15.6704 19.1648 15.4185 19.1648 15.1079V13.9032C19.1648 13.5925 18.9129 13.3407 18.6023 13.3407H1.08977C0.779131 13.3407 0.527273 13.5925 0.527273 13.9032V15.1079C0.527273 15.4186 0.779131 15.6704 1.08977 15.6704Z" fill="#D6E0FF"/>
<path d="M9.84605 26.1539C7.91608 26.1539 6.35153 24.5894 6.35153 22.6594C6.35153 20.7294 7.91608 19.1649 9.84605 19.1649C11.776 19.1649 13.3406 20.7294 13.3406 22.6594C13.3406 24.5894 11.776 26.1539 9.84605 26.1539Z" fill="#FECE3F"/>
<path d="M8.70167 22.8432C8.59874 22.2083 9.03004 21.6101 9.66502 21.5071C10.3 21.4042 10.8982 21.8355 11.0011 22.4705C11.1041 23.1055 10.6728 23.7036 10.0378 23.8066C9.4028 23.9095 8.80461 23.4782 8.70167 22.8432Z" fill="#FAF8FA"/>
<path d="M1.0896 13.3407H2.70679C2.39615 13.3407 2.14429 13.5925 2.14429 13.9032V15.1079C2.14429 15.4185 2.39615 15.6704 2.70679 15.6704H1.0896C0.778959 15.6704 0.5271 15.4185 0.5271 15.1079V13.9032C0.5271 13.5925 0.778959 13.3407 1.0896 13.3407Z" fill="#C2D1FF"/>
<path fill-rule="evenodd" clip-rule="evenodd" d="M1.08974 12.8133H1.18122C1.40059 9.17128 3.87509 6.12788 7.22379 5.06454L7.13906 4.30186C7.13646 4.27859 7.11938 4.2594 7.09659 4.25419L3.08816 3.33873C2.80093 3.2791 2.55343 3.11211 2.39052 2.86777C2.22613 2.62112 2.16756 2.32524 2.22564 2.0345L2.45408 0.892278C2.57403 0.292373 3.15981 -0.098353 3.75985 0.0216702L3.77173 0.0242014L9.0195 1.19905C9.74196 1.34635 10.2815 1.93677 10.363 2.67027L10.5876 4.6914C14.8552 5.05421 18.2521 8.51723 18.5108 12.8133H18.6023C19.2033 12.8133 19.6921 13.3022 19.6921 13.9032V15.1079C19.6921 15.7088 19.2033 16.1977 18.6023 16.1977H18.4933L17.3613 33.1781C17.3428 33.4551 17.1127 33.6704 16.8351 33.6704H16.7801V34.9102C16.7801 35.5111 16.2912 36 15.6902 36H12.2858H4.00187C3.40091 36 2.91202 35.5111 2.91202 34.9102V33.6704H2.85697C2.57931 33.6704 2.34924 33.4551 2.33082 33.1781L1.70223 23.7492L1.5602 21.6181L1.19879 16.1977H1.08981C0.48885 16.1977 -3.24249e-05 15.7088 -3.24249e-05 15.1079V13.9032C-0.000102997 13.3022 0.48885 12.8133 1.08974 12.8133ZM15.7253 34.9102C15.7253 34.9295 15.7096 34.9453 15.6902 34.9453H12.2858H4.00194C3.98253 34.9453 3.96678 34.9295 3.96678 34.9102V33.6704H15.7253V34.9102ZM3.35028 32.6157L2.75452 23.679L2.61249 21.5479L2.2558 16.1977H17.4362L16.3417 32.6157H16.2526H3.43937H3.35028ZM8.08476 12.8133H2.23801C2.45064 9.71479 4.52211 7.11942 7.3429 6.13653L8.08476 12.8133ZM9.64028 5.71697L10.4288 12.8133H9.14592L8.37304 5.85739C8.78472 5.77653 9.208 5.7285 9.64028 5.71697ZM8.79443 2.22948L8.80624 2.23201C9.07961 2.28664 9.28401 2.5096 9.31474 2.78677L9.52357 4.66608C9.09248 4.6819 8.66927 4.72908 8.25626 4.80586L8.18735 4.18536C8.13532 3.71658 7.79135 3.33106 7.33151 3.22602L3.31709 2.30921C3.31245 2.30809 3.30774 2.30717 3.30303 2.30619C3.28827 2.30324 3.27652 2.29536 3.26809 2.28277C3.25972 2.27012 3.25691 2.2562 3.25993 2.24136L3.48837 1.09914C3.49414 1.07031 3.521 1.05125 3.55039 1.05547L8.79443 2.22948ZM11.4899 12.8133L10.7066 5.76296C14.336 6.17245 17.2018 9.13921 17.454 12.8133H11.4899ZM1.08974 15.143C1.07033 15.143 1.05458 15.1272 1.05458 15.1079V13.9032C1.05458 13.8838 1.07033 13.868 1.08974 13.868H8.6718L8.67328 13.8681L8.67447 13.868H11.0204H11.0235H18.6022C18.6216 13.868 18.6373 13.8838 18.6373 13.9032V15.1079C18.6373 15.1272 18.6216 15.143 18.6022 15.143H17.9999H1.69204H1.08974Z" fill="#333333"/>
<path d="M5.82393 22.6594C5.82393 20.4418 7.62814 18.6375 9.8458 18.6375C12.0635 18.6375 13.8677 20.4418 13.8677 22.6594C13.8677 24.8771 12.0635 26.6813 9.8458 26.6813C7.62814 26.6813 5.82393 24.8771 5.82393 22.6594ZM12.8131 22.6594C12.8131 21.0232 11.482 19.6922 9.84587 19.6922C8.20977 19.6922 6.87868 21.0233 6.87868 22.6594C6.87868 24.2955 8.20977 25.6266 9.84587 25.6266C11.482 25.6266 12.8131 24.2956 12.8131 22.6594Z" fill="#333333"/>
<path d="M8.15389 22.6594C8.15389 21.7263 8.91299 20.9673 9.84611 20.9673C10.7792 20.9673 11.5383 21.7264 11.5383 22.6594C11.5383 23.5925 10.7792 24.3516 9.84611 24.3516C8.91299 24.3516 8.15389 23.5925 8.15389 22.6594ZM10.4836 22.6594C10.4836 22.3079 10.1977 22.022 9.84611 22.022C9.49455 22.022 9.20859 22.3079 9.20859 22.6594C9.20859 23.0109 9.49455 23.2969 9.84611 23.2969C10.1976 23.2969 10.4836 23.0109 10.4836 22.6594Z" fill="#333333"/>
</svg>
