<svg width="33" height="32" viewBox="0 0 33 32" fill="none" xmlns="http://www.w3.org/2000/svg">
<path d="M32.0273 4.3008H0.527344V2.5195C0.527344 2.32537 0.684773 2.16794 0.878906 2.16794H31.6758C31.8699 2.16794 32.0273 2.32537 32.0273 2.5195V4.3008Z" fill="#C57A44"/>
<path d="M18 6.43359H28.9004V17.6983H18V6.43359Z" fill="#FEF0AE"/>
<path d="M28.9001 4.3008V1.92185C28.9001 1.15165 26.4599 0.527344 23.4501 0.527344C20.4402 0.527344 18 1.15172 18 1.92185V4.30073H28.9001V4.3008Z" fill="#FEF0AE"/>
<path d="M31.6758 6.4336H0.878906C0.684773 6.4336 0.527344 6.27617 0.527344 6.08204V4.30081H32.0273V6.08204C32.0273 6.27617 31.8699 6.4336 31.6758 6.4336Z" fill="#D88A55"/>
<path d="M31.8156 14.4312C31.835 14.0316 31.5128 13.6983 31.1129 13.6983H2.85857C2.45863 13.6983 2.13639 14.0316 2.15587 14.4312C2.41595 19.7828 5.50998 24.3896 9.96871 26.7853V30.7695C9.96871 31.1579 10.2835 31.4727 10.6718 31.4727H23.2997C23.688 31.4727 24.0028 31.1579 24.0028 30.7695V26.7853C28.4615 24.3896 31.5555 19.7827 31.8156 14.4312Z" fill="#F03F34"/>
<path d="M31.1129 13.6983H2.85857C2.45863 13.6983 2.13639 14.0316 2.15587 14.4312C2.21852 15.7204 2.44661 16.9661 2.81765 18.1484H31.1539C31.5249 16.9661 31.753 15.7204 31.8156 14.4312C31.835 14.0316 31.5128 13.6983 31.1129 13.6983Z" fill="white"/>
<path d="M9.96851 26.7853V30.7695C9.96851 31.1579 10.2833 31.4727 10.6716 31.4727H23.2995C23.6878 31.4727 24.0026 31.1579 24.0026 30.7695V26.7853H9.96851Z" fill="white"/>
<path d="M9.96851 30.7695C9.96851 31.1579 10.2833 31.4727 10.6716 31.4727H23.2995C23.6878 31.4727 24.0026 31.1579 24.0026 30.7695V29.5978H9.96851V30.7695Z" fill="#FB2B3A"/>
<path fill-rule="evenodd" clip-rule="evenodd" d="M31.6758 1.6406H29.407C29.2705 0.713742 28.4701 0 27.5059 0C26.9572 0 26.4619 0.231469 26.1114 0.601523C25.7608 0.231469 25.2655 0 24.7168 0C24.1681 0 23.6728 0.231469 23.3223 0.601523C22.9718 0.231469 22.4764 0 21.9277 0C21.3791 0 20.8837 0.231469 20.5332 0.601523C20.1827 0.231469 19.6874 0 19.1387 0C18.1745 0 17.3741 0.713742 17.2376 1.6406H0.878906C0.394242 1.6406 0 2.03484 0 2.51951V3.77339V4.82808V6.08203C0 6.5667 0.394242 6.96094 0.878906 6.96094H7.34407H17.2169L17.2376 13.1711H18.2714L18.2715 6.96094H20.0059V13.1711H21.0605L21.0606 6.96094H22.795L22.7949 13.1711H23.8496V6.96094H25.584L25.584 13.1711H24.7439H23.8496H22.7949H21.0605H20.0059H18.2714H17.2376H6.2493L2.85855 13.171C2.52288 13.171 2.19748 13.3104 1.96587 13.5535C1.73229 13.7987 1.61269 14.1195 1.62907 14.4568C1.75943 17.1386 2.59453 19.7477 4.04416 22.002C5.40021 24.1108 7.2618 25.8669 9.44128 27.097V30.7695C9.44128 31.448 9.99331 32 10.6718 32H23.2996C23.978 32 24.5301 31.448 24.5301 30.7695V27.0969C26.7095 25.8669 28.5711 24.1107 29.9272 22.0019C31.3768 19.7476 32.2119 17.1386 32.3423 14.4568C32.3587 14.1195 32.2391 13.7987 32.0055 13.5535C31.7739 13.3104 31.4485 13.171 31.1128 13.171H29.4278V11.1797V6.96094H31.6758C32.1604 6.96094 32.5547 6.5667 32.5547 6.08203V4.82815V3.77346V2.51951C32.5547 2.03491 32.1604 1.6406 31.6758 1.6406ZM28.3731 13.1709V11.1797V6.96094H26.6387V13.1709H28.3731ZM27.5058 1.05469C27.0277 1.05469 26.6387 1.44366 26.6387 1.92185L26.6386 3.77339H28.373V1.92185C28.373 1.44373 27.984 1.05469 27.5058 1.05469ZM24.7168 1.05469C24.2387 1.05469 23.8496 1.44366 23.8496 1.92185L23.8496 3.77339H25.584V1.92185C25.584 1.44373 25.1949 1.05469 24.7168 1.05469ZM21.9277 1.05469C21.4496 1.05469 21.0606 1.44366 21.0606 1.92185L21.0605 3.77339H22.7949V1.92185C22.7949 1.44373 22.4059 1.05469 21.9277 1.05469ZM19.1386 1.05469C18.6605 1.05469 18.2715 1.44366 18.2715 1.92185L18.2714 3.77339H20.0058V1.92185C20.0058 1.44373 19.6168 1.05469 19.1386 1.05469ZM17.2168 2.69529H1.05469V3.77339H17.2168V2.69529ZM21.4805 29.0704H23.4754V27.3126H10.496V29.0704H21.4805ZM23.4754 30.1251H21.4805H10.496V30.7695C10.496 30.8664 10.5749 30.9453 10.6718 30.9453H23.2996C23.3965 30.9453 23.4754 30.8664 23.4754 30.7695V30.1251ZM31.2419 14.281C31.2222 14.2603 31.1792 14.2256 31.1129 14.2256H2.85848C2.79211 14.2256 2.74915 14.2604 2.72946 14.281C2.70647 14.3051 2.67961 14.3464 2.68249 14.4056C2.73558 15.4977 2.91417 16.5769 3.21124 17.6211H8.68359H30.7601C31.0572 16.5769 31.2358 15.4977 31.2889 14.4056C31.2917 14.3464 31.2649 14.3052 31.2419 14.281ZM30.4135 18.6758H8.68359H3.55795C3.91444 19.6382 4.37309 20.5634 4.9313 21.4314C6.22477 23.443 8.01253 25.1087 10.1057 26.2579H23.8658C25.9588 25.1087 27.7466 23.443 29.0401 21.4314C29.5983 20.5634 30.0569 19.6383 30.4135 18.6758ZM1.05469 5.90625H31.5V4.82815H28.9005H17.7442H1.05469V5.90625ZM29.4278 3.77346H31.5V2.69529H29.4278V3.77346Z" fill="#333333"/>
</svg>
