<svg width="45" height="48" viewBox="0 0 45 48" fill="none" xmlns="http://www.w3.org/2000/svg">
<path d="M37.8698 12.6679C37.75 12.6786 37.6287 12.6841 37.5059 12.6841C36.7844 12.6844 36.1074 12.4947 35.5221 12.1621L35.5228 12.161C35.143 12.426 34.6973 12.6033 34.2151 12.663L34.2181 12.6853L33.2868 15.4829C33.189 15.7759 32.9151 15.9737 32.6064 15.9738C32.2684 15.9739 31.9765 15.7384 31.9051 15.4081C31.9051 15.4081 31.5787 13.8995 31.5791 13.8999C31.2756 14.0581 30.9311 14.1478 30.5654 14.1479C30.1997 14.148 29.8552 14.0587 29.5519 13.9006L29.5519 13.9002L29.2266 15.4091C29.1555 15.7394 28.8637 15.9751 28.5257 15.9752C28.2171 15.9753 27.943 15.7778 27.845 15.4849L26.9117 12.6879L26.9146 12.6657C26.4331 12.6063 25.9877 12.4296 25.608 12.1653L25.6084 12.1649C25.0229 12.4983 24.3457 12.6889 23.6238 12.6891C23.5011 12.6892 23.3798 12.6837 23.2599 12.6732L23.2585 12.6892C25.4048 14.834 26.8809 17.5566 27.507 20.5257L27.8891 22.3364C27.9604 22.6747 28.2586 22.9164 28.6042 22.9163L32.5329 22.9149C32.8785 22.9147 33.1765 22.6728 33.2476 22.3345L33.6283 20.5235C34.2523 17.5539 35.7265 14.8303 37.8713 12.684L37.8698 12.6679Z" fill="#96CC7F"/>
<path d="M37.7757 4.66088C37.4552 3.39407 36.3111 2.45561 34.9448 2.4561C34.5488 2.45624 34.1718 2.53601 33.8273 2.67898C33.0978 1.66109 31.9081 0.995909 30.5604 0.996393C29.2127 0.996877 28.0235 1.66292 27.2947 2.68132C26.9501 2.53861 26.5731 2.4591 26.1771 2.45924C24.8108 2.45974 23.6673 3.39902 23.3478 4.66606C21.2564 4.80782 19.6028 6.54478 19.6036 8.67204C19.6044 10.8914 21.4042 12.6899 23.6235 12.6891C24.3454 12.6888 25.0212 12.4957 25.6063 12.1623C26.0802 12.4928 26.6553 12.688 27.2767 12.6878C27.6866 12.6876 28.0764 12.6024 28.4303 12.4499C28.6546 13.4227 29.5243 14.1483 30.5651 14.1479C31.6059 14.1475 32.4751 13.4213 32.6987 12.4484C33.0528 12.6006 33.4426 12.6856 33.8525 12.6854C34.4739 12.6852 35.0488 12.4896 35.5225 12.1588C36.1079 12.4917 36.7838 12.6844 37.5057 12.6841C39.725 12.6833 41.5235 10.8835 41.5227 8.66417C41.522 6.53691 39.8672 4.80114 37.7757 4.66088Z" fill="#669E4F"/>
<path d="M27.2759 11.5911C26.7564 11.5913 26.261 11.3686 25.9163 10.9793C25.8016 10.8497 25.5838 10.8425 25.4315 10.9627C24.9118 11.3746 24.2865 11.5922 23.6231 11.5924C22.0113 11.593 20.7 10.2827 20.6995 8.6713L21.4301 8.67104C21.4305 9.87951 22.414 10.8622 23.6228 10.8618C24.12 10.8616 24.5887 10.6989 24.978 10.3904C25.437 10.0268 26.0895 10.0729 26.463 10.4951C26.6688 10.7277 26.9651 10.8606 27.2756 10.8605C27.8799 10.8603 28.3714 10.3684 28.3712 9.7645L29.1018 9.76424C29.1022 10.7714 28.2834 11.5908 27.2759 11.5911Z" fill="#78B75B"/>
<path d="M41.8879 8.66335C41.8871 6.45207 40.2246 4.59064 38.0582 4.31633C37.608 2.99294 36.3623 2.08995 34.9445 2.09046C34.6033 2.09058 34.2712 2.14988 33.9542 2.25083C33.1242 1.23444 31.8789 0.629919 30.5598 0.630392C29.2424 0.630865 27.9929 1.22971 27.164 2.24413C26.8457 2.14415 26.5147 2.09312 26.1765 2.09324C24.7561 2.09375 23.5114 3.00019 23.064 4.3261C20.9091 4.60159 19.2369 6.4434 19.2377 8.67185C19.2385 10.8981 20.9091 12.7373 23.0609 13.0138C25.1275 15.103 26.5415 17.7229 27.1486 20.6003L27.5307 22.4115C27.6372 22.9156 28.0881 23.2811 28.6036 23.2809L32.5319 23.2795C32.5326 23.2798 32.533 23.2798 32.5333 23.2798C33.0477 23.2797 33.4984 22.9135 33.6049 22.4089L33.9852 20.5982C34.5903 17.72 36.0027 15.0987 38.0675 13.0084C40.2195 12.7303 41.8887 10.89 41.8879 8.66335ZM33.2695 20.448L32.8895 22.2587C32.8538 22.4271 32.704 22.5491 32.5323 22.5492C32.532 22.5492 32.532 22.5492 32.532 22.5488L28.6033 22.5503C28.4312 22.5503 28.2811 22.4284 28.2456 22.2607L27.8639 20.4496C27.2773 17.6704 25.9674 15.1243 24.0718 13.0273C24.6004 12.973 25.1158 12.8263 25.5895 12.5883C25.9081 12.7793 26.2603 12.9085 26.6239 12.9811L27.4976 15.6005C27.6453 16.0428 28.0582 16.3397 28.5251 16.3395C29.0314 16.3393 29.4763 15.9804 29.5828 15.4854L29.8165 14.4014C30.054 14.4729 30.305 14.5123 30.5648 14.5122C30.8234 14.5121 31.0744 14.4722 31.3125 14.3986L31.5474 15.4847C31.6543 15.9793 32.0997 16.3382 32.6057 16.338C33.0722 16.3379 33.4849 16.0407 33.6327 15.5979L34.5053 12.9768C34.8662 12.9036 35.2143 12.7712 35.5331 12.5815C36.0034 12.8177 36.5182 12.9684 37.0559 13.023C35.1622 15.1213 33.8541 17.6684 33.2695 20.448ZM27.4152 13.0443C27.6793 13.034 27.9419 12.9963 28.1951 12.9228C28.3896 13.4038 28.7215 13.8034 29.1384 14.082L28.8692 15.3315C28.8342 15.4922 28.69 15.6092 28.5252 15.6092C28.3736 15.6093 28.2391 15.5129 28.1912 15.3693L27.4152 13.0443ZM31.9897 14.0751C32.4057 13.7951 32.7387 13.3957 32.9329 12.9203C33.1868 12.994 33.4495 13.033 33.7133 13.0432L32.9393 15.3673C32.8915 15.5116 32.7571 15.6077 32.6055 15.6078C32.4407 15.6078 32.296 15.4913 32.2612 15.3302L31.9897 14.0751ZM37.5054 12.3181C36.1329 12.3186 34.8883 11.5614 34.257 10.3418L33.6083 10.6778C33.9074 11.2556 34.3222 11.745 34.8148 12.1277C34.2402 12.3587 33.5863 12.3813 33.0024 12.1758C32.9414 12.0947 32.8471 12.0407 32.7393 12.0323C32.5625 12.0141 32.3901 12.1431 32.3533 12.3233C32.1808 13.1679 31.4285 13.7812 30.5645 13.7815C29.7082 13.7818 28.9762 13.2009 28.7852 12.3687C28.7611 12.2632 28.6909 12.1741 28.5945 12.1248C28.4984 12.0762 28.3855 12.0719 28.2847 12.1154C27.4884 12.458 26.5305 12.3637 25.8165 11.8649C25.7006 11.7839 25.549 11.7774 25.4267 11.8472C24.8803 12.1586 24.2567 12.3229 23.6229 12.3231C21.6085 12.3238 19.9691 10.686 19.9684 8.67159C19.9677 6.65685 21.6059 5.0178 23.6203 5.01708C24.3334 5.01683 25.0246 5.22189 25.6191 5.61074L26.019 4.99942C25.374 4.57734 24.6338 4.33759 23.8659 4.29512C24.2802 3.41127 25.1706 2.82424 26.1771 2.82388C26.5044 2.82376 26.8226 2.88466 27.1233 3.00474C27.2823 3.08652 27.481 3.04187 27.5876 2.89206C28.2726 1.93394 29.3841 1.36145 30.5604 1.36103C31.5932 1.36066 32.5757 1.80161 33.2642 2.55758C32.7883 2.84124 32.3815 3.24214 32.0963 3.73652L32.7288 4.10197C33.1848 3.31199 34.0336 2.82143 34.9448 2.8211C36.1079 2.82068 37.1216 3.60137 37.4183 4.72279C37.4289 4.78051 37.4538 4.83567 37.4907 4.88278C37.555 4.96349 37.65 5.01351 37.7527 5.02041C39.6608 5.14868 41.1566 6.74897 41.1573 8.66361C41.158 10.6783 39.5198 12.3174 37.5054 12.3181Z" fill="#333333"/>
<path d="M27.2756 10.8605C26.9651 10.8606 26.6692 10.7277 26.463 10.4951C26.0895 10.0729 25.4367 10.0268 24.978 10.3904C24.5887 10.6989 24.12 10.8616 23.6228 10.8618C22.414 10.8622 21.4305 9.87951 21.4301 8.67104L20.6995 8.6713C20.7 10.2827 22.0113 11.593 23.6231 11.5924C24.2865 11.5922 24.9118 11.3746 25.4315 10.9627C25.5838 10.8425 25.8016 10.8493 25.9163 10.9793C26.2606 11.3683 26.7564 11.5913 27.2759 11.5911C28.2834 11.5908 29.1022 10.7714 29.1018 9.76424L28.3712 9.7645C28.3714 10.3684 27.8799 10.8603 27.2756 10.8605Z" fill="#333333"/>
<path d="M34.9196 22.4204C35.4412 22.7345 35.5931 23.4276 35.244 23.9251C30.5346 30.63 21.3561 32.6354 14.2118 28.3342C7.06743 24.033 4.54478 14.983 8.26667 7.68352C8.54294 7.14219 9.22613 6.95183 9.74822 7.26616L34.9196 22.4204Z" fill="#78B75B"/>
<path d="M33.1517 21.356C29.5631 27.3167 21.8107 29.2329 15.8361 25.6358C9.86141 22.0388 7.92724 14.291 11.5159 8.33025L33.1517 21.356Z" fill="#ECFA97"/>
<path d="M31.349 20.2706C28.3584 25.2379 21.8982 26.8347 16.9192 23.8371C11.9401 20.8395 10.3283 14.383 13.3188 9.41565L31.349 20.2706Z" fill="#F03F34"/>
<path d="M20.168 18.4408L18.7421 19.1117C18.5541 19.2001 18.397 19.342 18.2903 19.5192L18.1834 19.6968C17.8842 20.1937 18.0458 20.8393 18.5436 21.139C19.0414 21.4387 19.6875 21.2793 19.9867 20.7824L20.0933 20.6052C20.2003 20.4276 20.2522 20.2224 20.242 20.0153L20.168 18.4408Z" fill="#282727"/>
<path d="M25.7586 19.3557L24.3327 20.0265C24.1447 20.1149 23.9876 20.2568 23.8809 20.434L23.774 20.6117C23.4748 21.1086 23.6363 21.7542 24.1341 22.0539C24.632 22.3536 25.2781 22.1942 25.5773 21.6973L25.6839 21.5201C25.7909 21.3425 25.8428 21.1372 25.8326 20.9302L25.7586 19.3557Z" fill="#282727"/>
<path d="M16.2928 13.6569L14.8669 14.3277C14.6789 14.4161 14.5218 14.558 14.4151 14.7352L14.3082 14.9128C14.009 15.4097 14.1705 16.0553 14.6683 16.3551C15.1661 16.6548 15.8123 16.4954 16.1114 15.9985L16.2181 15.8213C16.3251 15.6437 16.3769 15.4384 16.3668 15.2314L16.2928 13.6569Z" fill="#282727"/>
<path fill-rule="evenodd" clip-rule="evenodd" d="M35.9222 23.0002C35.8322 22.5716 35.5653 22.1959 35.1898 21.9698L33.7336 21.0931L10.0184 6.81554C9.64293 6.58947 9.1859 6.52937 8.76505 6.65036C8.34735 6.77018 7.99476 7.05969 7.79856 7.4446C3.93926 15.0131 6.63714 24.3866 13.9407 28.7837C21.2437 33.1805 30.7899 31.179 35.6723 24.2264C35.9214 23.8728 36.0123 23.4257 35.9222 23.0002ZM17.1898 23.3869C21.7601 26.1384 27.6582 24.7945 30.6051 20.435L13.5202 10.1491C11.0464 14.7935 12.6186 20.6348 17.1898 23.3869ZM31.5045 20.9765C28.258 25.8314 21.7146 27.3364 16.6483 24.2863C11.5816 21.2359 9.84925 14.7485 12.6208 9.60766L11.7061 9.05698C8.63468 14.695 10.5405 21.8345 16.1068 25.1857C21.6727 28.5366 28.8737 26.8798 32.4191 21.5271L31.5045 20.9765ZM8.73415 7.92086C5.12341 15.0012 7.64855 23.7702 14.4821 27.8843C21.3148 31.9979 30.2462 30.1262 34.8139 23.622C34.8966 23.5039 34.9255 23.3602 34.8956 23.2166C34.8645 23.0698 34.7767 22.9459 34.6486 22.8687L33.3188 22.0682C29.4743 27.9165 21.6271 29.7339 15.5656 26.0846C9.50372 22.4351 7.43738 14.6493 10.807 8.51505L9.47722 7.71448C9.34906 7.63732 9.19848 7.61774 9.05421 7.65893C8.91282 7.69941 8.79934 7.79223 8.73415 7.92086Z" fill="#333333"/>
<path d="M11.1699 35.4299L30.2994 34.5802C30.6969 34.5625 31.091 34.5012 31.4753 34.3971L31.4782 34.3963C34.3642 33.6142 36.0694 30.6412 35.2873 27.7552C34.5052 24.8692 31.5322 23.164 28.6462 23.9461L28.6433 23.9469C28.2596 24.0509 27.8879 24.1971 27.5359 24.3826L10.5949 33.3079C10.1283 33.5537 9.89455 34.0904 10.0327 34.5992C10.1704 35.1081 10.6428 35.4531 11.1699 35.4299Z" fill="#F27A2A"/>
<path d="M39.9012 23.6705C39.8566 23.9107 39.7432 24.1462 39.5592 24.3506C38.6247 25.39 37.2966 26.0668 35.8668 26.2318L34.7138 26.3648L34.7078 26.3599L33.5214 27.8564L33.3868 28.2696L38.9183 26.7709L38.9181 26.7703L38.9183 26.7709C39.4001 26.4805 39.838 26.1222 40.2128 25.7056C40.7422 25.1169 40.6876 24.2716 40.0889 23.7963C40.0288 23.7491 39.966 23.7072 39.9012 23.6705Z" fill="#78B75B"/>
<path d="M41.3321 28.9502C41.1723 28.7654 40.9554 28.6194 40.6935 28.5359C39.362 28.1105 37.8739 28.1969 36.5564 28.7764L35.494 29.2438L35.4913 29.2511L33.7116 28.5583L33.3869 28.2696L38.9181 26.7703L38.9183 26.7709L38.9181 26.7703C39.4807 26.7777 40.0396 26.8659 40.5734 27.0362C41.3277 27.2771 41.7074 28.0342 41.4306 28.7468C41.4025 28.818 41.3695 28.8858 41.3321 28.9502Z" fill="#669E4F"/>
<path d="M34.7143 26.365L35.8674 26.232C37.2972 26.0671 38.6253 25.3902 39.5598 24.3508C40.0892 23.7621 40.0347 22.9168 39.436 22.4415C38.7855 21.9248 37.764 22.0533 37.226 22.7195C36.966 23.0411 36.6863 23.3484 36.3874 23.6404L36.3878 23.6406C36.1701 24.3091 35.8318 24.9442 35.3855 25.507L34.708 26.3599L34.7143 26.365Z" fill="#669E4F"/>
<path d="M38.3146 30.7512C38.7196 30.8521 39.1166 30.9764 39.5034 31.1227C40.3041 31.4261 41.251 31.0209 41.5513 30.2468C41.8281 29.5342 41.4484 28.7771 40.6942 28.5362C39.3627 28.1109 37.8746 28.1973 36.5571 28.7768L35.4947 29.2442L35.492 29.2515L36.5074 29.6465C37.1765 29.9067 37.7892 30.2841 38.3146 30.7512Z" fill="#78B75B"/>
<path d="M33.7118 28.5584L36.5071 29.6458C37.8485 30.1676 38.9618 31.1587 39.6026 32.401C39.9657 33.1049 39.6985 33.9084 38.999 34.2166C38.2391 34.5516 37.2831 34.1685 36.9314 33.3882C36.6374 32.7356 36.2739 32.1084 35.8474 31.5175L33.7118 28.5584Z" fill="#96CC7F"/>
<path d="M33.5219 27.8564L35.3856 25.5063C36.28 24.3787 36.7406 22.9611 36.6665 21.5652C36.6244 20.7743 35.9882 20.2157 35.2287 20.3028C34.4037 20.3973 33.7719 21.2108 33.8623 22.0619C33.938 22.7736 33.941 23.4985 33.8711 24.2238L33.5219 27.8564Z" fill="#96CC7F"/>
<path d="M30.0535 33.2216C28.7784 32.4903 27.8403 31.2741 27.4609 29.8753C27.0762 28.4548 27.2674 26.97 27.9994 25.6938L28.7479 26.0986L28.7373 26.117C28.1272 27.1807 27.9616 28.4689 28.2822 29.6521C28.6072 30.8525 29.3802 31.8548 30.4586 32.4733C30.459 32.4736 30.4594 32.4738 30.46 32.4736L30.0552 33.2221C30.0546 33.2223 30.0542 33.222 30.0535 33.2216Z" fill="#C16B3F"/>
<path d="M26.413 33.5853C25.3634 32.9833 24.6109 32.0084 24.2946 30.8399L24.2406 30.6408C23.9241 29.4717 24.0814 28.2503 24.6836 27.2003L25.4217 27.6232C24.9325 28.4762 24.8045 29.4687 25.0621 30.4182L25.1161 30.6173C25.3731 31.5669 25.984 32.3586 26.8363 32.8474C26.8366 32.8476 26.837 32.8478 26.8376 32.8477L26.4147 33.5858C26.4138 33.5857 26.4134 33.5855 26.413 33.5853Z" fill="#C16B3F"/>
<path d="M23.1427 34.1607L22.9716 34.0625C22.0318 33.5235 21.3583 32.6513 21.0747 31.606C20.7917 30.5606 20.9323 29.4675 21.4712 28.5272L21.5696 28.3556L22.3075 28.7788L22.2093 28.95C21.7831 29.6931 21.672 30.557 21.8961 31.3828C22.1197 32.2093 22.6521 32.8986 23.3948 33.3246L23.566 33.4228L23.1427 34.1607Z" fill="#C16B3F"/>
<path d="M18.7644 34.1009L18.18 33.7657C17.7447 33.516 17.4328 33.1126 17.3014 32.6288C17.1705 32.1448 17.2358 31.6385 17.4853 31.2035L17.8206 30.6181L18.5587 31.041L18.2234 31.6264C18.0867 31.8647 18.0507 32.1412 18.1227 32.4055C18.1944 32.6703 18.3649 32.8911 18.6032 33.0278L19.1877 33.363L18.7644 34.1009Z" fill="#C16B3F"/>
<path d="M40.0947 33.62C40.2568 33.1614 40.2171 32.6586 39.9822 32.2047C39.8714 31.9901 39.7444 31.7859 39.6095 31.5869C40.5664 31.8086 41.5956 31.311 41.9496 30.399C42.1227 29.9526 42.107 29.4738 41.9052 29.0512C41.8821 29.0026 41.8489 28.9605 41.8216 28.9149C41.8236 28.9097 41.8267 28.9051 41.8289 28.8995C42.0021 28.4531 41.9864 27.9744 41.7846 27.5517C41.5752 27.1124 41.1909 26.7856 40.705 26.63C40.4918 26.5616 40.2751 26.5059 40.0551 26.4621C40.2228 26.3132 40.3822 26.155 40.5314 25.989C40.8728 25.6092 41.0385 25.133 40.9978 24.6483C40.9586 24.1816 40.7304 23.7604 40.3548 23.4621C40.3504 23.4586 40.3462 23.4557 40.3412 23.4524C40.3418 23.3992 40.349 23.3465 40.3448 23.2931C40.3056 22.8264 40.0774 22.4052 39.7025 22.1073C38.9375 21.5014 37.7968 21.589 37.0831 22.2632C37.0989 22.0237 37.1057 21.7834 37.093 21.5422C37.0662 21.0316 36.8466 20.5776 36.4751 20.2636C36.1173 19.9632 35.6572 19.8243 35.1819 19.8793C34.1229 20.0005 33.3259 21.0207 33.4412 22.1062C33.5136 22.7896 33.5168 23.4877 33.4496 24.1827L33.4288 24.3992C32.0161 23.3992 30.2406 23.0727 28.5338 23.5352C28.1202 23.6476 27.7181 23.8058 27.3396 24.005L10.3984 32.9298C9.75097 33.2704 9.43231 34.0021 9.62378 34.7086C9.73554 35.1199 10.0008 35.4515 10.3469 35.65C10.5952 35.7924 10.8855 35.8667 11.1906 35.8529L30.3204 35.0034C30.7481 34.9845 31.1751 34.918 31.5913 34.8052C33.2959 34.3432 34.6633 33.1663 35.3778 31.5888L35.5049 31.7647C35.9133 32.3308 36.2636 32.9348 36.5461 33.5612C36.7271 33.9621 37.0305 34.2794 37.3925 34.487C37.9278 34.794 38.5912 34.8607 39.1736 34.6044C39.6112 34.4117 39.9389 34.0617 40.0947 33.62ZM39.656 30.7236C39.2899 30.5847 38.9082 30.4663 38.522 30.3659C37.978 29.8979 37.3527 29.5168 36.6637 29.2486L36.5972 29.2227L36.7303 29.1642C37.9443 28.6308 39.3423 28.5485 40.5667 28.94C40.8293 29.0249 41.0304 29.1932 41.1382 29.4183C41.2377 29.6269 41.2446 29.8662 41.1568 30.0919C40.9401 30.6492 40.2393 30.9444 39.656 30.7236ZM40.4461 27.4405C40.7087 27.5254 40.9098 27.6937 41.0176 27.9188C41.0671 28.0222 41.0931 28.1333 41.097 28.2463C41.0097 28.2026 40.9216 28.1604 40.8257 28.1294C39.3851 27.6694 37.8094 27.7605 36.3882 28.3859L35.4763 28.7867L34.5027 28.4077L38.9695 27.1972C39.4774 27.2085 39.9742 27.2895 40.4461 27.4405ZM39.8786 24.6335C39.9455 24.5586 40.0003 24.4777 40.0537 24.3966C40.1074 24.496 40.141 24.605 40.1507 24.7189C40.1716 24.9672 40.0821 25.2165 39.8989 25.4203C39.5671 25.7895 39.1786 26.1104 38.7457 26.376L34.28 27.5862L34.9293 26.7671L35.9182 26.6527C37.4611 26.4752 38.8672 25.7582 39.8786 24.6335ZM37.5589 22.9852C37.9505 22.4999 38.7078 22.4081 39.1735 22.7733C39.3628 22.9236 39.4781 23.1338 39.4975 23.3641C39.5184 23.6124 39.4289 23.8617 39.2459 24.0652C38.3863 25.021 37.1379 25.6563 35.8209 25.8085L35.677 25.825L35.7212 25.7695C36.1805 25.19 36.5279 24.545 36.7613 23.8663C37.0433 23.5849 37.313 23.2899 37.5589 22.9852ZM34.2874 22.0159C34.2218 21.3958 34.6848 20.792 35.2794 20.7241C35.4679 20.7023 35.6498 20.739 35.8048 20.8279C35.8472 20.8522 35.8877 20.8808 35.926 20.9131C36.1163 21.0737 36.2295 21.3132 36.2442 21.5869C36.3122 22.8703 35.8784 24.2019 35.0548 25.2411L34.0851 26.4634L34.2963 24.2633C34.3691 23.5122 34.3655 22.756 34.2874 22.0159ZM31.3656 33.9848C31.0124 34.0809 30.6479 34.1376 30.2821 34.1538L11.1526 35.0035C10.8229 35.0184 10.532 34.8059 10.4453 34.486C10.3587 34.1667 10.5022 33.8361 10.7946 33.6821L27.7358 24.7564C28.0597 24.5857 28.4027 24.451 28.7592 24.3544C30.3794 23.9147 32.0722 24.3154 33.3312 25.4107L33.1001 27.8141C33.0952 27.8662 33.1026 27.9165 33.116 27.9649L33.1131 27.9657L33.3033 28.6676L33.3056 28.667C33.3185 28.7155 33.3387 28.7624 33.3692 28.8049L34.7822 30.7627C34.2478 32.3459 32.9898 33.545 31.3656 33.9848ZM38.8298 33.8267C38.2824 34.0682 37.5778 33.7818 37.3213 33.2125C37.015 32.5342 36.6364 31.8797 36.1946 31.2684L34.9015 29.4759L36.3554 30.0416C37.5917 30.5227 38.638 31.4528 39.2269 32.5957C39.3527 32.839 39.3757 33.1023 39.2927 33.3376C39.2155 33.5551 39.0511 33.729 38.8298 33.8267Z" fill="#333333"/>
<path d="M28.284 29.6522C27.9588 28.4512 28.1205 27.1955 28.7395 26.1164L28.7499 26.0983L28.0016 25.6931C27.2696 26.9693 27.0784 28.4542 27.463 29.8746C27.8481 31.2943 28.7629 32.4795 30.0571 33.2218L30.4623 32.4736C29.3831 31.8546 28.6095 30.8524 28.284 29.6522Z" fill="#333333"/>
<path d="M25.0643 30.4175C24.8066 29.4681 24.9346 28.4756 25.4237 27.6229L24.6858 27.1997C24.0835 28.2497 23.9263 29.4711 24.2428 30.6402L24.2967 30.8393C24.6138 32.0082 25.3663 32.9831 26.4163 33.5853L26.8395 32.8474C25.9865 32.3582 25.3752 31.5663 25.1182 30.6167L25.0643 30.4175Z" fill="#333333"/>
<path d="M21.8983 31.3829C21.6745 30.5558 21.786 29.6921 22.2117 28.9498L22.3099 28.7786L21.572 28.3553L21.4738 28.5265C20.9351 29.4659 20.7941 30.5589 21.0774 31.6054C21.3611 32.6512 22.0347 33.5235 22.974 34.0622L23.1452 34.1604L23.5684 33.4225L23.3972 33.3243C22.6549 32.8986 22.1225 32.2093 21.8983 31.3829Z" fill="#333333"/>
<path d="M18.1251 32.4057C18.0536 32.1405 18.0892 31.8638 18.2259 31.6255L18.5611 31.0411L17.8232 30.6179L17.488 31.2023C17.2385 31.6373 17.1731 32.143 17.3042 32.6281C17.4358 33.1125 17.7477 33.516 18.1827 33.7655L18.7671 34.1007L19.1903 33.3628L18.6059 33.0276C18.3676 32.8909 18.1971 32.67 18.1251 32.4057Z" fill="#333333"/>
</svg>
