<svg width="36" height="31" viewBox="0 0 36 31" fill="none" xmlns="http://www.w3.org/2000/svg">
<path d="M2.6249 5.25C4.13352 2.28468 7.29539 0.248446 12.5499 0.524999C17.4526 0.289436 20.9552 2.05436 22.4749 5.25L24.5749 7.35L23.5249 9.45V18.85L21.4249 19.375H3.1499L1.5749 18.85V9.975L0.524902 6.825L2.6249 5.25Z" fill="#F27A2A"/>
<rect x="3.1499" y="19.375" width="2.625" height="2.1" rx="1.05" fill="#C4C4C4"/>
<rect x="19.325" y="19.375" width="2.625" height="2.1" rx="1.05" fill="#C4C4C4"/>
<rect x="3.55005" y="13" width="18" height="2" rx="1" fill="#FECE3F"/>
<path fill-rule="evenodd" clip-rule="evenodd" d="M25.0243 7.01467C24.7998 6.09706 24.0255 5.34976 23.0979 5.15556C23.051 5.14574 23.0043 5.14298 22.9575 5.14022C22.9278 5.13846 22.898 5.13671 22.8683 5.13314C22.1781 2.14092 18.4975 0 15.3836 0H9.71786C6.60452 0 2.92349 2.14135 2.23302 5.13324C1.74511 5.19509 1.27895 5.38169 0.898294 5.70523C0.327647 6.1907 0 6.89867 0 7.6475C0 8.44461 0.384382 9.19741 1.01975 9.67638V17.9213C1.01975 18.673 1.78916 19.9606 3.08949 19.9606V20.4705C3.08949 21.3139 3.77562 22 4.61913 22C5.46265 22 6.14878 21.3139 6.14878 20.4705V19.9606H18.9528V20.4705C18.9528 21.3139 19.6389 22 20.4824 22C21.326 22 22.0121 21.3139 22.0121 20.4705V19.9606C23.1415 19.9606 24.0493 18.941 24.0818 17.9213V9.67691C24.8969 9.06549 25.2728 8.03188 25.0243 7.01467ZM21.0213 13.5741C21.0213 13.8554 20.7928 14.084 20.5115 14.084H4.5885C4.30721 14.084 4.07865 13.8555 4.07865 13.5741C4.07865 13.2929 4.30717 13.0643 4.5885 13.0643H20.5115C20.7928 13.0643 21.0213 13.2929 21.0213 13.5741ZM5.12865 20.4705C5.12865 20.7518 4.90013 20.9803 4.6188 20.9803C4.33752 20.9803 4.109 20.7518 4.109 20.4705V19.9606H5.12865V20.4705ZM20.991 20.4705C20.991 20.7518 20.7625 20.9803 20.4811 20.9803C20.1999 20.9803 19.9713 20.7518 19.9713 20.4705V19.9606H20.991V20.4705ZM23.3141 8.9634C23.1572 9.0545 23.0606 9.22231 23.0606 9.40403V17.9213C23.0606 18.4834 22.6031 18.941 22.041 18.941H3.059C2.49691 18.941 2.03935 18.4834 2.03935 17.9213V9.40403C2.03935 9.22279 1.94275 9.05502 1.78593 8.9634C1.30595 8.68412 1.01965 8.19219 1.01965 7.6475C1.01965 7.1984 1.21633 6.7732 1.55885 6.48197C1.90638 6.18621 2.35199 6.06475 2.80955 6.13941C4.07865 6.13941 5.07865 6.95244 5.07865 7.75652V12.1386C4.48649 12.3497 3.059 12.9103 3.059 13.5741C3.059 14.4176 3.74507 15.1037 4.5885 15.1037H20.5115C21.3549 15.1037 22.041 14.4176 22.041 13.5741C22.041 12.9103 20.6135 12.3497 20.0213 12.1386V7.6475C20.0213 7.13764 20.8332 6.15337 21.8379 6.13941C22.1166 6.08327 22.5768 6.15066 22.8874 6.15337C23.4391 6.2689 23.8991 6.7125 24.0321 7.25666C24.1998 7.94226 23.918 8.6119 23.3141 8.9634ZM15.3828 1.01965H9.71715C7.1365 1.01965 3.90018 2.75951 3.26257 5.20929C4.5885 5.20929 6.09835 6.56495 6.09835 7.75652V12.0446H19.0016V7.6475C19.0016 6.48197 20.5 5.21211 21.8379 5.21211C21.2009 2.76046 17.9646 1.01965 15.3828 1.01965Z" fill="#333333"/>
<rect x="20.0244" y="19.5356" width="2.86364" height="10.5" rx="1.43182" transform="rotate(17.26 20.0244 19.5356)" fill="#966A5B"/>
<rect width="2.86364" height="10.5" rx="1.43182" transform="matrix(-0.954968 0.296708 0.296708 0.954968 31.0984 19.5356)" fill="#966A5B"/>
<path fill-rule="evenodd" clip-rule="evenodd" d="M22.0016 23.0549C22.0835 22.7912 21.9362 22.511 21.6724 22.4291L18.9812 21.593C18.7174 21.5111 18.4372 21.6584 18.3553 21.9221L16.2936 28.5584C16.2578 28.6737 16.2641 28.7987 16.3164 28.9075C16.6509 29.6036 17.0019 29.9144 17.778 30.2152C18.5255 30.462 18.9786 30.4482 19.7377 29.9663C19.8335 29.9055 19.9027 29.8109 19.9364 29.7026L22.0016 23.0549ZM20.9552 23.2058L19.132 22.6394L17.2912 28.5646C17.5217 28.966 17.7055 29.1024 18.0612 29.3036C18.5836 29.3693 18.7812 29.2925 19.1144 29.131L20.9552 23.2058Z" fill="#333333"/>
<path fill-rule="evenodd" clip-rule="evenodd" d="M28.9989 23.0549C28.917 22.7912 29.0643 22.511 29.328 22.4291L32.0193 21.593C32.283 21.5111 32.5632 21.6584 32.6452 21.9221L34.7069 28.5584C34.7427 28.6737 34.7364 28.7987 34.6841 28.9075C34.3496 29.6036 33.9986 29.9144 33.2225 30.2152C32.475 30.462 32.0219 30.4482 31.2628 29.9663C31.167 29.9055 31.0978 29.8109 31.0641 29.7026L28.9989 23.0549ZM30.0453 23.2058L31.8685 22.6394L33.7092 28.5646C33.4788 28.966 33.295 29.1024 32.9393 29.3036C32.4169 29.3693 32.2193 29.2925 31.8861 29.131L30.0453 23.2058Z" fill="#333333"/>
<rect x="15" y="11.8992" width="20.0455" height="13.3636" rx="1" fill="#966A5B"/>
<path fill-rule="evenodd" clip-rule="evenodd" d="M36 12.8992C36 12.3469 35.5523 11.8992 35 11.8992H16C15.4477 11.8992 15 12.3469 15 12.8992V24.2628C15 24.8151 15.4477 25.2628 16 25.2628H35C35.5523 25.2628 36 24.8151 36 24.2628V12.8992ZM35.0455 13.1853C35.0455 12.9092 34.8216 12.6853 34.5455 12.6853H16.4545C16.1784 12.6853 15.9545 12.9092 15.9545 13.1853V23.9767C15.9545 24.2529 16.1784 24.4767 16.4545 24.4767H34.5455C34.8216 24.4767 35.0455 24.2529 35.0455 23.9767V13.1853Z" fill="#333333"/>
<rect x="18" y="14" width="15" height="9" rx="1" fill="#D88A55"/>
<path fill-rule="evenodd" clip-rule="evenodd" d="M17.8635 14.8083C17.8635 14.256 18.3112 13.8083 18.8635 13.8083H32.1363C32.6885 13.8083 33.1363 14.256 33.1363 14.8083V22.3537C33.1363 22.906 32.6885 23.3537 32.1363 23.3537H18.8635C18.3112 23.3537 17.8635 22.906 17.8635 22.3537V14.8083ZM18.8817 15.1761C18.8817 14.8999 19.1056 14.6761 19.3817 14.6761H31.6181C31.8942 14.6761 32.1181 14.8999 32.1181 15.1761V17.6471C32.1181 17.9233 31.8942 18.1471 31.6181 18.1471H19.3817C19.1056 18.1471 18.8817 17.9233 18.8817 17.6471V15.1761ZM32.1181 19.5149C32.1181 19.2388 31.8942 19.0149 31.6181 19.0149H19.3817C19.1056 19.0149 18.8817 19.2388 18.8817 19.5149V21.986C18.8817 22.2621 19.1056 22.486 19.3817 22.486H31.6181C31.8942 22.486 32.1181 22.2621 32.1181 21.986V19.5149Z" fill="#333333"/>
<circle cx="25.2613" cy="16.4333" r="0.715909" fill="white"/>
<circle cx="25.2613" cy="20.2515" r="0.715909" fill="white"/>
</svg>
