<svg width="35" height="36" viewBox="0 0 35 36" fill="none" xmlns="http://www.w3.org/2000/svg">
<path d="M24.4756 8.81582H24.3776C24.3776 6.06087 23.8957 1.10196 18.6767 1.10196V0.550968H15.1974V1.10196C9.97843 1.10196 9.49654 6.06087 9.49654 8.81582H8.23877V11.0198H25.6354V8.81582H24.4756Z" fill="#E3AC34"/>
<path d="M10.011 11.0198C10.1455 13.2883 11.2625 15.4025 13.0966 16.8603C13.2125 16.9534 13.3349 17.0383 13.4573 17.1215V21.4886L16.9366 25.3456L20.4159 21.4886V17.1226C20.5383 17.0394 20.6594 16.9573 20.7766 16.8614C22.6121 15.4038 23.7307 13.2892 23.8668 11.0198H10.011Z" fill="#FCE8CA"/>
<path d="M27.2782 32.5084V24.7946C27.4681 23.6325 26.932 22.918 24.4754 21.4886H20.4161L16.9368 25.3456L14.7138 21.6721L9.88144 21.9294L7.46518 22.4988C7.24954 22.5672 7.0958 22.7491 7.07202 22.9639L8.43184 28.0087L27.2782 32.5084Z" fill="#966A5B"/>
<path fill-rule="evenodd" clip-rule="evenodd" d="M6.9819 35.3553C9.0476 35.3553 11.4177 33.7766 12.2975 32.1412C12.5237 31.7209 23.8953 32.1412 23.8953 32.1412C25.0745 36.0522 33.4516 36.3986 34.0434 32.1412C34.9885 31.7904 30.8542 32.6562 29.2109 32.1412C27.9819 31.756 29.2109 29.9398 29.2109 29.8454C29.2109 29.775 29.6942 28.0087 29.6942 28.0087C29.6942 28.0087 34.8088 27.8544 34.0434 27.5496C33.0324 23.5327 24.4486 24.12 23.8953 27.7383C23.8953 27.7383 12.0096 27.9533 11.8143 27.5496C10.9738 25.8122 9.12614 24.7946 6.9819 24.7946C4.04615 24.7946 1.66626 27.0559 1.66626 29.8454C1.66626 32.6349 4.04615 35.3553 6.9819 35.3553ZM6.9819 32.1412C8.31633 32.1412 9.3981 31.1133 9.3981 29.8454C9.3981 28.5775 8.31633 27.5496 6.9819 27.5496C5.64747 27.5496 4.5657 28.5775 4.5657 29.8454C4.5657 31.1133 5.64747 32.1412 6.9819 32.1412Z" fill="#DADADA"/>
<path d="M9.68725 28.1661L7.27102 26.7886C7.11789 26.7012 6.92641 26.7012 6.77328 26.7886L4.35705 28.1661C4.21358 28.248 4.12491 28.3946 4.12267 28.5537L4.08256 31.4616C4.08009 31.6344 4.18 31.794 4.3411 31.8744L6.79792 33.099C6.94725 33.1732 7.12653 33.1682 7.27102 33.0856L9.68725 31.7081C9.83265 31.6251 9.92156 31.4758 9.92162 31.3146V28.5596C9.92162 28.3985 9.83265 28.2491 9.68725 28.1661ZM8.95513 31.0547L7.0062 32.1659L5.05244 31.192L5.08578 28.8218L7.02215 27.7175L8.95513 28.8195V31.0547Z" fill="#333333"/>
<path d="M23.8905 29.3875H12.293V30.4895H23.8905V29.3875Z" fill="#333333"/>
<path fill-rule="evenodd" clip-rule="evenodd" d="M34.6519 31.6375C34.5788 31.6072 34.5 31.5915 34.4202 31.5914H29.6891V28.2856H34.4202C34.7405 28.2854 35 28.0386 34.9998 27.7343C34.9998 27.6586 34.9833 27.5836 34.9514 27.5142C33.557 24.4556 29.817 23.0502 26.598 24.3751C25.6783 24.8068 25.1968 25.0937 24.4702 25.7869C24.0563 26.2035 23.7066 26.6738 23.4316 27.1836H18.6714H17.5117H12.7515C12.5344 26.8168 11.8538 25.6747 10.5532 24.8695C7.60394 23.0438 3.6555 23.8355 1.73401 26.6377C-0.187406 29.44 0.645801 33.1917 3.59497 35.0174C4.63005 35.6582 5.83865 35.9993 7.07393 35.9993C9.46968 35.9978 11.6626 34.721 12.7515 32.6934H23.4316C25.03 35.6729 28.8678 36.857 32.0036 35.3382C33.3194 34.701 34.3614 33.6492 34.9514 32.3628C35.0796 32.084 34.9455 31.7592 34.6519 31.6375ZM24.3293 31.922C24.7286 32.7933 25.3833 33.5372 26.2154 34.0646C28.6101 35.5827 31.8466 34.9688 33.4443 32.6934H29.1092C28.7889 32.6934 28.5293 32.4467 28.5293 32.1424V27.7346C28.5293 27.4303 28.7889 27.1836 29.1092 27.1836H33.4443C32.8892 26.393 32.1064 25.7709 31.1894 25.3915C28.55 24.2994 25.4787 25.4471 24.3293 27.955C24.2371 28.1557 24.0285 28.2854 23.7981 28.2856H12.385C12.1545 28.2854 11.946 28.1557 11.8538 27.955C11.0243 26.1489 9.14785 24.9809 7.07393 24.9797C4.99762 24.9785 3.11803 26.1468 2.2875 27.955C1.13456 30.465 2.34143 33.3878 4.98312 34.4833C7.62481 35.5788 10.7009 34.4321 11.8538 31.922C11.946 31.7213 12.1545 31.5916 12.385 31.5914H23.7981C24.0286 31.5916 24.2371 31.7213 24.3293 31.922Z" fill="#333333"/>
<path fill-rule="evenodd" clip-rule="evenodd" d="M17.6131 25.3755L20.6957 24.3991C20.9326 24.3241 21.0924 24.1135 21.0924 23.8762V22.2233H23.9917C25.5922 22.2251 26.8892 23.4575 26.8911 24.9782H28.0509C28.0483 22.8491 26.2325 21.1238 23.9917 21.1213H19.8366H14.0377H10.0747C7.83404 21.1238 6.01816 22.8491 6.01562 24.9782H7.17537C7.17726 23.4575 8.47429 22.2251 10.0747 22.2233H12.9741V23.8762C12.9741 24.1135 13.1339 24.3241 13.3708 24.3991L16.4534 25.3755V28.1923H17.6131V25.3755ZM18.4534 23.9479L19.9326 23.479V22.2233H19.663L18.4534 23.9479ZM14.1339 22.2233V23.479L15.6131 23.9479L14.4035 22.2233H14.1339ZM18.2695 22.2233H15.797L17.0332 23.9864L18.2695 22.2233Z" fill="#333333"/>
<path fill-rule="evenodd" clip-rule="evenodd" d="M20.9964 21.1213V18.3131C21.0168 18.2979 21.0376 18.2834 21.0584 18.2689C21.0888 18.2477 21.1192 18.2265 21.1489 18.2029C22.9545 16.7596 24.1122 13.7976 24.3858 11.5708H25.6354C25.9557 11.5708 26.2153 11.3241 26.2153 11.0198V8.81585C26.2153 8.51156 25.9557 8.26486 25.6354 8.26486H24.946C24.7998 4.75505 23.2359 0.926766 19.2567 0.584601V0.55099C19.2567 0.246706 18.997 0 18.6768 0H15.1975C14.8772 0 14.6176 0.246706 14.6176 0.55099V0.584601C10.6384 0.926766 9.07446 4.75505 8.92833 8.26486H8.23884C7.9186 8.26486 7.65895 8.51156 7.65895 8.81585V11.0198C7.65895 11.3241 7.9186 11.5708 8.23884 11.5708H9.49314C9.76496 13.7973 10.9211 16.7596 12.7254 18.2034C12.7531 18.2251 12.7814 18.245 12.8098 18.2648C12.8326 18.2807 12.8555 18.2967 12.8779 18.3136V21.1213H14.0377V19.0073C14.9395 19.4303 15.9315 19.6509 16.9371 19.652C17.9429 19.6507 18.9349 19.4299 19.8366 19.0068V21.1213H20.9964ZM23.2208 11.5708H10.6581C10.9239 13.4693 11.9261 16.1234 13.4683 17.3566C15.4774 18.9484 18.3969 18.9484 20.406 17.3566C21.9494 16.1237 22.9531 13.4697 23.2208 11.5708ZM10.0945 8.26486C10.1919 6.59756 10.8095 2.10423 14.6176 1.68768V6.61189H15.7774V1.10198H18.0969V6.61189H19.2567V1.68768C23.0648 2.10423 23.6824 6.59756 23.7798 8.26486H13.4578H10.0945ZM25.0556 9.36684H13.4578H8.81873V10.4688H25.0556V9.36684Z" fill="#333333"/>
</svg>
