<svg width="50" height="49" viewBox="0 0 50 49" fill="none" xmlns="http://www.w3.org/2000/svg">
<path d="M40.8474 42.1667L41.4863 21.0833L37.0141 16.6111L31.903 11.5H13.3752L14.0141 42.1667H40.8474Z" fill="#DC163E"/>
<path d="M37.0138 14.0555C37.0138 12.997 36.1557 12.1389 35.0972 12.1389C34.0386 12.1389 33.1805 12.997 33.1805 14.0555V17.8889C33.1805 18.9474 34.0386 19.8055 35.0972 19.8055C36.1557 19.8055 37.0138 18.9474 37.0138 17.8889V14.0555Z" fill="#EC657F"/>
<path d="M37.0138 14.0555C37.0138 12.997 36.1557 12.1389 35.0972 12.1389C34.0386 12.1389 33.1805 12.997 33.1805 14.0555V17.8889C33.1805 18.9474 34.0386 19.8055 35.0972 19.8055C36.1557 19.8055 37.0138 18.9474 37.0138 17.8889V14.0555Z" fill="#EC657F"/>
<path d="M37.0138 29.3889C37.0138 28.3303 36.1557 27.4722 35.0972 27.4722C34.0386 27.4722 33.1805 28.3303 33.1805 29.3889V33.2222C33.1805 34.2808 34.0386 35.1389 35.0972 35.1389C36.1557 35.1389 37.0138 34.2808 37.0138 33.2222V29.3889Z" fill="#EC657F"/>
<path d="M29.3472 14.0555C29.3472 12.997 28.489 12.1389 27.4305 12.1389C26.372 12.1389 25.5138 12.997 25.5138 14.0555V17.8889C25.5138 18.9474 26.372 19.8055 27.4305 19.8055C28.489 19.8055 29.3472 18.9474 29.3472 17.8889V14.0555Z" fill="#EC657F"/>
<path d="M29.3472 14.0555C29.3472 12.997 28.489 12.1389 27.4305 12.1389C26.372 12.1389 25.5138 12.997 25.5138 14.0555V17.8889C25.5138 18.9474 26.372 19.8055 27.4305 19.8055C28.489 19.8055 29.3472 18.9474 29.3472 17.8889V14.0555Z" fill="#EC657F"/>
<path d="M29.3472 29.3889C29.3472 28.3303 28.489 27.4722 27.4305 27.4722C26.372 27.4722 25.5138 28.3303 25.5138 29.3889L25.5138 33.2222C25.5138 34.2808 26.372 35.1389 27.4305 35.1389C28.489 35.1389 29.3472 34.2808 29.3472 33.2222V29.3889Z" fill="#EC657F"/>
<path d="M21.6805 14.0555C21.6805 12.997 20.8224 12.1389 19.7638 12.1389C18.7053 12.1389 17.8472 12.997 17.8472 14.0555V17.8889C17.8472 18.9474 18.7053 19.8055 19.7638 19.8055C20.8224 19.8055 21.6805 18.9474 21.6805 17.8889V14.0555Z" fill="#EC657F"/>
<path d="M21.6805 14.0555C21.6805 12.997 20.8224 12.1389 19.7638 12.1389C18.7053 12.1389 17.8472 12.997 17.8472 14.0555V17.8889C17.8472 18.9474 18.7053 19.8055 19.7638 19.8055C20.8224 19.8055 21.6805 18.9474 21.6805 17.8889V14.0555Z" fill="#EC657F"/>
<path d="M21.6805 29.3889C21.6805 28.3303 20.8224 27.4722 19.7638 27.4722C18.7053 27.4722 17.8472 28.3303 17.8472 29.3889L17.8472 33.2222C17.8472 34.2808 18.7053 35.1389 19.7638 35.1389C20.8224 35.1389 21.6805 34.2808 21.6805 33.2222L21.6805 29.3889Z" fill="#EC657F"/>
<path d="M40.8472 40.8889C40.8472 39.8303 39.989 38.9722 38.9305 38.9722C37.872 38.9722 37.0138 39.8303 37.0138 40.8889C37.0138 41.9474 37.872 42.8055 38.9305 42.8055C39.989 42.8055 40.8472 41.9474 40.8472 40.8889Z" fill="#EC657F"/>
<path d="M40.8472 40.8889C40.8472 39.8303 39.989 38.9722 38.9305 38.9722C37.872 38.9722 37.0138 39.8303 37.0138 40.8889C37.0138 41.9474 37.872 42.8055 38.9305 42.8055C39.989 42.8055 40.8472 41.9474 40.8472 40.8889Z" fill="#EC657F"/>
<path d="M40.8472 25.5555C40.8472 24.497 39.989 23.6389 38.9305 23.6389C37.872 23.6389 37.0138 24.497 37.0138 25.5555V29.3889C37.0138 30.4474 37.872 31.3055 38.9305 31.3055C39.989 31.3055 40.8472 30.4474 40.8472 29.3889V25.5555Z" fill="#EC657F"/>
<path d="M33.1805 12.7778C33.1805 11.7192 32.3224 10.8611 31.2638 10.8611C30.2053 10.8611 29.3472 11.7192 29.3472 12.7778V14.0555C29.3472 15.1141 30.2053 15.9722 31.2638 15.9722C32.3224 15.9722 33.1805 15.1141 33.1805 14.0555V12.7778Z" fill="#EC657F"/>
<path d="M33.1805 40.8889C33.1805 39.8303 32.3224 38.9722 31.2638 38.9722C30.2053 38.9722 29.3472 39.8303 29.3472 40.8889C29.3472 41.9474 30.2053 42.8055 31.2638 42.8055C32.3224 42.8055 33.1805 41.9474 33.1805 40.8889Z" fill="#EC657F"/>
<path d="M33.1805 12.7778C33.1805 11.7192 32.3224 10.8611 31.2638 10.8611C30.2053 10.8611 29.3472 11.7192 29.3472 12.7778V14.0555C29.3472 15.1141 30.2053 15.9722 31.2638 15.9722C32.3224 15.9722 33.1805 15.1141 33.1805 14.0555V12.7778Z" fill="#EC657F"/>
<path d="M33.1805 40.8889C33.1805 39.8303 32.3224 38.9722 31.2638 38.9722C30.2053 38.9722 29.3472 39.8303 29.3472 40.8889C29.3472 41.9474 30.2053 42.8055 31.2638 42.8055C32.3224 42.8055 33.1805 41.9474 33.1805 40.8889Z" fill="#EC657F"/>
<path d="M33.1805 25.5555C33.1805 24.497 32.3224 23.6389 31.2638 23.6389C30.2053 23.6389 29.3472 24.497 29.3472 25.5555V29.3889C29.3472 30.4474 30.2053 31.3055 31.2638 31.3055C32.3224 31.3055 33.1805 30.4474 33.1805 29.3889V25.5555Z" fill="#EC657F"/>
<path d="M25.5138 12.7778C25.5138 11.7192 24.6557 10.8611 23.5972 10.8611C22.5386 10.8611 21.6805 11.7192 21.6805 12.7778V14.0555C21.6805 15.1141 22.5386 15.9722 23.5972 15.9722C24.6557 15.9722 25.5138 15.1141 25.5138 14.0555V12.7778Z" fill="#EC657F"/>
<path d="M25.5138 40.8889C25.5138 39.8303 24.6557 38.9722 23.5972 38.9722C22.5386 38.9722 21.6805 39.8303 21.6805 40.8889C21.6805 41.9474 22.5386 42.8055 23.5972 42.8055C24.6557 42.8055 25.5138 41.9474 25.5138 40.8889Z" fill="#EC657F"/>
<path d="M25.5138 12.7778C25.5138 11.7192 24.6557 10.8611 23.5972 10.8611C22.5386 10.8611 21.6805 11.7192 21.6805 12.7778V14.0555C21.6805 15.1141 22.5386 15.9722 23.5972 15.9722C24.6557 15.9722 25.5138 15.1141 25.5138 14.0555V12.7778Z" fill="#EC657F"/>
<path d="M25.5138 40.8889C25.5138 39.8303 24.6557 38.9722 23.5972 38.9722C22.5386 38.9722 21.6805 39.8303 21.6805 40.8889C21.6805 41.9474 22.5386 42.8055 23.5972 42.8055C24.6557 42.8055 25.5138 41.9474 25.5138 40.8889Z" fill="#EC657F"/>
<path d="M25.5138 25.5555C25.5138 24.497 24.6557 23.6389 23.5972 23.6389C22.5386 23.6389 21.6805 24.497 21.6805 25.5555V29.3889C21.6805 30.4474 22.5386 31.3055 23.5972 31.3055C24.6557 31.3055 25.5138 30.4474 25.5138 29.3889V25.5555Z" fill="#EC657F"/>
<path d="M17.8472 12.7778C17.8472 11.7192 16.989 10.8611 15.9305 10.8611C14.872 10.8611 14.0138 11.7192 14.0138 12.7778V14.0555C14.0138 15.1141 14.872 15.9722 15.9305 15.9722C16.989 15.9722 17.8472 15.1141 17.8472 14.0555V12.7778Z" fill="#EC657F"/>
<path d="M17.8472 40.8889C17.8472 39.8303 16.989 38.9722 15.9305 38.9722C14.872 38.9722 14.0138 39.8303 14.0138 40.8889C14.0138 41.9474 14.872 42.8055 15.9305 42.8055C16.989 42.8055 17.8472 41.9474 17.8472 40.8889Z" fill="#EC657F"/>
<path d="M17.8472 12.7778C17.8472 11.7192 16.989 10.8611 15.9305 10.8611C14.872 10.8611 14.0138 11.7192 14.0138 12.7778V14.0555C14.0138 15.1141 14.872 15.9722 15.9305 15.9722C16.989 15.9722 17.8472 15.1141 17.8472 14.0555V12.7778Z" fill="#EC657F"/>
<path d="M17.8472 40.8889C17.8472 39.8303 16.989 38.9722 15.9305 38.9722C14.872 38.9722 14.0138 39.8303 14.0138 40.8889C14.0138 41.9474 14.872 42.8055 15.9305 42.8055C16.989 42.8055 17.8472 41.9474 17.8472 40.8889Z" fill="#EC657F"/>
<path d="M17.8472 25.5555C17.8472 24.497 16.989 23.6389 15.9305 23.6389C14.872 23.6389 14.0138 24.497 14.0138 25.5555V29.3889C14.0138 30.4474 14.872 31.3055 15.9305 31.3055C16.989 31.3055 17.8472 30.4474 17.8472 29.3889V25.5555Z" fill="#EC657F"/>
<path d="M40.8472 21.7222C40.8472 22.7808 39.989 23.6389 38.9305 23.6389C37.872 23.6389 37.0138 22.7808 37.0138 21.7222L37.0138 17.8889C37.0138 16.8303 37.872 15.9722 38.9305 15.9722C39.989 15.9722 40.8472 16.8303 40.8472 17.8889V21.7222Z" fill="#EC657F"/>
<path d="M33.1805 21.7222C33.1805 22.7808 32.3224 23.6389 31.2638 23.6389C30.2053 23.6389 29.3472 22.7808 29.3472 21.7222L29.3472 17.8889C29.3472 16.8303 30.2053 15.9722 31.2638 15.9722C32.3224 15.9722 33.1805 16.8303 33.1805 17.8889L33.1805 21.7222Z" fill="#EC657F"/>
<path d="M25.5138 21.7222C25.5138 22.7808 24.6557 23.6389 23.5972 23.6389C22.5386 23.6389 21.6805 22.7808 21.6805 21.7222V17.8889C21.6805 16.8303 22.5386 15.9722 23.5972 15.9722C24.6557 15.9722 25.5138 16.8303 25.5138 17.8889V21.7222Z" fill="#EC657F"/>
<path d="M17.8472 21.7222C17.8472 22.7808 16.989 23.6389 15.9305 23.6389C14.872 23.6389 14.0138 22.7808 14.0138 21.7222V17.8889C14.0138 16.8303 14.872 15.9722 15.9305 15.9722C16.989 15.9722 17.8472 16.8303 17.8472 17.8889V21.7222Z" fill="#EC657F"/>
<path d="M37.0138 25.5555C37.0138 26.6141 36.1557 27.4722 35.0972 27.4722C34.0386 27.4722 33.1805 26.6141 33.1805 25.5555V21.7222C33.1805 20.6637 34.0386 19.8055 35.0972 19.8055C36.1557 19.8055 37.0138 20.6637 37.0138 21.7222V25.5555Z" fill="#EC657F"/>
<path d="M29.3472 25.5555C29.3472 26.6141 28.489 27.4722 27.4305 27.4722C26.372 27.4722 25.5138 26.6141 25.5138 25.5555V21.7222C25.5138 20.6637 26.372 19.8055 27.4305 19.8055C28.489 19.8055 29.3472 20.6637 29.3472 21.7222V25.5555Z" fill="#EC657F"/>
<path d="M21.6805 25.5555C21.6805 26.6141 20.8224 27.4722 19.7638 27.4722C18.7053 27.4722 17.8472 26.6141 17.8472 25.5555V21.7222C17.8472 20.6637 18.7053 19.8055 19.7638 19.8055C20.8224 19.8055 21.6805 20.6637 21.6805 21.7222V25.5555Z" fill="#EC657F"/>
<path d="M40.8472 21.7222C40.8472 22.7808 39.989 23.6389 38.9305 23.6389C37.872 23.6389 37.0138 22.7808 37.0138 21.7222L37.0138 17.8889C37.0138 16.8303 37.872 15.9722 38.9305 15.9722C39.989 15.9722 40.8472 16.8303 40.8472 17.8889V21.7222Z" fill="#EC657F"/>
<path d="M33.1805 21.7222C33.1805 22.7808 32.3224 23.6389 31.2638 23.6389C30.2053 23.6389 29.3472 22.7808 29.3472 21.7222L29.3472 17.8889C29.3472 16.8303 30.2053 15.9722 31.2638 15.9722C32.3224 15.9722 33.1805 16.8303 33.1805 17.8889L33.1805 21.7222Z" fill="#EC657F"/>
<path d="M25.5138 21.7222C25.5138 22.7808 24.6557 23.6389 23.5972 23.6389C22.5386 23.6389 21.6805 22.7808 21.6805 21.7222V17.8889C21.6805 16.8303 22.5386 15.9722 23.5972 15.9722C24.6557 15.9722 25.5138 16.8303 25.5138 17.8889V21.7222Z" fill="#EC657F"/>
<path d="M17.8472 21.7222C17.8472 22.7808 16.989 23.6389 15.9305 23.6389C14.872 23.6389 14.0138 22.7808 14.0138 21.7222V17.8889C14.0138 16.8303 14.872 15.9722 15.9305 15.9722C16.989 15.9722 17.8472 16.8303 17.8472 17.8889V21.7222Z" fill="#EC657F"/>
<path d="M37.0138 25.5555C37.0138 26.6141 36.1557 27.4722 35.0972 27.4722C34.0386 27.4722 33.1805 26.6141 33.1805 25.5555V21.7222C33.1805 20.6637 34.0386 19.8055 35.0972 19.8055C36.1557 19.8055 37.0138 20.6637 37.0138 21.7222V25.5555Z" fill="#EC657F"/>
<path d="M29.3472 25.5555C29.3472 26.6141 28.489 27.4722 27.4305 27.4722C26.372 27.4722 25.5138 26.6141 25.5138 25.5555V21.7222C25.5138 20.6637 26.372 19.8055 27.4305 19.8055C28.489 19.8055 29.3472 20.6637 29.3472 21.7222V25.5555Z" fill="#EC657F"/>
<path d="M21.6805 25.5555C21.6805 26.6141 20.8224 27.4722 19.7638 27.4722C18.7053 27.4722 17.8472 26.6141 17.8472 25.5555V21.7222C17.8472 20.6637 18.7053 19.8055 19.7638 19.8055C20.8224 19.8055 21.6805 20.6637 21.6805 21.7222V25.5555Z" fill="#EC657F"/>
<path d="M40.8472 37.0555C40.8472 38.1141 39.989 38.9722 38.9305 38.9722C37.872 38.9722 37.0138 38.1141 37.0138 37.0555L37.0138 33.2222C37.0138 32.1637 37.872 31.3055 38.9305 31.3055C39.989 31.3055 40.8472 32.1637 40.8472 33.2222L40.8472 37.0555Z" fill="#EC657F"/>
<path d="M33.1805 37.0555C33.1805 38.1141 32.3224 38.9722 31.2638 38.9722C30.2053 38.9722 29.3472 38.1141 29.3472 37.0555L29.3472 33.2222C29.3472 32.1637 30.2053 31.3055 31.2638 31.3055C32.3224 31.3055 33.1805 32.1637 33.1805 33.2222L33.1805 37.0555Z" fill="#EC657F"/>
<path d="M25.5138 37.0555C25.5138 38.1141 24.6557 38.9722 23.5972 38.9722C22.5386 38.9722 21.6805 38.1141 21.6805 37.0555L21.6805 33.2222C21.6805 32.1637 22.5386 31.3055 23.5972 31.3055C24.6557 31.3055 25.5138 32.1637 25.5138 33.2222L25.5138 37.0555Z" fill="#EC657F"/>
<path d="M17.8472 37.0555C17.8472 38.1141 16.989 38.9722 15.9305 38.9722C14.872 38.9722 14.0138 38.1141 14.0138 37.0555L14.0138 33.2222C14.0138 32.1637 14.872 31.3055 15.9305 31.3055C16.989 31.3055 17.8472 32.1637 17.8472 33.2222L17.8472 37.0555Z" fill="#EC657F"/>
<path d="M37.0138 40.8889C37.0138 41.9474 36.1557 42.8055 35.0972 42.8055C34.0386 42.8055 33.1805 41.9474 33.1805 40.8889L33.1805 37.0555C33.1805 35.997 34.0386 35.1389 35.0972 35.1389C36.1557 35.1389 37.0138 35.997 37.0138 37.0555L37.0138 40.8889Z" fill="#EC657F"/>
<path d="M29.3472 40.8889C29.3472 41.9474 28.489 42.8055 27.4305 42.8055C26.372 42.8055 25.5138 41.9474 25.5138 40.8889L25.5138 37.0555C25.5138 35.997 26.372 35.1389 27.4305 35.1389C28.489 35.1389 29.3472 35.997 29.3472 37.0555L29.3472 40.8889Z" fill="#EC657F"/>
<path d="M21.6805 40.8889C21.6805 41.9474 20.8224 42.8055 19.7638 42.8055C18.7053 42.8055 17.8472 41.9474 17.8472 40.8889L17.8472 37.0555C17.8472 35.997 18.7053 35.1389 19.7638 35.1389C20.8224 35.1389 21.6805 35.997 21.6805 37.0555L21.6805 40.8889Z" fill="#EC657F"/>
<path d="M29.3472 14.0555C29.3472 12.997 28.489 12.1389 27.4305 12.1389C26.372 12.1389 25.5138 12.997 25.5138 14.0555V17.8889C25.5138 18.9474 26.372 19.8055 27.4305 19.8055C28.489 19.8055 29.3472 18.9474 29.3472 17.8889V14.0555Z" fill="#EC657F"/>
<path d="M33.1805 12.7778C33.1805 11.7192 32.3224 10.8611 31.2638 10.8611C30.2053 10.8611 29.3472 11.7192 29.3472 12.7778V14.0555C29.3472 15.1141 30.2053 15.9722 31.2638 15.9722C32.3224 15.9722 33.1805 15.1141 33.1805 14.0555V12.7778Z" fill="#EC657F"/>
<path d="M33.1805 40.8889C33.1805 39.8303 32.3224 38.9722 31.2638 38.9722C30.2053 38.9722 29.3472 39.8303 29.3472 40.8889C29.3472 41.9474 30.2053 42.8055 31.2638 42.8055C32.3224 42.8055 33.1805 41.9474 33.1805 40.8889Z" fill="#EC657F"/>
<path d="M17.8472 12.7778C17.8472 11.7192 16.989 10.8611 15.9305 10.8611C14.872 10.8611 14.0138 11.7192 14.0138 12.7778V14.0555C14.0138 15.1141 14.872 15.9722 15.9305 15.9722C16.989 15.9722 17.8472 15.1141 17.8472 14.0555V12.7778Z" fill="#EC657F"/>
<path d="M40.8472 21.7222C40.8472 22.7808 39.989 23.6389 38.9305 23.6389C37.872 23.6389 37.0138 22.7808 37.0138 21.7222L37.0138 17.8889C37.0138 16.8303 37.872 15.9722 38.9305 15.9722C39.989 15.9722 40.8472 16.8303 40.8472 17.8889V21.7222Z" fill="#EC657F"/>
<path d="M25.5138 21.7222C25.5138 22.7808 24.6557 23.6389 23.5972 23.6389C22.5386 23.6389 21.6805 22.7808 21.6805 21.7222V17.8889C21.6805 16.8303 22.5386 15.9722 23.5972 15.9722C24.6557 15.9722 25.5138 16.8303 25.5138 17.8889V21.7222Z" fill="#EC657F"/>
<path d="M37.0138 25.5555C37.0138 26.6141 36.1557 27.4722 35.0972 27.4722C34.0386 27.4722 33.1805 26.6141 33.1805 25.5555V21.7222C33.1805 20.6637 34.0386 19.8055 35.0972 19.8055C36.1557 19.8055 37.0138 20.6637 37.0138 21.7222V25.5555Z" fill="#EC657F"/>
<path d="M21.6805 25.5555C21.6805 26.6141 20.8224 27.4722 19.7638 27.4722C18.7053 27.4722 17.8472 26.6141 17.8472 25.5555V21.7222C17.8472 20.6637 18.7053 19.8055 19.7638 19.8055C20.8224 19.8055 21.6805 20.6637 21.6805 21.7222V25.5555Z" fill="#EC657F"/>
<path d="M29.3472 14.0555C29.3472 12.997 28.489 12.1389 27.4305 12.1389C26.372 12.1389 25.5138 12.997 25.5138 14.0555V17.8889C25.5138 18.9474 26.372 19.8055 27.4305 19.8055C28.489 19.8055 29.3472 18.9474 29.3472 17.8889V14.0555Z" fill="#FDB6C3"/>
<path d="M29.3472 14.0555C29.3472 12.997 28.489 12.1389 27.4305 12.1389C26.372 12.1389 25.5138 12.997 25.5138 14.0555V17.8889C25.5138 18.9474 26.372 19.8055 27.4305 19.8055C28.489 19.8055 29.3472 18.9474 29.3472 17.8889V14.0555Z" fill="#FDB6C3"/>
<path d="M29.3472 29.3889C29.3472 28.3303 28.489 27.4722 27.4305 27.4722C26.372 27.4722 25.5138 28.3303 25.5138 29.3889L25.5138 33.2222C25.5138 34.2808 26.372 35.1389 27.4305 35.1389C28.489 35.1389 29.3472 34.2808 29.3472 33.2222V29.3889Z" fill="#FDB6C3"/>
<path d="M33.1805 12.7778C33.1805 11.7192 32.3224 10.8611 31.2638 10.8611C30.2053 10.8611 29.3472 11.7192 29.3472 12.7778V14.0555C29.3472 15.1141 30.2053 15.9722 31.2638 15.9722C32.3224 15.9722 33.1805 15.1141 33.1805 14.0555V12.7778Z" fill="#FDB6C3"/>
<path d="M33.1805 40.8889C33.1805 39.8303 32.3224 38.9722 31.2638 38.9722C30.2053 38.9722 29.3472 39.8303 29.3472 40.8889C29.3472 41.9474 30.2053 42.8055 31.2638 42.8055C32.3224 42.8055 33.1805 41.9474 33.1805 40.8889Z" fill="#FDB6C3"/>
<path d="M33.1805 12.7778C33.1805 11.7192 32.3224 10.8611 31.2638 10.8611C30.2053 10.8611 29.3472 11.7192 29.3472 12.7778V14.0555C29.3472 15.1141 30.2053 15.9722 31.2638 15.9722C32.3224 15.9722 33.1805 15.1141 33.1805 14.0555V12.7778Z" fill="#FDB6C3"/>
<path d="M33.1805 40.8889C33.1805 39.8303 32.3224 38.9722 31.2638 38.9722C30.2053 38.9722 29.3472 39.8303 29.3472 40.8889C29.3472 41.9474 30.2053 42.8055 31.2638 42.8055C32.3224 42.8055 33.1805 41.9474 33.1805 40.8889Z" fill="#FDB6C3"/>
<path d="M33.1805 25.5555C33.1805 24.497 32.3224 23.6389 31.2638 23.6389C30.2053 23.6389 29.3472 24.497 29.3472 25.5555V29.3889C29.3472 30.4474 30.2053 31.3055 31.2638 31.3055C32.3224 31.3055 33.1805 30.4474 33.1805 29.3889V25.5555Z" fill="#FDB6C3"/>
<path d="M17.8472 12.7778C17.8472 11.7192 16.989 10.8611 15.9305 10.8611C14.872 10.8611 14.0138 11.7192 14.0138 12.7778V14.0555C14.0138 15.1141 14.872 15.9722 15.9305 15.9722C16.989 15.9722 17.8472 15.1141 17.8472 14.0555V12.7778Z" fill="#FDB6C3"/>
<path d="M17.8472 12.7778C17.8472 11.7192 16.989 10.8611 15.9305 10.8611C14.872 10.8611 14.0138 11.7192 14.0138 12.7778V14.0555C14.0138 15.1141 14.872 15.9722 15.9305 15.9722C16.989 15.9722 17.8472 15.1141 17.8472 14.0555V12.7778Z" fill="#FDB6C3"/>
<path d="M17.8472 25.5555C17.8472 24.497 16.989 23.6389 15.9305 23.6389C14.872 23.6389 14.0138 24.497 14.0138 25.5555V29.3889C14.0138 30.4474 14.872 31.3055 15.9305 31.3055C16.989 31.3055 17.8472 30.4474 17.8472 29.3889V25.5555Z" fill="#FDB6C3"/>
<path d="M40.8472 21.7222C40.8472 22.7808 39.989 23.6389 38.9305 23.6389C37.872 23.6389 37.0138 22.7808 37.0138 21.7222L37.0138 17.8889C37.0138 16.8303 37.872 15.9722 38.9305 15.9722C39.989 15.9722 40.8472 16.8303 40.8472 17.8889V21.7222Z" fill="#FDB6C3"/>
<path d="M25.5138 21.7222C25.5138 22.7808 24.6557 23.6389 23.5972 23.6389C22.5386 23.6389 21.6805 22.7808 21.6805 21.7222V17.8889C21.6805 16.8303 22.5386 15.9722 23.5972 15.9722C24.6557 15.9722 25.5138 16.8303 25.5138 17.8889V21.7222Z" fill="#FDB6C3"/>
<path d="M37.0138 25.5555C37.0138 26.6141 36.1557 27.4722 35.0972 27.4722C34.0386 27.4722 33.1805 26.6141 33.1805 25.5555V21.7222C33.1805 20.6637 34.0386 19.8055 35.0972 19.8055C36.1557 19.8055 37.0138 20.6637 37.0138 21.7222V25.5555Z" fill="#FDB6C3"/>
<path d="M21.6805 25.5555C21.6805 26.6141 20.8224 27.4722 19.7638 27.4722C18.7053 27.4722 17.8472 26.6141 17.8472 25.5555V21.7222C17.8472 20.6637 18.7053 19.8055 19.7638 19.8055C20.8224 19.8055 21.6805 20.6637 21.6805 21.7222V25.5555Z" fill="#FDB6C3"/>
<path d="M40.8472 21.7222C40.8472 22.7808 39.989 23.6389 38.9305 23.6389C37.872 23.6389 37.0138 22.7808 37.0138 21.7222L37.0138 17.8889C37.0138 16.8303 37.872 15.9722 38.9305 15.9722C39.989 15.9722 40.8472 16.8303 40.8472 17.8889V21.7222Z" fill="#FDB6C3"/>
<path d="M25.5138 21.7222C25.5138 22.7808 24.6557 23.6389 23.5972 23.6389C22.5386 23.6389 21.6805 22.7808 21.6805 21.7222V17.8889C21.6805 16.8303 22.5386 15.9722 23.5972 15.9722C24.6557 15.9722 25.5138 16.8303 25.5138 17.8889V21.7222Z" fill="#FDB6C3"/>
<path d="M37.0138 25.5555C37.0138 26.6141 36.1557 27.4722 35.0972 27.4722C34.0386 27.4722 33.1805 26.6141 33.1805 25.5555V21.7222C33.1805 20.6637 34.0386 19.8055 35.0972 19.8055C36.1557 19.8055 37.0138 20.6637 37.0138 21.7222V25.5555Z" fill="#FDB6C3"/>
<path d="M21.6805 25.5555C21.6805 26.6141 20.8224 27.4722 19.7638 27.4722C18.7053 27.4722 17.8472 26.6141 17.8472 25.5555V21.7222C17.8472 20.6637 18.7053 19.8055 19.7638 19.8055C20.8224 19.8055 21.6805 20.6637 21.6805 21.7222V25.5555Z" fill="#FDB6C3"/>
<path d="M40.8472 37.0555C40.8472 38.1141 39.989 38.9722 38.9305 38.9722C37.872 38.9722 37.0138 38.1141 37.0138 37.0555L37.0138 33.2222C37.0138 32.1637 37.872 31.3055 38.9305 31.3055C39.989 31.3055 40.8472 32.1637 40.8472 33.2222L40.8472 37.0555Z" fill="#FDB6C3"/>
<path d="M25.5138 37.0555C25.5138 38.1141 24.6557 38.9722 23.5972 38.9722C22.5386 38.9722 21.6805 38.1141 21.6805 37.0555L21.6805 33.2222C21.6805 32.1637 22.5386 31.3055 23.5972 31.3055C24.6557 31.3055 25.5138 32.1637 25.5138 33.2222L25.5138 37.0555Z" fill="#FDB6C3"/>
<path d="M37.0138 40.8889C37.0138 41.9474 36.1557 42.8055 35.0972 42.8055C34.0386 42.8055 33.1805 41.9474 33.1805 40.8889L33.1805 37.0555C33.1805 35.997 34.0386 35.1389 35.0972 35.1389C36.1557 35.1389 37.0138 35.997 37.0138 37.0555L37.0138 40.8889Z" fill="#FDB6C3"/>
<path d="M21.6805 40.8889C21.6805 41.9474 20.8224 42.8055 19.7638 42.8055C18.7053 42.8055 17.8472 41.9474 17.8472 40.8889L17.8472 37.0555C17.8472 35.997 18.7053 35.1389 19.7638 35.1389C20.8224 35.1389 21.6805 35.997 21.6805 37.0555L21.6805 40.8889Z" fill="#FDB6C3"/>
<path d="M29.3472 14.0555C29.3472 12.997 28.489 12.1389 27.4305 12.1389C26.372 12.1389 25.5138 12.997 25.5138 14.0555V17.8889C25.5138 18.9474 26.372 19.8055 27.4305 19.8055C28.489 19.8055 29.3472 18.9474 29.3472 17.8889V14.0555Z" fill="#FDB6C3"/>
<path d="M29.3472 14.0555C29.3472 12.997 28.489 12.1389 27.4305 12.1389C26.372 12.1389 25.5138 12.997 25.5138 14.0555V17.8889C25.5138 18.9474 26.372 19.8055 27.4305 19.8055C28.489 19.8055 29.3472 18.9474 29.3472 17.8889V14.0555Z" fill="#FDB6C3"/>
<path d="M29.3472 29.3889C29.3472 28.3303 28.489 27.4722 27.4305 27.4722C26.372 27.4722 25.5138 28.3303 25.5138 29.3889L25.5138 33.2222C25.5138 34.2808 26.372 35.1389 27.4305 35.1389C28.489 35.1389 29.3472 34.2808 29.3472 33.2222V29.3889Z" fill="#FDB6C3"/>
<path d="M33.1805 12.7778C33.1805 11.7192 32.3224 10.8611 31.2638 10.8611C30.2053 10.8611 29.3472 11.7192 29.3472 12.7778V14.0555C29.3472 15.1141 30.2053 15.9722 31.2638 15.9722C32.3224 15.9722 33.1805 15.1141 33.1805 14.0555V12.7778Z" fill="#FDB6C3"/>
<path d="M33.1805 40.8889C33.1805 39.8303 32.3224 38.9722 31.2638 38.9722C30.2053 38.9722 29.3472 39.8303 29.3472 40.8889C29.3472 41.9474 30.2053 42.8055 31.2638 42.8055C32.3224 42.8055 33.1805 41.9474 33.1805 40.8889Z" fill="#FDB6C3"/>
<path d="M33.1805 12.7778C33.1805 11.7192 32.3224 10.8611 31.2638 10.8611C30.2053 10.8611 29.3472 11.7192 29.3472 12.7778V14.0555C29.3472 15.1141 30.2053 15.9722 31.2638 15.9722C32.3224 15.9722 33.1805 15.1141 33.1805 14.0555V12.7778Z" fill="#FDB6C3"/>
<path d="M33.1805 40.8889C33.1805 39.8303 32.3224 38.9722 31.2638 38.9722C30.2053 38.9722 29.3472 39.8303 29.3472 40.8889C29.3472 41.9474 30.2053 42.8055 31.2638 42.8055C32.3224 42.8055 33.1805 41.9474 33.1805 40.8889Z" fill="#FDB6C3"/>
<path d="M33.1805 25.5555C33.1805 24.497 32.3224 23.6389 31.2638 23.6389C30.2053 23.6389 29.3472 24.497 29.3472 25.5555V29.3889C29.3472 30.4474 30.2053 31.3055 31.2638 31.3055C32.3224 31.3055 33.1805 30.4474 33.1805 29.3889V25.5555Z" fill="#FDB6C3"/>
<path d="M17.8472 12.7778C17.8472 11.7192 16.989 10.8611 15.9305 10.8611C14.872 10.8611 14.0138 11.7192 14.0138 12.7778V14.0555C14.0138 15.1141 14.872 15.9722 15.9305 15.9722C16.989 15.9722 17.8472 15.1141 17.8472 14.0555V12.7778Z" fill="#FDB6C3"/>
<path d="M17.8472 12.7778C17.8472 11.7192 16.989 10.8611 15.9305 10.8611C14.872 10.8611 14.0138 11.7192 14.0138 12.7778V14.0555C14.0138 15.1141 14.872 15.9722 15.9305 15.9722C16.989 15.9722 17.8472 15.1141 17.8472 14.0555V12.7778Z" fill="#FDB6C3"/>
<path d="M17.8472 25.5555C17.8472 24.497 16.989 23.6389 15.9305 23.6389C14.872 23.6389 14.0138 24.497 14.0138 25.5555V29.3889C14.0138 30.4474 14.872 31.3055 15.9305 31.3055C16.989 31.3055 17.8472 30.4474 17.8472 29.3889V25.5555Z" fill="#FDB6C3"/>
<path d="M40.8472 21.7222C40.8472 22.7808 39.989 23.6389 38.9305 23.6389C37.872 23.6389 37.0138 22.7808 37.0138 21.7222L37.0138 17.8889C37.0138 16.8303 37.872 15.9722 38.9305 15.9722C39.989 15.9722 40.8472 16.8303 40.8472 17.8889V21.7222Z" fill="#FDB6C3"/>
<path d="M25.5138 21.7222C25.5138 22.7808 24.6557 23.6389 23.5972 23.6389C22.5386 23.6389 21.6805 22.7808 21.6805 21.7222V17.8889C21.6805 16.8303 22.5386 15.9722 23.5972 15.9722C24.6557 15.9722 25.5138 16.8303 25.5138 17.8889V21.7222Z" fill="#FDB6C3"/>
<path d="M37.0138 25.5555C37.0138 26.6141 36.1557 27.4722 35.0972 27.4722C34.0386 27.4722 33.1805 26.6141 33.1805 25.5555V21.7222C33.1805 20.6637 34.0386 19.8055 35.0972 19.8055C36.1557 19.8055 37.0138 20.6637 37.0138 21.7222V25.5555Z" fill="#FDB6C3"/>
<path d="M21.6805 25.5555C21.6805 26.6141 20.8224 27.4722 19.7638 27.4722C18.7053 27.4722 17.8472 26.6141 17.8472 25.5555V21.7222C17.8472 20.6637 18.7053 19.8055 19.7638 19.8055C20.8224 19.8055 21.6805 20.6637 21.6805 21.7222V25.5555Z" fill="#FDB6C3"/>
<path d="M40.8472 21.7222C40.8472 22.7808 39.989 23.6389 38.9305 23.6389C37.872 23.6389 37.0138 22.7808 37.0138 21.7222L37.0138 17.8889C37.0138 16.8303 37.872 15.9722 38.9305 15.9722C39.989 15.9722 40.8472 16.8303 40.8472 17.8889V21.7222Z" fill="#FDB6C3"/>
<path d="M25.5138 21.7222C25.5138 22.7808 24.6557 23.6389 23.5972 23.6389C22.5386 23.6389 21.6805 22.7808 21.6805 21.7222V17.8889C21.6805 16.8303 22.5386 15.9722 23.5972 15.9722C24.6557 15.9722 25.5138 16.8303 25.5138 17.8889V21.7222Z" fill="#FDB6C3"/>
<path d="M37.0138 25.5555C37.0138 26.6141 36.1557 27.4722 35.0972 27.4722C34.0386 27.4722 33.1805 26.6141 33.1805 25.5555V21.7222C33.1805 20.6637 34.0386 19.8055 35.0972 19.8055C36.1557 19.8055 37.0138 20.6637 37.0138 21.7222V25.5555Z" fill="#FDB6C3"/>
<path d="M21.6805 25.5555C21.6805 26.6141 20.8224 27.4722 19.7638 27.4722C18.7053 27.4722 17.8472 26.6141 17.8472 25.5555V21.7222C17.8472 20.6637 18.7053 19.8055 19.7638 19.8055C20.8224 19.8055 21.6805 20.6637 21.6805 21.7222V25.5555Z" fill="#FDB6C3"/>
<path d="M40.8472 37.0555C40.8472 38.1141 39.989 38.9722 38.9305 38.9722C37.872 38.9722 37.0138 38.1141 37.0138 37.0555L37.0138 33.2222C37.0138 32.1637 37.872 31.3055 38.9305 31.3055C39.989 31.3055 40.8472 32.1637 40.8472 33.2222L40.8472 37.0555Z" fill="#FDB6C3"/>
<path d="M25.5138 37.0555C25.5138 38.1141 24.6557 38.9722 23.5972 38.9722C22.5386 38.9722 21.6805 38.1141 21.6805 37.0555L21.6805 33.2222C21.6805 32.1637 22.5386 31.3055 23.5972 31.3055C24.6557 31.3055 25.5138 32.1637 25.5138 33.2222L25.5138 37.0555Z" fill="#FDB6C3"/>
<path d="M37.0138 40.8889C37.0138 41.9474 36.1557 42.8055 35.0972 42.8055C34.0386 42.8055 33.1805 41.9474 33.1805 40.8889L33.1805 37.0555C33.1805 35.997 34.0386 35.1389 35.0972 35.1389C36.1557 35.1389 37.0138 35.997 37.0138 37.0555L37.0138 40.8889Z" fill="#FDB6C3"/>
<path d="M21.6805 40.8889C21.6805 41.9474 20.8224 42.8055 19.7638 42.8055C18.7053 42.8055 17.8472 41.9474 17.8472 40.8889L17.8472 37.0555C17.8472 35.997 18.7053 35.1389 19.7638 35.1389C20.8224 35.1389 21.6805 35.997 21.6805 37.0555L21.6805 40.8889Z" fill="#FDB6C3"/>
<path d="M24.2361 1.27778L23.5972 2.55556L44.0417 23.6389L45.3194 26.1944L47.875 25.5556V23L45.3194 22.3611L24.2361 1.27778Z" fill="#C4C4C4"/>
<path d="M39.7598 11.5633L39.2987 10.2112L9.93172 9.96102C8.93873 8.62007 8.33149 8.39575 7.21501 9.07613C6.2042 9.77492 5.96713 10.2748 5.87526 11.3442L7.69467 13.1388L9.94413 11.768L39.7598 11.5633Z" fill="#C4C4C4"/>
<path fill-rule="evenodd" clip-rule="evenodd" d="M7.94566 7.73169C8.89458 7.73169 9.772 8.18468 10.3222 8.93694H17.2109V8.40551C17.2109 8.03329 17.5125 7.73169 17.8847 7.73169C18.2569 7.73169 18.5585 8.03329 18.5585 8.40551V8.93694H21.2013V8.40551C21.2013 8.03329 21.5029 7.73169 21.8751 7.73169C22.2473 7.73169 22.549 8.03329 22.549 8.40551V8.93694H25.1917V8.40551C25.1917 8.03329 25.4933 7.73169 25.8655 7.73169C26.2378 7.73169 26.5394 8.03329 26.5394 8.40551V8.93694H28.3441L23.3067 3.89958C23.2492 3.84199 23.2026 3.77452 23.1691 3.70031L21.9279 0.951088C21.8126 0.695662 21.8674 0.395494 22.0655 0.197299C22.2637 -0.000716489 22.5639 -0.055611 22.8193 0.0596585L25.5685 1.30085C25.6427 1.33436 25.7102 1.38108 25.7678 1.43858L29.1099 4.78086L33.266 8.93694H38.5912C38.6726 8.93694 38.7533 8.95167 38.8294 8.98042L41.6511 10.0467C41.9132 10.1458 42.0867 10.3967 42.0867 10.677C42.0867 10.9573 41.9132 11.2083 41.6511 11.3074L38.8294 12.3736C38.7534 12.4023 38.6727 12.417 38.5913 12.417H36.7462L38.8719 14.5428L39.3519 14.0629C39.615 13.7998 40.0417 13.7998 40.3048 14.0629C40.5679 14.3261 40.5679 14.7527 40.3048 15.0159L39.8248 15.4958L41.6935 17.3645L42.1734 16.8845C42.4366 16.6215 42.8633 16.6215 43.1263 16.8845C43.3895 17.1478 43.3895 17.5743 43.1263 17.8375L42.6464 18.3174L45.7568 21.4278C46.6777 21.2854 47.6186 21.5851 48.2895 22.256C49.4404 23.4069 49.4409 25.2702 48.2895 26.4213C47.1386 27.5724 45.2755 27.5728 44.124 26.4214C43.4531 25.7505 43.1529 24.8097 43.2958 23.8887L42.0865 22.6794V40.3116C42.0865 41.8286 40.8524 43.0627 39.3354 43.0627H38.8957V45.3262C38.8957 45.6984 38.594 46 38.2218 46C37.8497 46 37.548 45.6984 37.548 45.3262V43.0627H33.5565V45.3262C33.5565 45.6984 33.2548 46 32.8827 46C32.5106 46 32.2089 45.6984 32.2089 45.3262V43.0627H28.2176V45.3262C28.2176 45.6984 27.9159 46 27.5438 46C27.1717 46 26.87 45.6984 26.87 45.3262V43.0627H22.8785V45.3262C22.8785 45.6984 22.5769 46 22.2047 46C21.8324 46 21.5308 45.6984 21.5308 45.3262V43.0627H17.5394V45.3262C17.5394 45.6984 17.2377 46 16.8655 46C16.4933 46 16.1917 45.6984 16.1917 45.3262V43.0627H15.7519C14.235 43.0627 13.0009 41.8286 13.0009 40.3116V12.417H10.3221C9.77191 13.1693 8.89432 13.6224 7.94557 13.6224C7.81727 13.6224 7.68484 13.6133 7.55161 13.5955C6.54488 13.5955 5.15772 12.417 5.04173 11.1684C5.01405 11.0046 5.00013 10.8393 5.00013 10.6769C5.00022 9.05293 6.32155 7.73169 7.94566 7.73169ZM24.9018 2.47834L28.157 5.73383L37.9189 15.4956L37.3639 16.0506L24.3467 3.0334L23.89 2.02158L24.9018 2.47834ZM7.94557 12.2747C7.87594 12.2747 7.8055 12.2698 7.7303 12.2598C7.05445 12.2598 6.49045 11.6595 6.37061 10.9447C6.35551 10.8547 6.34778 10.7646 6.34778 10.677C6.34778 9.79611 7.06447 9.07934 7.94557 9.07934C8.53728 9.07934 9.07796 9.4044 9.35674 9.92756C9.47381 10.1473 9.70246 10.2846 9.95142 10.2846H17.2108V11.0644L9.95142 11.0694C9.70246 11.0694 9.47381 11.2068 9.35674 11.4264C9.07796 11.9497 8.53728 12.2747 7.94557 12.2747ZM39.5067 10.677L38.4682 11.0694H35.3985L34.6137 10.2846H38.4682L39.5067 10.677ZM22.549 11.057V10.2846H25.1917V11.0533L22.549 11.057ZM26.5394 11.0513V10.2846H29.6918L30.453 11.0458L26.5394 11.0513ZM38.3169 17.0037L38.8719 16.4488L40.7405 18.3174L40.1855 18.8724L38.3169 17.0037ZM44.6792 23.8708C44.7518 23.6327 44.6871 23.3739 44.5111 23.1978L41.1387 19.8253L41.6937 19.2703L45.0662 22.6429C45.2422 22.8188 45.501 22.8835 45.7392 22.8109C46.3063 22.6378 46.9184 22.7906 47.3368 23.2089C47.9613 23.8334 47.9612 24.844 47.3368 25.4684C46.7122 26.0931 45.7018 26.0929 45.0773 25.4685C44.6589 25.0501 44.5063 24.438 44.6792 23.8708ZM40.7391 21.3316L40.739 37.6889V40.3116C40.739 41.0855 40.1095 41.715 39.3356 41.715H15.7521C14.9783 41.715 14.3487 41.0855 14.3486 40.3116V37.6888L14.3487 12.417H17.2109V12.5896C17.2109 12.9619 17.5125 13.2635 17.8847 13.2635C18.2569 13.2635 18.5585 12.9619 18.5585 12.5896V12.417H21.2013V12.5896C21.2013 12.9619 21.5029 13.2635 21.8751 13.2635C22.2473 13.2635 22.549 12.9619 22.549 12.5896V12.417H25.1917V12.5896C25.1917 12.9619 25.4933 13.2635 25.8655 13.2635C26.2378 13.2635 26.5394 12.9619 26.5394 12.5896V12.417H31.8243L36.4267 17.0194C36.2743 17.2778 36.3083 17.6155 36.5303 17.8375C36.7486 18.0557 37.084 18.0969 37.3484 17.941L38.0201 18.6128L39.2483 19.841C39.0959 20.0994 39.13 20.4371 39.3519 20.6591C39.5701 20.8773 39.9055 20.9185 40.17 20.7626L40.7391 21.3316ZM21.2013 11.0588L18.5585 11.0626V10.2845H21.2013V11.0588Z" fill="#333333"/>
<path d="M1.99968 19H14.9997L12.4997 22V28C18.9997 33 14.2975 40.2418 11.9997 48.5H4.49968C2.40532 38.3166 -2.49989 33.5 4.49968 28V22L1.99968 19Z" fill="#F0C483"/>
<path d="M4.49959 48.5H11.9996C14.2974 40.2418 15.9998 34.5 15.9998 34.5L1.49981 32.5C-0.0292283 32.4588 2.5 41 4.49959 48.5Z" fill="#966A5B"/>
<path fill-rule="evenodd" clip-rule="evenodd" d="M12.8178 48.6021C12.8913 48.4246 12.8954 48.2863 12.9012 48.0862C12.9033 48.0148 12.9057 47.9355 12.9114 47.8438C12.9778 46.7934 13.2076 45.7315 13.6216 44.5528L15.8533 39.209C16.4704 37.5321 16.7578 36.0569 16.7578 34.5664C16.7578 31.7101 15.2854 29.0383 12.8906 27.5046V22.5781C12.8906 21.8673 15 20 15 20C15 20 16 19.356 16 19C16 18.3555 15.5357 18 15.1797 18H1.57812C1.22215 18 1 18.644 1 19C1 19.356 2 20 2 20C2 20 3.86719 21.8673 3.86719 22.5781V27.5047C1.5548 28.9871 0 31.594 0 34.5664C0 37.347 1.01159 39.6061 1.98986 41.7908C2.87113 43.7588 3.70741 45.6275 3.84656 47.8438C3.84656 47.8438 3.90476 48.2539 4.04905 48.6021C4.14882 48.8429 4.38382 49 4.64453 49H12.2223C12.483 49 12.718 48.8429 12.8178 48.6021ZM4.8345 28.4244C5.0336 28.3092 5.15625 28.0966 5.15625 27.8665V22.5781C5.15625 21.179 2.83315 19.1726 2.5 19H14.5C14.2801 19.3801 11.6016 21.2299 11.6016 22.5781V27.8665C11.6016 28.0966 11.7242 28.3092 11.9234 28.4244C13.9228 29.581 15.229 31.6476 15.4384 33.9219H14.1797C12.3035 33.9219 10.686 33.3009 9.28426 32.7628C8.21988 32.3542 7.27984 31.9933 6.44531 31.9883H1.77323C2.3557 30.5031 3.43948 29.2315 4.8345 28.4244ZM11.6202 47.8438C11.6868 46.6474 11.9404 45.4495 12.4054 44.1256L14.6436 38.7638C15.116 37.48 15.3759 36.3344 15.4475 35.2103H14.1797C12.0115 35.2103 9.94337 34.4338 8.42874 33.8651C7.55369 33.5365 6.86339 33.2773 6.44531 33.2773H1.40643C1.32883 33.7005 1.28906 34.1322 1.28906 34.5664C1.28906 37.0716 2.20095 39.108 3.16639 41.2639C4.06796 43.2772 4.99711 45.3541 5.13743 47.8438H11.6202Z" fill="#333333"/>
</svg>
