<svg width="36" height="32" viewBox="0 0 36 32" fill="none" xmlns="http://www.w3.org/2000/svg">
<path d="M34.0488 13H8.95122C7.87361 13 7 13.8954 7 15V30C7 31.1045 7.87361 32 8.95122 32H34.0488C35.1264 32 36 31.1045 36 30V15C36 13.8954 35.1264 13 34.0488 13Z" fill="#F2F7FF"/>
<path d="M26.9141 21.207H22.7578V17.0508H20.2422V21.207H16.0859V23.7227H20.2422V27.8789H22.7578V23.7227H26.9141V21.207Z" fill="#FF7B79"/>
<path d="M29.4297 12.582H27.4531V8.42578H15.5469V12.582H13.5703V7.4375C13.5703 6.8917 14.0128 6.44922 14.5586 6.44922H28.4414C28.9872 6.44922 29.4297 6.8917 29.4297 7.4375V12.582Z" fill="#E2E9EE"/>
<path d="M12.9414 11.582H16.1758V13.3789H12.9414V11.582Z" fill="#A7BDCD"/>
<path d="M30.0586 13.3789H26.8242V11.582H30.0586V13.3789Z" fill="#A7BDCD"/>
<path d="M22.7578 16.6016H20.2422C19.9941 16.6016 19.793 16.8027 19.793 17.0508V20.7578H16.0859C15.8378 20.7578 15.6367 20.9589 15.6367 21.207V23.7227C15.6367 23.9708 15.8378 24.1719 16.0859 24.1719H19.793V27.8789C19.793 28.127 19.9941 28.3281 20.2422 28.3281H22.7578C23.0059 28.3281 23.207 28.127 23.207 27.8789V24.1719H26.9141C27.1622 24.1719 27.3633 23.9708 27.3633 23.7227V21.207C27.3633 20.9589 27.1622 20.7578 26.9141 20.7578H23.207V17.0508C23.207 16.8027 23.0059 16.6016 22.7578 16.6016ZM26.4648 21.6562V23.2734H22.7578C22.5097 23.2734 22.3086 23.4746 22.3086 23.7227V27.4297H20.6914V23.7227C20.6914 23.4746 20.4903 23.2734 20.2422 23.2734H16.5352V21.6562H20.2422C20.4903 21.6562 20.6914 21.4551 20.6914 21.207V17.5H22.3086V21.207C22.3086 21.4551 22.5097 21.6562 22.7578 21.6562H26.4648Z" fill="#333333"/>
<path fill-rule="evenodd" clip-rule="evenodd" d="M33.7539 12.9297H30.5078V11.582C30.5078 11.3339 30.3067 11.1328 30.0586 11.1328H29.8789V7.4375C29.8789 6.64485 29.2341 6 28.4414 6H14.5586C13.7659 6 13.1211 6.64485 13.1211 7.4375V11.1328H12.9414C12.6933 11.1328 12.4922 11.3339 12.4922 11.582V12.9297H9.24609C8.0076 12.9297 7 13.9373 7 15.1758V25.4863V29.7539C7 30.9924 8.0076 32 9.24609 32H33.7539C34.9924 32 36 30.9924 36 29.7539V15.1758C36 13.9373 34.9924 12.9297 33.7539 12.9297ZM7.89844 15.1758V25.4863V29.7539C7.89844 30.497 8.503 31.1016 9.24609 31.1016H33.7539C34.497 31.1016 35.1016 30.497 35.1016 29.7539V15.1758C35.1016 14.4327 34.497 13.8281 33.7539 13.8281H9.24609C8.503 13.8281 7.89844 14.4327 7.89844 15.1758ZM14.5586 6.89844C14.2613 6.89844 14.0195 7.14025 14.0195 7.4375V11.1328H15.0977V8.42578C15.0977 8.17768 15.2988 7.97656 15.5469 7.97656H27.4531C27.7012 7.97656 27.9023 8.17768 27.9023 8.42578V11.1328H28.9805V7.4375C28.9805 7.14025 28.7387 6.89844 28.4414 6.89844H14.5586ZM26.375 11.582C26.375 11.3339 26.5761 11.1328 26.8242 11.1328H27.0039V8.875H15.9961V11.1328H16.1758C16.4239 11.1328 16.625 11.3339 16.625 11.582V12.9297H26.375V11.582ZM13.3906 12.0312V12.9297H15.7266V12.0312H13.3906ZM27.2734 12.0312V12.9297H29.6094V12.0312H27.2734Z" fill="#333333"/>
<path d="M5.19946 1.71769H7.08662V6.39176H5.19946V1.71769Z" fill="#E5E1E5"/>
<path d="M8.40752 9.46326H3.87866V6.3438C3.87866 5.78389 4.33257 5.32998 4.89248 5.32998H7.39364C7.95354 5.32998 8.40745 5.78389 8.40745 6.3438V9.46326H8.40752Z" fill="#EFEDEF"/>
<path d="M11.8175 29.6695C11.8175 30.6979 10.9839 31.5316 9.9555 31.5316H2.33055C1.30218 31.5316 0.468506 30.6979 0.468506 29.6695V13.3097C0.468506 12.3674 0.835031 11.4621 1.49057 10.7851L3.53969 8.66912C3.62813 8.5778 3.74981 8.52627 3.87692 8.52627H8.40914C8.53625 8.52627 8.65792 8.5778 8.74637 8.66912L10.7955 10.7851C11.451 11.462 11.8175 12.3674 11.8175 13.3097V29.6695Z" fill="#C0F1FF"/>
<path d="M4.20515 29.8326V13.4728C4.20515 12.5305 4.57168 11.6252 5.22721 10.9482L6.4747 9.66001C7.07552 9.03958 7.90226 8.68936 8.76592 8.68936L8.74637 8.66912C8.65792 8.5778 8.53625 8.52627 8.40914 8.52627H3.87692C3.74981 8.52627 3.62813 8.5778 3.53969 8.66912L1.49057 10.7851C0.835031 11.4621 0.468506 12.3674 0.468506 13.3097V29.6695C0.468506 30.6979 1.30218 31.5316 2.33055 31.5316H5.30535C4.657 31.2403 4.20515 30.5895 4.20515 29.8326Z" fill="#99E6FC"/>
<path d="M14.3991 5.00106H13.0788C12.8052 5.00106 12.5834 4.77925 12.5834 4.50567V2.98642C12.5834 2.87217 12.4908 2.77954 12.3765 2.77954H2.19808C1.89639 2.77954 1.65186 2.53501 1.65186 2.23332V1.01469C1.65186 0.712998 1.89639 0.46846 2.19808 0.46846H12.3766C13.7672 0.46846 14.8945 1.59577 14.8945 2.98642V4.50567C14.8945 4.77925 14.6727 5.00106 14.3991 5.00106Z" fill="#EFEDEF"/>
<path fill-rule="evenodd" clip-rule="evenodd" d="M0.000351906 13.9069L0 29.6696C0 30.9546 1.04542 32.0001 2.33051 32.0001H9.95546C11.2405 32.0001 12.286 30.9547 12.286 29.6696V28.625L12.2863 13.3097C12.2863 12.2401 11.8764 11.2277 11.1323 10.4593L8.9448 8.20041C8.92375 8.17867 8.90064 8.15931 8.87616 8.14226V6.34373C8.87616 5.58095 8.29695 4.95109 7.55534 4.87039V3.24801H12.1153V4.50567C12.1153 5.03716 12.5477 5.46952 13.0791 5.46952H14.3995C14.9309 5.46952 15.3633 5.03716 15.3633 4.50567V2.98642C15.3633 1.33968 14.0236 0 12.3769 0H3.87891H2.19844C1.63891 0 1.18375 0.455158 1.18375 1.01469V2.23338C1.18375 2.79285 1.63891 3.24801 2.19844 3.24801H4.73133V4.87039C3.98966 4.95109 3.41051 5.58095 3.41051 6.34373V8.14226C3.38603 8.15931 3.36298 8.17867 3.34187 8.20041L1.15439 10.4593C0.410226 11.2277 0.000351906 12.24 0.000351906 13.3097V13.9069ZM11.349 29.6696V28.625L11.3493 13.3097C11.3493 12.4846 11.0332 11.7038 10.4592 11.111L8.40982 8.99473H3.87679L1.82736 11.111C1.2534 11.7038 0.937277 12.4846 0.937277 13.3097V13.9069L0.936925 29.6696C0.936925 30.438 1.5621 31.0632 2.33051 31.0632H9.95546C10.7239 31.0632 11.349 30.438 11.349 29.6696ZM12.3769 0.936925H3.87891H2.19844C2.15553 0.936925 2.12068 0.971842 2.12068 1.01469V2.23332C2.12068 2.27623 2.15553 2.31108 2.19844 2.31108H12.3769C12.7493 2.31108 13.0523 2.61402 13.0523 2.98642V4.50567C13.0523 4.52054 13.0643 4.5326 13.0792 4.5326H14.3995C14.4144 4.5326 14.4264 4.52054 14.4264 4.50567V2.98642C14.4264 1.8563 13.507 0.936925 12.3769 0.936925ZM6.61848 4.86146V3.24801H5.66825V4.86146H6.61848ZM7.39388 5.79838H4.89273C4.59204 5.79838 4.34737 6.04304 4.34737 6.34373V8.05781H7.93923V6.34373C7.93923 6.04304 7.69457 5.79838 7.39388 5.79838Z" fill="#333333"/>
</svg>
