<svg width="37" height="36" viewBox="0 0 37 36" fill="none" xmlns="http://www.w3.org/2000/svg">
<path d="M21.0316 34.5001L26.0021 34.9924L26.2295 33.4915L26.3768 32.5173L28.4613 18.7552L28.9844 15.2997L29.6412 19.6364L31.5983 32.5598L31.7462 33.5346L31.9667 34.9924L36.9373 34.5001L36.8298 33.0361L36.7577 32.0539L36.1028 23.1307L34.8803 15.1333L34.7592 13.4834L34.6057 11.3991L34.5336 10.4144L34.3528 7.95283L22.6887 7.95283L22.5079 10.4144L22.4358 11.3991L22.3128 13.0742L22.2836 13.4674L22.1631 15.1117L21.2136 32.0219L21.1416 33.0041L21.0316 34.5001Z" fill="#314C73"/>
<path d="M35.606 22.6521C33.3196 21.7372 31.1503 20.5529 29.1443 19.1243L31.1015 32.1719L31.2493 33.156L31.4699 34.6279L36.4404 34.1309L36.3329 32.6528L36.2609 31.6612L35.606 22.6521Z" fill="#2E466C"/>
<path d="M20.5347 34.1309L25.5052 34.6279L25.7326 33.1125L25.8798 32.129V32.1284L27.9644 18.2345C25.72 16.4497 23.7586 14.3355 22.147 11.9636L22.1178 12.3606L21.9973 14.0208L20.7167 31.6289L20.6446 32.6205L20.5347 34.1309Z" fill="#2E466C"/>
<path d="M22.2701 10.2724H34.7051L34.633 9.2783H22.3422L22.2701 10.2724Z" fill="#283F61"/>
<path d="M32.4641 7.78714H31.47V9.77535H32.4641V7.78714Z" fill="#283F61"/>
<path d="M25.5054 7.78714H24.5113V9.77535H25.5054V7.78714Z" fill="#283F61"/>
<path d="M28.9846 7.78714H27.9905V14.7459H28.9846V7.78714Z" fill="#283F61"/>
<path d="M31.1015 32.1719L31.2494 33.156L36.333 32.6528L36.2609 31.6612L31.1015 32.1719Z" fill="#283F61"/>
<path d="M20.6447 32.6205L25.7326 33.1125L25.8799 32.129V32.1284L20.7168 31.6288L20.6447 32.6205Z" fill="#283F61"/>
<path d="M31.5898 10.099L31.739 10.2724L34.9797 14.0425L34.8586 12.3768V12.3762L33.0499 10.2724L32.464 9.59143L32.3441 9.45164L31.967 9.77534L31.5898 10.099Z" fill="#283F61"/>
<path d="M21.9975 14.0208L25.2358 10.2724L25.3855 10.099L25.0084 9.77534L24.6312 9.45164L24.5113 9.59019L23.9223 10.2724L22.118 12.3606L21.9975 14.0208Z" fill="#283F61"/>
<path fill-rule="evenodd" clip-rule="evenodd" d="M20.039 34.0948L21.56 13.1839L22.0266 8.88596C22.0342 8.49555 22.1946 8.1237 22.4732 7.85015C22.7519 7.57659 23.1266 7.42312 23.5171 7.42264H33.4581C33.8486 7.42313 34.2233 7.57661 34.502 7.85017C34.7806 8.12372 34.9409 8.49557 34.9486 8.88596L35.2729 11.2307L36.9359 34.095C36.9453 34.2242 36.9039 34.3519 36.8206 34.451C36.7372 34.5501 36.6185 34.6128 36.4897 34.6256L31.5191 35.1227C31.5026 35.1244 31.486 35.1252 31.4694 35.1252C31.3505 35.1251 31.2356 35.0822 31.1455 35.0046C31.0555 34.9269 30.9962 34.8195 30.9786 34.7019L28.4876 18.0967L25.9969 34.7015C25.9792 34.8191 25.92 34.9265 25.83 35.0042C25.7399 35.0818 25.625 35.1246 25.5061 35.1248C25.4895 35.1248 25.4729 35.124 25.4564 35.1223L20.4858 34.6252C20.3569 34.6124 20.2381 34.5499 20.1547 34.4508C20.0712 34.3518 20.0297 34.224 20.039 34.0948ZM34.314 11.7501L33.0475 10.2724L34.208 10.2905L34.2814 11.3027L34.314 11.7501ZM27.9906 10.2724V14.7086L25.3916 32.0356L21.2128 31.661L22.5397 13.4192L25.2368 10.2724H27.9906ZM22.9471 8.2842H23.5171H24.5112V9.2783H22.8407L22.9471 8.2842ZM28.9847 9.2783V8.2842H31.4699V9.2783H28.9847ZM33.4581 8.2842C33.663 8.28433 34.0426 8.2842 34.0426 8.2842L34.1346 9.2783H32.464V8.2842H33.4581ZM35.8382 32.7024L35.9097 33.6844L31.8913 34.0863L31.7451 33.1117L35.8382 32.7024ZM31.5975 32.1275L28.9847 14.7086V10.2724H31.7384L34.4357 13.4191L35.7661 31.7106L31.5975 32.1275ZM25.5053 8.2842H27.9906V9.2783H25.5053V8.2842ZM22.661 11.7501L22.7684 10.2724H23.9275L22.661 11.7501ZM25.2376 33.0625L25.084 34.0863L21.0656 33.6845L21.1406 32.6531L25.2376 33.0625Z" fill="#333333"/>
<path d="M14.7358 1.46251C12.5335 1.46251 10.5451 1.17521 9.11719 0.713453V5.44687H20.3543V0.713515C18.9265 1.17528 16.9382 1.46251 14.7358 1.46251Z" fill="#D23C69"/>
<path d="M26.2399 9.76948L23.9803 3.67457C23.6844 2.73732 22.9464 2.0056 22.0068 1.71743L18.0705 0.510405C17.5377 0.347062 16.977 0.65368 16.8245 1.18962C16.1715 3.48494 15.1197 4.10553 13.6752 4.10553C11.1704 4.10553 11.179 3.48494 10.5259 1.18962C10.3735 0.65368 9.81274 0.347062 9.27996 0.510405L6.4042 1.71743C5.46452 2.0056 4.72665 2.73732 4.43066 3.67457L2.17113 9.76948C2.02369 10.2365 2.23748 10.7413 2.67551 10.9604L6.83131 13.5684V23.4246C6.83131 23.6996 7.0543 23.9226 7.32935 23.9226H21.0817C21.3568 23.9226 21.5798 23.6996 21.5798 23.4246V13.5684L25.7356 10.9604C26.1735 10.7413 26.3874 10.2365 26.2399 9.76948Z" fill="#F03F34"/>
<path d="M4.13124 4.11846L2.05386 9.37222C1.91831 9.7843 2.11487 10.2298 2.51757 10.4231L7.09605 13.7849V9.37222C7.09605 8.51866 6.25274 7.42264 6.25274 6.89245L5.19236 3.18113C4.94674 3.45105 4.24685 3.76685 4.13124 4.11846Z" fill="#333333" fill-opacity="0.2"/>
<path d="M23.6434 3.05808L26.3657 9.37222C26.4741 9.7843 26.3169 10.2298 25.9947 10.4231L21.0979 13.7849L22.1583 8.22813C22.1583 7.37458 22.331 6.53375 22.6615 5.7779L23.2003 2.12075C23.3968 2.39067 23.5509 2.70647 23.6434 3.05808Z" fill="#333333" fill-opacity="0.2"/>
<path d="M17.7242 22.059C12.6133 22.059 8.47001 20.3336 8.47001 15.086V10.3352C8.47001 9.89791 8.12473 9.54339 7.69882 9.54339H7.31323V23.9928C7.31323 24.2114 7.48587 24.3887 7.69882 24.3887H20.0378V23.9928C20.0378 23.5555 19.6925 22.059 19.2666 22.059L17.7242 22.059Z" fill="#333333" fill-opacity="0.2"/>
<path d="M18.0706 0.510405C17.5378 0.347062 16.977 0.65368 16.8246 1.18962C16.1716 3.48494 15.1198 4.10553 13.6753 4.10553C11.1705 4.10553 11.1791 3.48494 10.5261 1.18962C10.3737 0.65368 9.81286 0.347062 9.28014 0.510405L8.40894 0.77757C8.92413 4.40101 9.90963 6.12971 13.6753 6.12971C16.3807 6.12971 18.4266 4.40101 18.9417 0.77757L18.0706 0.510405Z" fill="#FF507D"/>
<path fill-rule="evenodd" clip-rule="evenodd" d="M26.6843 9.62914L24.4247 3.53422C24.0826 2.45084 23.2297 1.60498 22.1435 1.27202L18.2071 0.064929C17.8294 -0.0508839 17.4304 -0.0108091 17.0836 0.177698C17.0645 0.188073 17.0458 0.198946 17.0275 0.210254C16.9498 0.258096 16.8683 0.299475 16.781 0.326254C15.372 0.758937 15.6469 0.996527 13.6752 0.996527C11.7036 0.996527 11.9785 0.758937 10.5694 0.326254C10.4822 0.299475 10.4007 0.258096 10.323 0.210254C10.3047 0.198946 10.286 0.188073 10.2669 0.177698C9.92011 -0.0108091 9.52111 -0.0508839 9.14335 0.064929L6.26758 1.27196C5.18128 1.60504 4.32846 2.45077 3.98637 3.53422L1.72677 9.62914C1.51031 10.3146 1.8242 11.0557 2.46713 11.3771L6.36533 13.8564V23.4247C6.36533 23.9571 6.79696 24.3887 7.32936 24.3887H21.0818C21.6142 24.3887 22.0458 23.9571 22.0458 23.4247V13.8564L25.944 11.3771C26.5869 11.0557 26.9007 10.3146 26.6843 9.62914ZM16.2545 1.43275C15.5326 3.37448 15.7739 3.63955 13.6753 3.63955C11.5767 3.63955 11.818 3.37448 11.0961 1.43281C11.2126 1.46034 11.3232 1.48678 11.4292 1.51213C11.5018 1.78299 12.1107 1.92856 13.6753 1.92856C15.24 1.9285 14.7885 1.78292 15.9215 1.51204C16.0275 1.4867 16.1381 1.46027 16.2545 1.43275ZM4.87497 3.81487C4.8956 3.74957 4.91964 3.68595 4.94524 3.62307L5.69462 6.94735C5.69462 6.94735 6.36527 9.72479 6.36527 10.6424V10.6943L3.05738 8.51016L4.87497 3.81487ZM2.88391 10.5436C2.64942 10.4264 2.53653 10.1598 2.6155 9.90979L2.77325 9.41019L6.36533 11.7364V12.8145L2.88391 10.5436ZM23.299 9.5375L22.0457 10.6944V10.6425C22.0457 9.72485 22.7164 6.94747 22.7164 6.94747L23.4658 3.62313C23.4914 3.68595 23.5154 3.74957 23.536 3.81487L25.3537 8.51034L25.0358 8.66928L23.299 9.5375ZM22.0457 12.8144L25.5271 10.5436C25.7616 10.4263 25.8745 10.1597 25.7956 9.90991L25.6378 9.41032L25.4527 9.50289L23.7158 10.3711L22.0457 11.7363V12.8144ZM13.6753 5.6318C10.3436 5.6318 9.60175 4.34951 8.9362 1.10327L9.41673 0.955893C9.5531 0.914141 9.69688 0.928493 9.82182 0.996403C9.94758 1.06481 10.0385 1.1787 10.0779 1.31712C10.8007 3.85761 11.0313 4.57152 13.6753 4.57152C16.3193 4.57152 16.55 3.85755 17.2727 1.31719C17.3121 1.1787 17.4031 1.06481 17.5289 0.996465C17.6537 0.928493 17.7976 0.914141 17.934 0.955955L18.416 1.10377C17.9169 4.24151 16.13 5.6318 13.6753 5.6318ZM21.0818 23.4567C21.0995 23.4567 21.1138 23.4423 21.1138 23.4246V10.6425C21.1138 9.56977 21.6283 7.42264 21.8979 6.50186L22.877 2.75553C22.5962 2.48594 22.2534 2.28047 21.8703 2.16298L19.3098 1.37783C18.4471 5.30188 16.4312 6.60694 13.6753 6.56377C9.93022 6.56377 8.82747 5.01158 8.04033 1.37795L6.54077 2.16292C6.15761 2.28041 5.81483 2.48588 5.53406 2.75547L6.5132 6.50186C6.78298 7.42264 7.2973 9.56964 7.2973 10.6425V23.4246C7.2973 23.4423 7.31165 23.4567 7.32936 23.4567H21.0818Z" fill="#333333"/>
</svg>
