<svg width="360" height="640" viewBox="0 0 360 640" fill="none" xmlns="http://www.w3.org/2000/svg">
<g clip-path="url(#clip0)">
<rect width="360" height="640" fill="white"/>
<path d="M-7.5 511C6.5 515 32.5 532 46.5 545C60.5 558 108 565 133.5 574C159 583 188 607 211 619C234 631 282 596 306 603C330 610 342 629 354 643C363.6 654.2 374 674.333 378 683H-7.5V511Z" fill="#008ECC"/>
<path d="M-24 584.56C-24 583.086 -22.9177 581.828 -21.4611 581.596C21.1235 574.828 49.5276 570.455 73 564C93 558.5 115.194 556.174 128 564C146 575 139 585.5 158.5 608C179.583 632.326 177 625 196.5 643C213.717 658.893 224.5 666.5 249.5 659.5C274.5 652.5 299.588 640.288 318.5 650C336.151 659.064 370.643 664.487 392.011 664.965C393.667 665.002 395 666.343 395 668V687C395 688.657 393.657 690 392 690H36H-21C-22.6569 690 -24 688.657 -24 687V584.56Z" fill="#0F52BA"/>
</g>
<defs>
<clipPath id="clip0">
<rect width="360" height="640" fill="white"/>
</clipPath>
</defs>
</svg>
