<svg width="360" height="129" viewBox="0 0 360 129" fill="none" xmlns="http://www.w3.org/2000/svg">
<path d="M-7.5 0C6.5 4 32.5 21 46.5 34C60.5 47 108 54 133.5 63C159 72 188 96 211 108C234 120 282 85 306 92C330 99 342 118 354 132C363.6 143.2 374 163.333 378 172H-7.5V0Z" fill="#008ECC"/>
<path d="M-24 73.5605C-24 72.0856 -22.9177 70.8278 -21.4611 70.5963C21.1235 63.8281 49.5276 59.4549 73 53C93 47.5 115.194 45.1739 128 53C146 64 139 74.5 158.5 97C179.583 121.326 177 114 196.5 132C213.717 147.893 224.5 155.5 249.5 148.5C274.5 141.5 299.588 129.288 318.5 139C336.151 148.064 370.643 153.487 392.011 153.965C393.667 154.002 395 155.343 395 157V176C395 177.657 393.657 179 392 179H36H-21C-22.6569 179 -24 177.657 -24 176V73.5605Z" fill="#0F52BA"/>
</svg>
