<svg width="89" height="91" viewBox="0 0 89 91" fill="none" xmlns="http://www.w3.org/2000/svg">
<path d="M41.3946 28.4014L39.9933 29.0553C39.5486 29.2873 39.0368 29.6059 38.5976 29.8685C38.4662 30.0278 32.0976 33.4708 31.7535 33.5965L31.1634 33.7474C30.6516 34.1918 29.186 34.9072 28.5315 35.2286L21.9951 38.8028C21.6398 39.0292 21.7461 39.0767 21.3042 39.2863C21.0385 39.4148 20.8148 39.5043 20.5015 39.6608L19.7519 40.0855C19.7295 40.0995 19.7016 40.1191 19.6792 40.1302C19.6568 40.1442 19.6289 40.161 19.6065 40.175L17.8053 41.195C17.6151 41.2956 17.5759 41.3235 17.4277 41.4074L14.4713 43.1512C13.6378 43.5229 12.947 44.0343 12.1527 44.4786C11.4311 44.881 9.74171 45.8088 9.25784 46.2867L7.66918 47.6365C7.55451 47.8237 7.54612 47.9579 7.52654 48.1982C8.04397 48.187 7.89294 48.12 8.34884 48.0808C8.33485 48.7935 7.87616 48.8326 7.32796 49.1763C6.69865 49.5676 6.12807 50.1656 5.48198 50.5065L3.49896 51.6942C3.41225 51.7557 3.2836 51.8228 3.278 51.8256C2.79413 52.1497 2.42214 52.717 1.96345 53.0999L0.623715 54.5782C0.458696 54.7794 0.165019 55.1875 0.0755172 55.4446C0.0475479 55.5284 0.0195785 55.6569 0 55.8023V56.5456C0.0223754 56.6546 0.0559386 56.7412 0.106283 56.7915C0.472681 57.1576 1.44881 56.744 1.88513 56.5456C3.03747 56.0202 4.52823 55.2909 5.54352 54.5615L8.90822 52.5158C9.06205 52.4404 9.04248 52.4683 9.15715 52.4152C9.18232 52.4013 9.21589 52.3901 9.24106 52.3789L17.5899 47.2089C18.0346 46.9351 18.015 46.7897 18.6975 46.7897C18.7059 46.773 18.7115 46.7255 18.7143 46.7394C18.7143 46.7506 18.7282 46.6947 18.731 46.6863L24.1851 43.2238C24.2074 43.2099 24.2382 43.1931 24.2578 43.1791L27.133 41.3515C27.1554 41.3375 27.1834 41.3179 27.2029 41.304L29.9691 39.6021C29.9887 39.5881 30.0139 39.5629 30.0362 39.549L31.0851 38.9565C32.4947 37.9337 35.6609 36.1843 37.2747 35.1503C37.5264 34.9882 37.5907 34.9128 37.904 34.7227C38.2033 34.5411 38.3319 34.4628 38.6508 34.2924L39.4675 33.8173C39.736 33.6245 39.7723 33.6887 39.9793 33.3925C40.2982 33.0572 41.6519 32.3278 42.2113 31.9896C42.8406 31.6096 43.73 30.9752 44.4292 30.6426L45.341 29.9859C44.9607 29.6925 43.9202 29.4074 43.3384 29.0944C42.9636 28.8904 42.7399 28.72 42.4071 28.4964C41.8393 28.1135 42.0211 28.1974 41.3946 28.4014ZM14.2308 65.002C14.2308 67.6289 13.6071 69.4985 13.2239 71.7509C13.1651 72.1003 13.1819 72.145 13.0729 72.4244C13.0365 72.525 12.8631 72.8688 12.8155 72.9889C12.5274 73.7351 12.5274 74.2353 12.0072 75.3532L9.53194 82.3983C9.42845 82.879 9.41447 83.1975 9.26064 83.6559C8.72083 85.2823 8.93899 86.7886 8.93899 88.8538C8.93899 89.3093 9.09002 89.6949 9.28301 90.0387C9.99343 91.3158 10.6647 90.3824 12.1135 90.3824C12.3233 90.3824 12.726 90.7485 13.1707 90.8519C13.2854 90.4243 14.2308 89.4462 14.2308 88.619C14.2308 87.2609 13.6742 88.9125 14.3175 85.5338C14.6811 83.6139 14.4182 76.9237 14.7314 74.5511C14.8014 74.0229 14.8992 73.1259 14.9356 72.5222C15.0139 71.2144 15.3943 69.9317 15.7076 68.7104C15.8726 68.0649 15.9425 67.4277 16.0907 66.8604L17.1732 61.1287C17.2543 60.3938 17.3969 59.8348 17.534 59.139L17.9423 56.1404C18.3143 54.4357 18.057 51.4176 16.8963 50.2355C16.6166 49.9504 16.4571 49.8358 15.9928 49.7268C15.3691 50.1432 14.9748 50.9676 14.6559 51.6803C14.5021 52.0212 14.4685 52.2308 14.3427 52.5438C13.8001 53.8796 13.5987 54.5363 13.8448 56.3388C13.9427 57.057 13.8392 57.8116 13.8756 58.5409C13.9119 59.1893 14.0965 59.86 14.1161 60.5335C14.1637 62.132 14.2308 63.4091 14.2308 65.002ZM51.1558 30.4554C51.2789 30.978 51.4803 31.2463 51.8635 31.5257L52.1879 32.0204C52.4396 32.216 53.5528 33.8089 53.6451 34.0632L55.038 35.508C55.1639 35.9859 55.8183 36.4442 56.5008 37.2183C56.677 37.4195 57.7342 38.3305 58.3859 39.0963L67.5179 46.7758C67.5375 46.7897 67.5654 46.8093 67.585 46.8261L67.82 47.0608C68.4577 47.7203 70.6141 49.1931 71.6294 50.0678L73.0502 51.1185C75.3269 52.7785 73.576 51.6914 76.4904 53.3179C77.4442 53.8516 77.7351 54.2708 77.8246 52.8707C77.8274 52.8232 77.7547 50.364 77.7267 50.2047C77.6288 49.6374 76.3478 49.0561 75.6234 48.5475C75.6206 48.5447 75.4248 48.3938 75.422 48.3938C74.3676 47.5247 75.0025 47.7175 73.5341 46.7562C73.3635 46.6444 73.5005 46.7478 73.3411 46.5969L72.4069 45.7669C72.1496 45.5489 71.8699 45.3505 71.6042 45.1605L69.8114 43.7772C69.7918 43.7632 69.7694 43.7381 69.7498 43.7213C69.7331 43.7045 69.7079 43.6794 69.6911 43.6626C69.6743 43.6458 69.6491 43.6207 69.6324 43.6039L69.1681 43.2462C69.1485 43.2322 69.1177 43.2127 69.0982 43.1987L59.0012 33.8983C58.8222 33.7139 58.811 33.7279 58.6292 33.5658C58.5845 33.5239 58.4586 33.4037 58.4502 33.3925L54.2604 29.1252C54.1038 28.9519 54.1877 29.0413 54.0954 28.9575L53.8829 28.7172C53.3263 28.7144 52.848 29.1559 52.4005 29.3515C51.9418 29.5556 51.2817 29.7372 50.9181 29.9943L51.1558 30.4554Z" fill="#FF2D16"/>
<path d="M46.7114 1.70198C46.001 3.44021 46.0737 5.22036 46.4122 7.00889C46.5185 7.58178 46.6164 7.73549 46.7758 8.20777L47.5813 9.33399C48.1351 9.82863 48.4595 9.73082 48.8958 9.3284C50.9348 7.44205 50.5796 1.34428 48.8679 0.248801C47.6568 -0.528093 47.131 0.670783 46.7114 1.70198ZM46.7114 32.9119C46.001 34.6529 46.0737 36.4303 46.4122 38.2216C46.5185 38.7945 46.6164 38.9454 46.7758 39.4177L47.5813 40.5439C48.1351 41.0385 48.4595 40.9435 48.8958 40.5383C50.9348 38.6519 50.5796 32.557 48.8679 31.4587C47.6568 30.6846 47.131 31.8835 46.7114 32.9119ZM60.4164 6.11742C58.6823 6.84681 57.474 8.15467 56.4476 9.66095C56.1203 10.1416 56.0812 10.3177 55.8602 10.7648L55.6309 12.1286C55.6728 12.8719 55.9693 13.0312 56.565 13.0536C59.3424 13.1626 63.4035 8.59901 62.97 6.61206C62.6623 5.21198 61.4429 5.68706 60.4164 6.11742ZM38.329 28.189C36.5949 28.9156 35.3867 30.2263 34.3602 31.7298C34.0302 32.2104 33.991 32.3893 33.7701 32.8336L33.5435 34.2002C33.5855 34.9407 33.8819 35.1 34.4749 35.1224C37.2522 35.2314 41.3162 30.6706 40.8798 28.6837C40.575 27.2808 39.3527 27.7587 38.329 28.189ZM29.474 21.9543C31.2137 22.6641 32.9953 22.5943 34.7853 22.2561C35.3587 22.1471 35.5125 22.0493 35.9852 21.89L37.1124 21.0852C37.6074 20.5319 37.5095 20.2105 37.1068 19.7717C35.2189 17.7345 29.116 18.0894 28.0196 19.8025C27.2448 21.0097 28.4419 21.5351 29.474 21.9543ZM60.7101 21.9543C62.4526 22.6641 64.2314 22.5943 66.0242 22.2561C66.5976 22.1471 66.7486 22.0493 67.2213 21.89L68.3485 21.0852C68.8435 20.5319 68.7485 20.2105 68.3429 19.7717C66.455 17.7345 60.3549 18.0894 59.2557 19.8025C58.4809 21.0097 59.6808 21.5351 60.7101 21.9543ZM33.8931 8.26087C34.6231 9.99351 35.9321 11.2008 37.4396 12.2264C37.9207 12.5561 38.0969 12.5925 38.5444 12.816L39.9093 13.0424C40.6533 13.0005 40.8127 12.7043 40.8351 12.109C40.9442 9.33399 36.3768 5.27625 34.3882 5.70941C32.9869 6.01682 33.4624 7.23525 33.8931 8.26087ZM55.9833 30.3297C56.7105 32.0623 58.0222 33.2696 59.527 34.298C60.008 34.625 60.187 34.6641 60.6318 34.8848L61.9995 35.114C62.7406 35.0721 62.9001 34.7759 62.9225 34.1806C63.0315 31.4056 58.4669 27.3451 56.4783 27.781C55.0743 28.0856 55.5525 29.3069 55.9833 30.3297Z" fill="#DCAD67"/>
<path d="M31.1634 33.7475V33.6301L31.0264 33.7279L31.1634 33.7475Z" fill="black"/>
<path d="M27.726 49.7519C29.1664 49.7519 30.3355 50.9173 30.3355 52.3565C30.3355 53.7985 29.1664 54.9638 27.726 54.9638C26.2828 54.9638 25.1165 53.7985 25.1165 52.3565C25.1165 50.9173 26.2828 49.7519 27.726 49.7519Z" fill="#00AA4F"/>
<path d="M64.1952 49.7519C65.6356 49.7519 66.8048 50.9173 66.8048 52.3565C66.8048 53.7985 65.6356 54.9638 64.1952 54.9638C62.7548 54.9638 61.5857 53.7985 61.5857 52.3565C61.5857 50.9173 62.7548 49.7519 64.1952 49.7519Z" fill="#FF2D16"/>
<path d="M45.8416 47.7679C47.8302 47.7679 49.444 49.3803 49.444 51.3673C49.444 53.3542 47.8302 54.9639 45.8416 54.9639C43.853 54.9639 42.2419 53.3542 42.2419 51.3673C42.2419 49.3803 43.853 47.7679 45.8416 47.7679Z" fill="#142A96"/>
<path d="M17.9283 90.8239L16.6138 84.0555H17.4389L18.4681 89.3372L19.4946 84.0555H20.4679L21.4972 89.3372L22.5237 84.0555H23.346L22.0342 90.8239H21.0637L19.9841 85.2767L18.8989 90.8239H17.9283ZM27.6952 87.4201H26.8757C26.21 87.4201 25.7485 87.5235 25.4912 87.7303C25.2339 87.9353 25.1052 88.2855 25.1052 88.7811C25.1052 89.1761 25.2013 89.49 25.3933 89.7229C25.5873 89.9539 25.8502 90.0694 26.1821 90.0694C26.6389 90.0694 27.0044 89.8514 27.2785 89.4155C27.5563 88.9758 27.6952 88.3936 27.6952 87.6689V87.4201ZM28.5203 86.9618V90.8239H27.6952V89.7955C27.5069 90.2073 27.2729 90.5119 26.9932 90.7094C26.7116 90.9031 26.3676 91 25.9611 91C25.4483 91 25.04 90.8062 24.7361 90.4187C24.434 90.0275 24.2829 89.5058 24.2829 88.8538C24.2829 88.0918 24.4713 87.518 24.8479 87.1323C25.2264 86.7448 25.7905 86.551 26.5401 86.551H27.6952V86.442C27.6952 85.9297 27.5693 85.5347 27.3176 85.2571C27.0715 84.9758 26.7228 84.8352 26.2716 84.8352C25.9844 84.8352 25.7047 84.8817 25.4325 84.9749C25.1621 85.0662 24.9011 85.205 24.6493 85.3913V84.3629C24.9514 84.2064 25.2442 84.0899 25.5276 84.0135C25.811 83.9316 26.087 83.8906 26.3555 83.8906C27.0808 83.8906 27.6225 84.1449 27.9805 84.6535C28.3404 85.1603 28.5203 85.9297 28.5203 86.9618ZM33.1185 83.9521L33.124 85.095C33.0308 85.0224 32.9292 84.9702 32.8192 84.9386C32.711 84.9013 32.5917 84.8827 32.4612 84.8827C31.995 84.8827 31.6361 85.0885 31.3844 85.5003C31.1364 85.9064 31.0124 86.4923 31.0124 87.2581V90.8239H30.1845V84.0555H31.0124V85.1062C31.1858 84.6945 31.4114 84.3908 31.6892 84.1952C31.967 83.9921 32.3045 83.8906 32.7017 83.8906C32.7595 83.8906 32.822 83.8971 32.8891 83.9101C32.9581 83.9176 33.0345 83.9316 33.1185 83.9521ZM35.7308 84.8352C35.2889 84.8352 34.9393 85.069 34.6819 85.5366C34.4246 85.9986 34.296 86.6349 34.296 87.4453C34.296 88.2557 34.4228 88.8947 34.6763 89.3624C34.9337 89.8244 35.2851 90.0554 35.7308 90.0554C36.169 90.0554 36.5167 89.8216 36.774 89.354C37.0295 88.8882 37.1572 88.252 37.1572 87.4453C37.1572 86.6442 37.0295 86.0098 36.774 85.5422C36.5167 85.0708 36.169 84.8352 35.7308 84.8352ZM35.7308 83.8906C36.4468 83.8906 37.009 84.2054 37.4173 84.8352C37.8275 85.463 38.0327 86.333 38.0327 87.4453C38.0327 88.5538 37.8275 89.4239 37.4173 90.0554C37.009 90.6851 36.4468 91 35.7308 91C35.011 91 34.4461 90.6851 34.0358 90.0554C33.6312 89.4239 33.4289 88.5538 33.4289 87.4453C33.4289 86.333 33.6312 85.463 34.0358 84.8352C34.4461 84.2054 35.011 83.8906 35.7308 83.8906ZM43.688 87.1602V87.7052H39.8982C39.9355 88.4709 40.1061 89.055 40.41 89.4574C40.7177 89.8561 41.1447 90.0554 41.691 90.0554C42.008 90.0554 42.3138 90.0033 42.6084 89.8989C42.9068 89.7946 43.2023 89.6372 43.4951 89.4266V90.4802C43.2004 90.6497 42.8974 90.7783 42.5861 90.8659C42.2765 90.9553 41.9614 91 41.6407 91C40.8408 91 40.2068 90.6851 39.7388 90.0554C39.2726 89.4276 39.0396 88.578 39.0396 87.5068C39.0396 86.3983 39.2605 85.5198 39.7024 84.8715C40.1481 84.2176 40.7466 83.8906 41.498 83.8906C42.173 83.8906 42.7063 84.1849 43.0979 84.7737C43.4913 85.3587 43.688 86.1542 43.688 87.1602ZM39.9262 86.8417L42.863 86.8361C42.8574 86.2269 42.7306 85.7406 42.4826 85.3773C42.2383 85.0159 41.9129 84.8352 41.5064 84.8352C41.0477 84.8352 40.6795 85.0103 40.4017 85.3605C40.1257 85.7108 39.9672 86.2045 39.9262 86.8417ZM49.2092 86.7383V90.8239H48.3869V86.7746C48.3869 86.1337 48.2937 85.654 48.1072 85.3354C47.9226 85.0168 47.6457 84.8575 47.2765 84.8575C46.8309 84.8575 46.4794 85.0494 46.2221 85.4332C45.9666 85.8151 45.8389 86.3368 45.8389 86.9982V90.8239H45.0082V84.0555H45.8389V85.1062C46.0347 84.7001 46.2659 84.3964 46.5325 84.1952C46.801 83.9921 47.1096 83.8906 47.4583 83.8906C48.0345 83.8906 48.4708 84.1328 48.7673 84.6172C49.0619 85.096 49.2092 85.803 49.2092 86.7383ZM50.823 90.8239V81.4202H51.6509V86.973L54.1094 84.0555H55.1611L52.5012 87.2217L55.2757 90.8239H54.1989L51.6509 87.518V90.8239H50.823Z" fill="#2C2E35"/>
<path d="M54.196 85.2236V77.0606H55.2365V85.1398C55.2365 86.416 55.354 87.3745 55.5889 88.0154C55.822 88.6507 56.1725 88.9684 56.6406 88.9684C57.2018 88.9684 57.6447 88.5864 57.9691 87.8226C58.2973 87.0606 58.4614 86.021 58.4614 84.7038V77.0606H59.5018V90.5445H58.4614V88.4737C58.2078 89.2916 57.9132 89.9018 57.5775 90.3042C57.2456 90.6973 56.8597 90.8938 56.4196 90.8938C55.6924 90.8938 55.1395 90.4122 54.761 89.449C54.3844 88.4858 54.196 87.0774 54.196 85.2236ZM66.5753 79.6484C66.8363 78.6536 67.1477 77.9195 67.5094 77.4463C67.8712 76.9712 68.2972 76.7337 68.7876 76.7337C69.4477 76.7337 69.9567 77.2274 70.3147 78.2148C70.6728 79.1948 70.8518 80.5921 70.8518 82.4067V90.5445H69.8057V82.4765C69.8057 81.1854 69.6985 80.2269 69.4841 79.6009C69.2678 78.9749 68.9396 78.6619 68.4995 78.6619C67.9607 78.6619 67.5346 79.0429 67.2213 79.8049C66.9081 80.5669 66.7515 81.6065 66.7515 82.9237V90.5445H65.7054V82.4765C65.7054 81.1761 65.5982 80.2176 65.3838 79.6009C65.1675 78.9749 64.8356 78.6619 64.3881 78.6619C63.8566 78.6619 63.4343 79.0467 63.121 79.8161C62.8078 80.58 62.6512 81.6158 62.6512 82.9237V90.5445H61.6051V77.0606H62.6512V79.1538C62.888 78.3285 63.1723 77.7183 63.5042 77.3233C63.8361 76.9302 64.2305 76.7337 64.6873 76.7337C65.1479 76.7337 65.5376 76.9824 65.8564 77.4798C66.1809 77.9791 66.4205 78.702 66.5753 79.6484ZM72.8879 90.5445V71.8096H73.934V82.8762L77.0386 77.0606H78.3671L75.008 83.368L78.507 90.5445H77.1504L73.934 83.9577V90.5445H72.8879ZM84.5651 79.6484C84.8243 78.6536 85.1357 77.9195 85.4993 77.4463C85.861 76.9712 86.2871 76.7337 86.7775 76.7337C87.4357 76.7337 87.9438 77.2274 88.3018 78.2148C88.6617 79.1948 88.8416 80.5921 88.8416 82.4067V90.5445H87.7928V82.4765C87.7928 81.1854 87.6855 80.2269 87.4711 79.6009C87.2567 78.9749 86.9285 78.6619 86.4866 78.6619C85.9477 78.6619 85.5217 79.0429 85.2084 79.8049C84.897 80.5669 84.7413 81.6065 84.7413 82.9237V90.5445H83.6953V82.4765C83.6953 81.1761 83.5871 80.2176 83.3708 79.6009C83.1564 78.9749 82.8245 78.6619 82.3751 78.6619C81.8437 78.6619 81.4223 79.0467 81.1109 79.8161C80.7976 80.58 80.641 81.6158 80.641 82.9237V90.5445H79.595V77.0606H80.641V79.1538C80.8778 78.3285 81.1622 77.7183 81.4941 77.3233C81.826 76.9302 82.2203 76.7337 82.6772 76.7337C83.1359 76.7337 83.5256 76.9824 83.8463 77.4798C84.1707 77.9791 84.4103 78.702 84.5651 79.6484Z" fill="#2C2E35"/>
<path d="M17.7185 90.5445L16.4067 83.776H17.2318L18.2611 89.0578L19.2876 83.776H20.2581L21.2874 89.0578L22.3139 83.776H23.1389L21.8244 90.5445H20.8539L19.7742 84.9973L18.6918 90.5445H17.7185ZM27.4882 87.1407H26.6659C26.0002 87.1407 25.5396 87.2441 25.2842 87.4509C25.0269 87.6559 24.8982 88.0061 24.8982 88.5017C24.8982 88.8967 24.9933 89.2106 25.1835 89.4435C25.3793 89.6745 25.6422 89.79 25.9722 89.79C26.4291 89.79 26.7955 89.572 27.0714 89.1361C27.3493 88.6964 27.4882 88.1142 27.4882 87.3894V87.1407ZM28.3105 86.6824V90.5445H27.4882V89.5161C27.2998 89.9279 27.0649 90.2325 26.7833 90.4299C26.5037 90.6237 26.1606 90.7206 25.7541 90.7206C25.2394 90.7206 24.8302 90.5268 24.5262 90.1393C24.2242 89.7481 24.0731 89.2264 24.0731 88.5743C24.0731 87.8124 24.2614 87.2385 24.6381 86.8529C25.0166 86.4654 25.5807 86.2716 26.3302 86.2716H27.4882V86.1626C27.4882 85.6503 27.3623 85.2553 27.1106 84.9777C26.8626 84.6964 26.513 84.5557 26.0617 84.5557C25.7765 84.5557 25.4977 84.6023 25.2255 84.6955C24.9532 84.7868 24.6922 84.9255 24.4423 85.1119V84.0835C24.7425 83.927 25.0343 83.8105 25.3178 83.7341C25.603 83.6522 25.8799 83.6112 26.1484 83.6112C26.8738 83.6112 27.4155 83.8655 27.7735 84.3741C28.1315 84.8808 28.3105 85.6503 28.3105 86.6824ZM32.9114 83.6726L32.9142 84.8156C32.8228 84.743 32.7212 84.6908 32.6094 84.6591C32.5031 84.6219 32.3837 84.6032 32.2513 84.6032C31.7852 84.6032 31.4272 84.8091 31.1773 85.2208C30.9293 85.627 30.8053 86.2129 30.8053 86.9786V90.5445H29.9774V83.776H30.8053V84.8268C30.9787 84.4169 31.2044 84.1133 31.4822 83.9158C31.76 83.7127 32.0975 83.6112 32.4947 83.6112C32.5506 83.6112 32.6131 83.6177 32.6821 83.6307C32.7511 83.6382 32.8275 83.6522 32.9114 83.6726ZM35.521 84.5557C35.079 84.5557 34.7304 84.7895 34.4749 85.2572C34.2176 85.7192 34.0889 86.3554 34.0889 87.1659C34.0889 87.9763 34.2157 88.6153 34.4693 89.083C34.7266 89.545 35.0772 89.776 35.521 89.776C35.961 89.776 36.3088 89.5422 36.5642 89.0746C36.8215 88.6088 36.9502 87.9726 36.9502 87.1659C36.9502 86.3648 36.8215 85.7304 36.5642 85.2628C36.3088 84.7914 35.961 84.5557 35.521 84.5557ZM35.521 83.6112C36.2388 83.6112 36.8019 83.926 37.2103 84.5557C37.6187 85.1836 37.8228 86.0536 37.8228 87.1659C37.8228 88.2744 37.6187 89.1444 37.2103 89.776C36.8019 90.4057 36.2388 90.7206 35.521 90.7206C34.8012 90.7206 34.2372 90.4057 33.8288 89.776C33.4223 89.1444 33.2191 88.2744 33.2191 87.1659C33.2191 86.0536 33.4223 85.1836 33.8288 84.5557C34.2372 83.926 34.8012 83.6112 35.521 83.6112ZM43.481 86.8808V87.4258H39.6912C39.7266 88.1915 39.8972 88.7755 40.203 89.178C40.5088 89.5767 40.9358 89.776 41.484 89.776C41.7991 89.776 42.1049 89.7239 42.4014 89.6195C42.6997 89.5152 42.9953 89.3578 43.288 89.1472V90.2008C42.9916 90.3703 42.6886 90.4989 42.379 90.5864C42.0676 90.6759 41.7525 90.7206 41.4337 90.7206C40.6337 90.7206 39.9988 90.4057 39.529 89.776C39.0647 89.1482 38.8325 88.2986 38.8325 87.2274C38.8325 86.1188 39.0535 85.2404 39.4954 84.5921C39.9392 83.9381 40.5377 83.6112 41.291 83.6112C41.966 83.6112 42.4984 83.9055 42.8881 84.4943C43.2834 85.0793 43.481 85.8748 43.481 86.8808ZM39.7191 86.5622L42.6559 86.5567C42.6503 85.9474 42.5235 85.4612 42.2755 85.0979C42.0313 84.7365 41.7059 84.5557 41.2994 84.5557C40.8389 84.5557 40.4697 84.7309 40.1918 85.0811C39.9177 85.4314 39.7602 85.9251 39.7191 86.5622ZM49.0022 86.4588V90.5445H48.1771V86.4952C48.1771 85.8543 48.0848 85.3745 47.9002 85.056C47.7156 84.7374 47.4377 84.5781 47.0667 84.5781C46.6229 84.5781 46.2724 84.77 46.015 85.1538C45.7577 85.5357 45.6291 86.0574 45.6291 86.7187V90.5445H44.8012V83.776H45.6291V84.8268C45.8267 84.4207 46.0589 84.117 46.3255 83.9158C46.594 83.7127 46.9026 83.6112 47.2513 83.6112C47.8274 83.6112 48.2638 83.8534 48.5602 84.3378C48.8549 84.8166 49.0022 85.5236 49.0022 86.4588ZM50.616 90.5445V81.1408H51.4439V86.6936L53.9024 83.776H54.954L52.2941 86.9423L55.0659 90.5445H53.9919L51.4439 87.2385V90.5445H50.616Z" fill="#2C2E35"/>
<path d="M17.7185 90.5445L16.4067 83.776H17.2318L18.2611 89.0578L19.2876 83.776H20.2581L21.2874 89.0578L22.3139 83.776H23.1389L21.8244 90.5445H20.8539L19.7742 84.9973L18.6918 90.5445H17.7185ZM27.4854 87.1407H26.6659C26.0002 87.1407 25.5396 87.2441 25.2842 87.4509C25.0269 87.6559 24.8982 88.0061 24.8982 88.5017C24.8982 88.8967 24.9933 89.2106 25.1835 89.4435C25.3793 89.6745 25.6422 89.79 25.9722 89.79C26.4291 89.79 26.7955 89.572 27.0714 89.1361C27.3474 88.6964 27.4854 88.1142 27.4854 87.3894V87.1407ZM28.3105 86.6824V90.5445H27.4854V89.5161C27.2989 89.9279 27.0649 90.2325 26.7833 90.4299C26.5037 90.6237 26.1606 90.7206 25.7541 90.7206C25.2394 90.7206 24.8302 90.5268 24.5262 90.1393C24.2242 89.7481 24.0731 89.2264 24.0731 88.5743C24.0731 87.8124 24.2614 87.2385 24.6381 86.8529C25.0166 86.4654 25.5807 86.2716 26.3302 86.2716H27.4854V86.1626C27.4854 85.6503 27.3604 85.2553 27.1106 84.9777C26.8626 84.6964 26.513 84.5557 26.0617 84.5557C25.7765 84.5557 25.4977 84.6023 25.2255 84.6955C24.9532 84.7868 24.6922 84.9255 24.4423 85.1119V84.0835C24.7425 83.927 25.0343 83.8105 25.3178 83.7341C25.603 83.6522 25.8799 83.6112 26.1484 83.6112C26.8738 83.6112 27.4155 83.8655 27.7735 84.3741C28.1315 84.8808 28.3105 85.6503 28.3105 86.6824ZM32.9114 83.6726L32.9142 84.8156C32.8228 84.743 32.7212 84.6908 32.6094 84.6591C32.5031 84.6219 32.3837 84.6032 32.2513 84.6032C31.7852 84.6032 31.4272 84.8091 31.1773 85.2208C30.9293 85.627 30.8053 86.2129 30.8053 86.9786V90.5445H29.9774V83.776H30.8053V84.8268C30.9787 84.4151 31.2044 84.1114 31.4822 83.9158C31.76 83.7127 32.0975 83.6112 32.4947 83.6112C32.5506 83.6112 32.6131 83.6177 32.6821 83.6307C32.7511 83.6382 32.8275 83.6522 32.9114 83.6726ZM35.521 84.5557C35.079 84.5557 34.7294 84.7895 34.4721 85.2572C34.2167 85.7192 34.0889 86.3554 34.0889 87.1659C34.0889 87.9763 34.2157 88.6153 34.4693 89.083C34.7266 89.545 35.0772 89.776 35.521 89.776C35.961 89.776 36.3088 89.5422 36.5642 89.0746C36.8215 88.6088 36.9502 87.9726 36.9502 87.1659C36.9502 86.3648 36.8215 85.7304 36.5642 85.2628C36.3088 84.7914 35.961 84.5557 35.521 84.5557ZM35.521 83.6112C36.237 83.6112 36.8001 83.926 37.2103 84.5557C37.6187 85.1836 37.8228 86.0536 37.8228 87.1659C37.8228 88.2744 37.6187 89.1444 37.2103 89.776C36.8001 90.4057 36.237 90.7206 35.521 90.7206C34.8012 90.7206 34.2372 90.4057 33.8288 89.776C33.4223 89.1444 33.2191 88.2744 33.2191 87.1659C33.2191 86.0536 33.4223 85.1836 33.8288 84.5557C34.2372 83.926 34.8012 83.6112 35.521 83.6112ZM43.481 86.8808V87.4258H39.6912C39.7266 88.1915 39.8963 88.7755 40.2002 89.178C40.5079 89.5767 40.9349 89.776 41.4812 89.776C41.7982 89.776 42.1049 89.7239 42.4014 89.6195C42.6997 89.5152 42.9953 89.3578 43.288 89.1472V90.2008C42.9916 90.3703 42.6886 90.4989 42.379 90.5864C42.0676 90.6759 41.7525 90.7206 41.4337 90.7206C40.6337 90.7206 39.9988 90.4057 39.529 89.776C39.0628 89.1482 38.8297 88.2986 38.8297 87.2274C38.8297 86.1188 39.0507 85.2404 39.4926 84.5921C39.9382 83.9381 40.5377 83.6112 41.291 83.6112C41.9642 83.6112 42.4965 83.9055 42.8881 84.4943C43.2834 85.0793 43.481 85.8748 43.481 86.8808ZM39.7191 86.5622L42.6559 86.5567C42.6503 85.9474 42.5235 85.4612 42.2755 85.0979C42.0313 84.7365 41.7059 84.5557 41.2994 84.5557C40.8389 84.5557 40.4697 84.7309 40.1918 85.0811C39.9177 85.4314 39.7602 85.9251 39.7191 86.5622ZM49.0022 86.4588V90.5445H48.1771V86.4952C48.1771 85.8543 48.0848 85.3745 47.9002 85.056C47.7156 84.7374 47.4377 84.5781 47.0667 84.5781C46.6229 84.5781 46.2724 84.77 46.015 85.1538C45.7577 85.5357 45.6291 86.0574 45.6291 86.7187V90.5445H44.8012V83.776H45.6291V84.8268C45.8267 84.4207 46.0579 84.117 46.3227 83.9158C46.5912 83.7127 46.9007 83.6112 47.2513 83.6112C47.8274 83.6112 48.2628 83.8534 48.5574 84.3378C48.8539 84.8166 49.0022 85.5236 49.0022 86.4588ZM50.6132 90.5445V81.1408H51.4439V86.6936L53.9024 83.776H54.954L52.2941 86.9423L55.0659 90.5445H53.9919L51.4439 87.2385V90.5445H50.6132Z" fill="#2C2E35"/>
<path d="M17.7185 90.5445L16.4067 83.776H17.2318L18.2611 89.0578L19.2876 83.776H20.2581L21.2874 89.0578L22.3139 83.776H23.1389L21.8244 90.5445H20.8539L19.7742 84.9973L18.6918 90.5445H17.7185ZM27.4854 87.1407H26.6659C26.0002 87.1407 25.5396 87.2441 25.2842 87.4509C25.0269 87.6559 24.8982 88.0061 24.8982 88.5017C24.8982 88.8967 24.9933 89.2106 25.1835 89.4435C25.3793 89.6745 25.6422 89.79 25.9722 89.79C26.4291 89.79 26.7955 89.572 27.0714 89.1361C27.3474 88.6964 27.4854 88.1142 27.4854 87.3894V87.1407ZM28.3105 86.6824V90.5445H27.4854V89.5161C27.2989 89.9279 27.0649 90.2325 26.7833 90.4299C26.5037 90.6237 26.1606 90.7206 25.7541 90.7206C25.2394 90.7206 24.8302 90.5268 24.5262 90.1393C24.2242 89.7481 24.0731 89.2264 24.0731 88.5743C24.0731 87.8124 24.2614 87.2385 24.6381 86.8529C25.0166 86.4654 25.5807 86.2716 26.3302 86.2716H27.4854V86.1626C27.4854 85.6503 27.3604 85.2553 27.1106 84.9777C26.8626 84.6964 26.513 84.5557 26.0617 84.5557C25.7765 84.5557 25.4977 84.6023 25.2255 84.6955C24.9532 84.7868 24.6922 84.9255 24.4423 85.1119V84.0835C24.7425 83.927 25.0343 83.8105 25.3178 83.7341C25.603 83.6522 25.8799 83.6112 26.1484 83.6112C26.8738 83.6112 27.4155 83.8655 27.7735 84.3741C28.1315 84.8808 28.3105 85.6503 28.3105 86.6824ZM32.9114 83.6726L32.9142 84.8156C32.8228 84.743 32.7212 84.6908 32.6094 84.6591C32.5031 84.6219 32.3837 84.6032 32.2513 84.6032C31.7852 84.6032 31.4272 84.8091 31.1773 85.2208C30.9293 85.627 30.8053 86.2129 30.8053 86.9786V90.5445H29.9774V83.776H30.8053V84.8268C30.9787 84.4151 31.2044 84.1114 31.4822 83.9158C31.76 83.7127 32.0975 83.6112 32.4947 83.6112C32.5506 83.6112 32.6131 83.6177 32.6821 83.6307C32.7511 83.6382 32.8275 83.6522 32.9114 83.6726ZM35.521 84.5557C35.079 84.5557 34.7294 84.7895 34.4721 85.2572C34.2167 85.7192 34.0889 86.3554 34.0889 87.1659C34.0889 87.9763 34.2157 88.6153 34.4693 89.083C34.7266 89.545 35.0772 89.776 35.521 89.776C35.961 89.776 36.3088 89.5422 36.5642 89.0746C36.8215 88.6088 36.9502 87.9726 36.9502 87.1659C36.9502 86.3648 36.8215 85.7304 36.5642 85.2628C36.3088 84.7914 35.961 84.5557 35.521 84.5557ZM35.521 83.6112C36.237 83.6112 36.8001 83.926 37.2103 84.5557C37.6187 85.1836 37.8228 86.0536 37.8228 87.1659C37.8228 88.2744 37.6187 89.1444 37.2103 89.776C36.8001 90.4057 36.237 90.7206 35.521 90.7206C34.8012 90.7206 34.2372 90.4057 33.8288 89.776C33.4223 89.1444 33.2191 88.2744 33.2191 87.1659C33.2191 86.0536 33.4223 85.1836 33.8288 84.5557C34.2372 83.926 34.8012 83.6112 35.521 83.6112ZM43.481 86.8808V87.4258H39.6912C39.7266 88.1915 39.8963 88.7755 40.2002 89.178C40.5079 89.5767 40.9349 89.776 41.4812 89.776C41.7982 89.776 42.1049 89.7239 42.4014 89.6195C42.6997 89.5152 42.9953 89.3578 43.288 89.1472V90.2008C42.9916 90.3703 42.6886 90.4989 42.379 90.5864C42.0676 90.6759 41.7525 90.7206 41.4337 90.7206C40.6337 90.7206 39.9988 90.4057 39.529 89.776C39.0628 89.1482 38.8297 88.2986 38.8297 87.2274C38.8297 86.1188 39.0507 85.2404 39.4926 84.5921C39.9382 83.9381 40.5377 83.6112 41.291 83.6112C41.9642 83.6112 42.4965 83.9055 42.8881 84.4943C43.2834 85.0793 43.481 85.8748 43.481 86.8808ZM39.7191 86.5622L42.6559 86.5567C42.6503 85.9474 42.5235 85.4612 42.2755 85.0979C42.0313 84.7365 41.7059 84.5557 41.2994 84.5557C40.8389 84.5557 40.4697 84.7309 40.1918 85.0811C39.9177 85.4314 39.7602 85.9251 39.7191 86.5622ZM49.0022 86.4588V90.5445H48.1771V86.4952C48.1771 85.8543 48.0848 85.3745 47.9002 85.056C47.7156 84.7374 47.4377 84.5781 47.0667 84.5781C46.6229 84.5781 46.2724 84.77 46.015 85.1538C45.7577 85.5357 45.6291 86.0574 45.6291 86.7187V90.5445H44.8012V83.776H45.6291V84.8268C45.8267 84.4207 46.0579 84.117 46.3227 83.9158C46.5912 83.7127 46.9007 83.6112 47.2513 83.6112C47.8274 83.6112 48.2628 83.8534 48.5574 84.3378C48.8539 84.8166 49.0022 85.5236 49.0022 86.4588ZM50.6132 90.5445V81.1408H51.4439V86.6936L53.9024 83.776H54.954L52.2941 86.9423L55.0659 90.5445H53.9919L51.4439 87.2385V90.5445H50.6132Z" fill="#9A9B9F"/>
<path d="M54.0115 84.9442V76.7812H55.0519V84.8603C55.0519 86.1365 55.1694 87.0951 55.4043 87.7359C55.6374 88.3712 55.988 88.6889 56.456 88.6889C57.0172 88.6889 57.4601 88.307 57.7845 87.5431C58.1127 86.7811 58.2768 85.7415 58.2768 84.4244V76.7812H59.3173V90.265H58.2768V88.1943C58.0232 89.0121 57.7286 89.6223 57.393 90.0247C57.0629 90.4178 56.6769 90.6144 56.235 90.6144C55.5078 90.6144 54.9559 90.1328 54.5793 89.1696C54.2007 88.2064 54.0115 86.7979 54.0115 84.9442ZM66.3907 79.369C66.6517 78.3741 66.9631 77.6391 67.3249 77.164C67.6866 76.6908 68.1127 76.4542 68.6031 76.4542C69.2631 76.4542 69.7722 76.9479 70.1302 77.9353C70.4882 78.9153 70.6672 80.3126 70.6672 82.1272V90.265H69.6211V82.1971C69.6211 80.906 69.5139 79.9474 69.2995 79.3215C69.0832 78.6955 68.755 78.3825 68.315 78.3825C67.7761 78.3825 67.35 78.7635 67.0368 79.5255C66.7235 80.2875 66.5669 81.327 66.5669 82.6442V90.265H65.5208V82.1971C65.5208 80.8967 65.4136 79.9381 65.1992 79.3215C64.9829 78.6955 64.651 78.3825 64.2035 78.3825C63.6721 78.3825 63.2497 78.7672 62.9365 79.5366C62.6232 80.3005 62.4666 81.3364 62.4666 82.6442V90.265H61.4205V76.7812H62.4666V78.8743C62.7034 78.0471 62.9878 77.437 63.3197 77.0439C63.6516 76.6508 64.0459 76.4542 64.5028 76.4542C64.9633 76.4542 65.353 76.7029 65.6719 77.2004C65.9963 77.6997 66.2359 78.4225 66.3907 79.369ZM72.7034 90.265V71.5302H73.7494V82.5967L76.854 76.7812H78.1825L74.8234 83.0886L78.3224 90.265H76.9659L73.7494 83.6782V90.265H72.7034ZM84.3805 79.369C84.6397 78.3741 84.9502 77.6391 85.3119 77.164C85.6755 76.6908 86.1016 76.4542 86.5901 76.4542C87.2502 76.4542 87.7592 76.9479 88.1172 77.9353C88.4752 78.9153 88.6543 80.3126 88.6543 82.1272V90.265H87.6082V82.1971C87.6082 80.906 87.501 79.9474 87.2865 79.3215C87.0721 78.6955 86.7439 78.3825 86.302 78.3825C85.7632 78.3825 85.3371 78.7635 85.0238 79.5255C84.7124 80.2875 84.5567 81.327 84.5567 82.6442V90.265H83.5107V82.1971C83.5107 80.8967 83.4026 79.9381 83.1863 79.3215C82.9718 78.6955 82.6399 78.3825 82.1905 78.3825C81.6591 78.3825 81.2377 78.7672 80.9263 79.5366C80.6131 80.3005 80.4564 81.3364 80.4564 82.6442V90.265H79.4104V76.7812H80.4564V78.8743C80.6933 78.0471 80.9776 77.437 81.3095 77.0439C81.6414 76.6508 82.0358 76.4542 82.4926 76.4542C82.9513 76.4542 83.341 76.7029 83.6617 77.2004C83.9862 77.6997 84.2258 78.4225 84.3805 79.369Z" fill="#9A9B9F"/>
<path d="M54.0115 84.9442V76.7812H55.0519V84.8603C55.0519 86.1365 55.1694 87.0951 55.4043 87.7359C55.6374 88.3712 55.988 88.6889 56.456 88.6889C57.0172 88.6889 57.4601 88.307 57.7845 87.5431C58.1127 86.7811 58.2768 85.7415 58.2768 84.4244V76.7812H59.3173V90.265H58.2768V88.1943C58.0232 89.0121 57.7286 89.6223 57.393 90.0247C57.0611 90.4178 56.6751 90.6144 56.235 90.6144C55.5078 90.6144 54.955 90.1328 54.5765 89.1696C54.1998 88.2064 54.0115 86.7979 54.0115 84.9442ZM66.3907 79.369C66.6517 78.3741 66.9631 77.6401 67.3249 77.1668C67.6866 76.6918 68.1127 76.4542 68.6031 76.4542C69.2631 76.4542 69.7722 76.9479 70.1302 77.9353C70.4882 78.9153 70.6672 80.3126 70.6672 82.1272V90.265H69.6211V82.1971C69.6211 80.906 69.513 79.9474 69.2967 79.3215C69.0823 78.6955 68.755 78.3825 68.315 78.3825C67.7761 78.3825 67.35 78.7635 67.0368 79.5255C66.7235 80.2875 66.5669 81.327 66.5669 82.6442V90.265H65.5208V82.1971C65.5208 80.8967 65.4136 79.9381 65.1992 79.3215C64.9829 78.6955 64.651 78.3825 64.2035 78.3825C63.6721 78.3825 63.2497 78.7672 62.9365 79.5366C62.6232 80.3005 62.4666 81.3364 62.4666 82.6442V90.265H61.4205V76.7812H62.4666V78.8743C62.7034 78.049 62.9878 77.4388 63.3197 77.0439C63.6516 76.6508 64.0459 76.4542 64.5028 76.4542C64.9633 76.4542 65.353 76.7029 65.6719 77.2004C65.9963 77.6997 66.2359 78.4225 66.3907 79.369ZM72.7034 90.265V71.5302H73.7494V82.5967L76.854 76.7812H78.1825L74.8234 83.0886L78.3224 90.265H76.9659L73.7494 83.6782V90.265H72.7034ZM84.3805 79.369C84.6397 78.3741 84.9511 77.6401 85.3147 77.1668C85.6765 76.6918 86.1016 76.4542 86.5901 76.4542C87.2502 76.4542 87.7592 76.9479 88.1172 77.9353C88.4752 78.9153 88.6543 80.3126 88.6543 82.1272V90.265H87.6082V82.1971C87.6082 80.906 87.501 79.9474 87.2865 79.3215C87.0721 78.6955 86.7439 78.3825 86.302 78.3825C85.7632 78.3825 85.3371 78.7635 85.0238 79.5255C84.7124 80.2875 84.5567 81.327 84.5567 82.6442V90.265H83.5107V82.1971C83.5107 80.8967 83.4026 79.9381 83.1863 79.3215C82.9718 78.6955 82.6399 78.3825 82.1905 78.3825C81.6591 78.3825 81.2377 78.7672 80.9263 79.5366C80.6131 80.3005 80.4564 81.3364 80.4564 82.6442V90.265H79.4104V76.7812H80.4564V78.8743C80.6933 78.049 80.9776 77.4388 81.3095 77.0439C81.6414 76.6508 82.0358 76.4542 82.4926 76.4542C82.9513 76.4542 83.341 76.7029 83.6617 77.2004C83.9862 77.6997 84.2258 78.4225 84.3805 79.369Z" fill="#9A9B9F"/>
<path d="M54.0115 84.9442V76.7812H55.0519V84.8603C55.0519 86.1365 55.1694 87.0951 55.4043 87.7359C55.6374 88.3712 55.988 88.6889 56.456 88.6889C57.0172 88.6889 57.4601 88.307 57.7845 87.5431C58.1127 86.7811 58.2768 85.7415 58.2768 84.4244V76.7812H59.3173V90.265H58.2768V88.1943C58.0232 89.0121 57.7286 89.6223 57.393 90.0247C57.0611 90.4178 56.6751 90.6144 56.235 90.6144C55.5078 90.6144 54.955 90.1328 54.5765 89.1696C54.1998 88.2064 54.0115 86.7979 54.0115 84.9442ZM66.3907 79.369C66.6517 78.3741 66.9631 77.6401 67.3249 77.1668C67.6866 76.6918 68.1127 76.4542 68.6031 76.4542C69.2631 76.4542 69.7722 76.9479 70.1302 77.9353C70.4882 78.9153 70.6672 80.3126 70.6672 82.1272V90.265H69.6211V82.1971C69.6211 80.906 69.513 79.9474 69.2967 79.3215C69.0823 78.6955 68.755 78.3825 68.315 78.3825C67.7761 78.3825 67.35 78.7635 67.0368 79.5255C66.7235 80.2875 66.5669 81.327 66.5669 82.6442V90.265H65.5208V82.1971C65.5208 80.8967 65.4136 79.9381 65.1992 79.3215C64.9829 78.6955 64.651 78.3825 64.2035 78.3825C63.6721 78.3825 63.2497 78.7672 62.9365 79.5366C62.6232 80.3005 62.4666 81.3364 62.4666 82.6442V90.265H61.4205V76.7812H62.4666V78.8743C62.7034 78.049 62.9878 77.4388 63.3197 77.0439C63.6516 76.6508 64.0459 76.4542 64.5028 76.4542C64.9633 76.4542 65.353 76.7029 65.6719 77.2004C65.9963 77.6997 66.2359 78.4225 66.3907 79.369ZM72.7034 90.265V71.5302H73.7494V82.5967L76.854 76.7812H78.1825L74.8234 83.0886L78.3224 90.265H76.9659L73.7494 83.6782V90.265H72.7034ZM84.3805 79.369C84.6397 78.3741 84.9511 77.6401 85.3147 77.1668C85.6765 76.6918 86.1016 76.4542 86.5901 76.4542C87.2502 76.4542 87.7592 76.9479 88.1172 77.9353C88.4752 78.9153 88.6543 80.3126 88.6543 82.1272V90.265H87.6082V82.1971C87.6082 80.906 87.501 79.9474 87.2865 79.3215C87.0721 78.6955 86.7439 78.3825 86.302 78.3825C85.7632 78.3825 85.3371 78.7635 85.0238 79.5255C84.7124 80.2875 84.5567 81.327 84.5567 82.6442V90.265H83.5107V82.1971C83.5107 80.8967 83.4026 79.9381 83.1863 79.3215C82.9718 78.6955 82.6399 78.3825 82.1905 78.3825C81.6591 78.3825 81.2377 78.7672 80.9263 79.5366C80.6131 80.3005 80.4564 81.3364 80.4564 82.6442V90.265H79.4104V76.7812H80.4564V78.8743C80.6933 78.049 80.9776 77.4388 81.3095 77.0439C81.6414 76.6508 82.0358 76.4542 82.4926 76.4542C82.9513 76.4542 83.341 76.7029 83.6617 77.2004C83.9862 77.6997 84.2258 78.4225 84.3805 79.369Z" fill="#9A9B9F"/>
<path d="M64.1337 55.4809C55.1751 72.8828 36.6147 72.6704 27.7092 55.4809C38.6452 67.5256 50.7475 67.9168 64.1337 55.4809Z" fill="#00AA4F"/>
<path d="M45.9005 82.1552C66.4719 73.3914 50.9657 49.6123 27.7092 55.4809C48.5883 56.7971 56.5288 71.1222 45.9005 82.1552Z" fill="#102694"/>
<path d="M45.9424 82.1552C25.3682 73.3914 40.8744 49.6123 64.1337 55.4809C43.2518 56.7971 35.3141 71.1222 45.9424 82.1552Z" fill="#FF2D16"/>
<path d="M48.2274 10.2311C53.8716 10.2311 58.4446 14.803 58.4446 20.4397C58.4446 26.0791 53.8716 30.6483 48.2274 30.6483C42.586 30.6483 38.0103 26.0791 38.0103 20.4397C38.0103 14.803 42.586 10.2311 48.2274 10.2311Z" fill="#DCAD67"/>
</svg>
